<svg xmlns="http://www.w3.org/2000/svg" xmlns:xlink="http://www.w3.org/1999/xlink" contentStyleType="text/css" data-diagram-type="CLASS" height="437px" preserveAspectRatio="none" style="width:398px;height:437px;background:#F9F9F9;" version="1.1" viewBox="0 0 398 437" width="398px" zoomAndPan="magnify"><defs><filter height="300%" id="frqforhs6k9mr" width="300%" x="-1" y="-1"><feGaussianBlur result="blurOut" stdDeviation="2"/><feColorMatrix in="blurOut" result="blurOut2" type="matrix" values="0 0 0 0 0 0 0 0 0 0 0 0 0 0 0 0 0 0 .4 0"/><feOffset dx="4" dy="4" in="blurOut2" result="blurOut3"/><feBlend in="SourceGraphic" in2="blurOut3" mode="normal"/></filter></defs><g><rect fill="#F9F9F9" height="437" style="stroke:none;stroke-width:1;" width="398" x="0" y="0"/><!--cluster searchkey--><g class="cluster" data-entity="searchkey" data-source-line="22" data-uid="ent0002" id="cluster_searchkey"><path d="M13.5,6 L77.084,6 A11.25,11.25 0 0 1 84.584,13.5 L91.584,28.4883 L376.5,28.4883 A7.5,7.5 0 0 1 384,35.9883 L384,415.62 A7.5,7.5 0 0 1 376.5,423.12 L13.5,423.12 A7.5,7.5 0 0 1 6,415.62 L6,13.5 A7.5,7.5 0 0 1 13.5,6" fill="none" filter="url(#frqforhs6k9mr)" style="stroke:#000000;stroke-width:1.5;"/><line style="stroke:#000000;stroke-width:1.5;" x1="6" x2="91.584" y1="28.4883" y2="28.4883"/><text fill="#000000" font-family="sans-serif" font-size="14" font-weight="bold" lengthAdjust="spacing" textLength="72.584" x="10" y="21.5352">searchkey</text></g><!--class SearchKey--><g class="entity" data-entity="SearchKey" data-source-line="23" data-uid="ent0003" id="entity_SearchKey"><rect fill="#CFEFFF" filter="url(#frqforhs6k9mr)" height="153.0625" rx="7.5" ry="7.5" style="stroke:#888888;stroke-width:0.5;" width="248.0518" x="70.97" y="41"/><ellipse cx="156.5047" cy="60.0664" fill="#B4A7E5" rx="11" ry="11" style="stroke:#181818;stroke-width:1;"/><path d="M152.4324,55.8315 L152.4324,53.6733 L159.8118,53.6733 L159.8118,55.8315 L157.3465,55.8315 L157.3465,63.9082 L159.8118,63.9082 L159.8118,66.0664 L152.4324,66.0664 L152.4324,63.9082 L154.8977,63.9082 L154.8977,55.8315 Z " fill="#000000"/><text fill="#000000" font-family="sans-serif" font-size="12" font-style="italic" lengthAdjust="spacing" textLength="45.4219" x="188.5349" y="57.6016">&#171;entity&#187;</text><text fill="#000000" font-family="Helvetica" font-size="14" font-style="italic" lengthAdjust="spacing" textLength="68.4824" x="177.0047" y="70.9131">SearchKey</text><line style="stroke:#888888;stroke-width:0.5;" x1="71.97" x2="318.0218" y1="79.1328" y2="79.1328"/><line style="stroke:#888888;stroke-width:0.5;" x1="71.97" x2="318.0218" y1="87.1328" y2="87.1328"/><text fill="#000000" font-family="sans-serif" font-size="14" lengthAdjust="spacing" textLength="200.1494" x="76.97" y="104.668">+of(string: String): SearchKey</text><text fill="#000000" font-family="sans-serif" font-size="14" lengthAdjust="spacing" textLength="236.0518" x="76.97" y="121.1563">+of(args: List&lt;String&gt;): SearchKey</text><text fill="#000000" font-family="sans-serif" font-size="14" lengthAdjust="spacing" textLength="143.1787" x="76.97" y="137.6445">+colorString(): String</text><text fill="#000000" font-family="sans-serif" font-size="14" lengthAdjust="spacing" textLength="162.9824" x="76.97" y="154.1328">+noColorString(): String</text><text fill="#000000" font-family="sans-serif" font-size="14" lengthAdjust="spacing" textLength="162.2715" x="76.97" y="170.6211">+BLANK(): DisplayName</text><text fill="#000000" font-family="sans-serif" font-size="14" lengthAdjust="spacing" textLength="152.585" x="76.97" y="187.1094">+NULL(): DisplayName</text></g><!--class ValidSearchKey--><g class="entity" data-entity="ValidSearchKey" data-source-line="31" data-uid="ent0004" id="entity_ValidSearchKey"><rect fill="#E6FFE6" filter="url(#frqforhs6k9mr)" height="87.1094" rx="7.5" ry="7.5" style="stroke:#888888;stroke-width:0.5;" width="131.6133" x="22.19" y="287.03"/><ellipse cx="37.19" cy="306.0964" fill="#ADD1B2" rx="11" ry="11" style="stroke:#181818;stroke-width:1;"/><path d="M40.1631,311.7395 Q39.5821,312.0383 38.9429,312.1877 Q38.3038,312.3371 37.5982,312.3371 Q35.0914,312.3371 33.7715,310.6853 Q32.4517,309.0334 32.4517,305.9123 Q32.4517,302.7829 33.7715,301.1311 Q35.0914,299.4792 37.5982,299.4792 Q38.3038,299.4792 38.9512,299.6286 Q39.5987,299.778 40.1631,300.0769 L40.1631,302.7995 Q39.5323,302.2185 38.9388,301.9487 Q38.3453,301.6789 37.7144,301.6789 Q36.3697,301.6789 35.6849,302.7456 Q35.0001,303.8122 35.0001,305.9123 Q35.0001,308.0041 35.6849,309.0708 Q36.3697,310.1374 37.7144,310.1374 Q38.3453,310.1374 38.9388,309.8676 Q39.5323,309.5979 40.1631,309.0168 Z " fill="#000000"/><text fill="#000000" font-family="sans-serif" font-size="12" font-style="italic" lengthAdjust="spacing" textLength="79.6934" x="61.15" y="303.6316">&#171;entity-valid&#187;</text><text fill="#000000" font-family="Helvetica" font-size="14" lengthAdjust="spacing" textLength="99.6133" x="51.19" y="316.9431">ValidSearchKey</text><line style="stroke:#888888;stroke-width:0.5;" x1="23.19" x2="152.8033" y1="325.1628" y2="325.1628"/><text fill="#000000" font-family="sans-serif" font-size="14" lengthAdjust="spacing" textLength="96.4961" x="28.19" y="342.698">-string: String</text><line style="stroke:#888888;stroke-width:1;" x1="23.19" x2="152.8033" y1="349.6511" y2="349.6511"/><text fill="#000000" font-family="sans-serif" font-size="14" lengthAdjust="spacing" textLength="108.6299" x="28.19" y="367.1863">+string(): String</text></g><!--class InvalidSearchKey--><g class="entity" data-entity="InvalidSearchKey" data-source-line="36" data-uid="ent0005" id="entity_InvalidSearchKey"><rect fill="#FFE6E6" filter="url(#frqforhs6k9mr)" height="153.0625" rx="7.5" ry="7.5" style="stroke:#888888;stroke-width:0.5;" width="179.2959" x="188.35" y="254.06"/><ellipse cx="220.6051" cy="273.1264" fill="#ADD1B2" rx="11" ry="11" style="stroke:#181818;stroke-width:1;"/><path d="M223.5783,278.7695 Q222.9972,279.0683 222.3581,279.2177 Q221.7189,279.3671 221.0133,279.3671 Q218.5065,279.3671 217.1867,277.7153 Q215.8668,276.0634 215.8668,272.9423 Q215.8668,269.8129 217.1867,268.1611 Q218.5065,266.5092 221.0133,266.5092 Q221.7189,266.5092 222.3664,266.6586 Q223.0138,266.808 223.5783,267.1069 L223.5783,269.8295 Q222.9474,269.2485 222.3539,268.9787 Q221.7604,268.7089 221.1295,268.7089 Q219.7848,268.7089 219.1,269.7756 Q218.4152,270.8422 218.4152,272.9423 Q218.4152,275.0341 219.1,276.1008 Q219.7848,277.1674 221.1295,277.1674 Q221.7604,277.1674 222.3539,276.8976 Q222.9474,276.6279 223.5783,276.0468 Z " fill="#000000"/><text fill="#000000" font-family="sans-serif" font-size="12" font-style="italic" lengthAdjust="spacing" textLength="90.6094" x="247.6105" y="270.6616">&#171;entity-invalid&#187;</text><text fill="#000000" font-family="Helvetica" font-size="14" lengthAdjust="spacing" textLength="108.9512" x="238.4396" y="283.9731">InvalidSearchKey</text><line style="stroke:#888888;stroke-width:0.5;" x1="189.35" x2="366.6459" y1="292.1928" y2="292.1928"/><text fill="#000000" font-family="sans-serif" font-size="14" lengthAdjust="spacing" textLength="155.1621" x="194.35" y="309.728">-parameter: Parameter</text><text fill="#000000" font-family="sans-serif" font-size="14" lengthAdjust="spacing" textLength="134.7842" x="194.35" y="326.2163">-reason: FailReason</text><text fill="#000000" font-family="sans-serif" font-size="14" lengthAdjust="spacing" textLength="96.4961" x="194.35" y="342.7045">-string: String</text><line style="stroke:#888888;stroke-width:1;" x1="189.35" x2="366.6459" y1="349.6577" y2="349.6577"/><text fill="#000000" font-family="sans-serif" font-size="14" lengthAdjust="spacing" textLength="167.2959" x="194.35" y="367.1928">+parameter(): Parameter</text><text fill="#000000" font-family="sans-serif" font-size="14" lengthAdjust="spacing" textLength="146.918" x="194.35" y="383.6811">+reason(): FailReason</text><text fill="#000000" font-family="sans-serif" font-size="14" lengthAdjust="spacing" textLength="108.6299" x="194.35" y="400.1694">+string(): String</text></g><!--reverse link SearchKey to ValidSearchKey--><g class="link" data-entity-1="SearchKey" data-entity-2="ValidSearchKey" data-source-line="48" data-uid="lnk6" id="link_SearchKey_ValidSearchKey"><path codeLine="48" d="M153.8065,199.7813 C138.0465,230.8613 123.12,260.32 109.68,286.83" fill="none" id="SearchKey-backto-ValidSearchKey" style="stroke:#444444;stroke-width:1.2;"/><polygon fill="#444444" points="156.52,194.43,148.8821,200.648,154.2587,198.8894,156.0172,204.266,156.52,194.43" style="stroke:#444444;stroke-width:1.2;"/></g><!--reverse link SearchKey to InvalidSearchKey--><g class="link" data-entity-1="SearchKey" data-entity-2="InvalidSearchKey" data-source-line="49" data-uid="lnk7" id="link_SearchKey_InvalidSearchKey"><path codeLine="49" d="M227.0448,200.0142 C234.6148,219.2742 240.56,234.39 248.14,253.65" fill="none" id="SearchKey-backto-InvalidSearchKey" style="stroke:#444444;stroke-width:1.2;"/><polygon fill="#444444" points="224.85,194.43,224.4194,204.2694,226.679,199.0835,231.865,201.343,224.85,194.43" style="stroke:#444444;stroke-width:1.2;"/></g><!--SRC=[bP9TIyCm58Rl-oiEUZ55AavKj6o3JL67POgRWfTPUjA5rMGacMFA_hjDMjTODzGKsj3dpVbuJnhGRhVX9hxlTMCOZbxY_k36_Whqb8iPKUGLneHEKoNd8hcKcLImooxiuodqX2HomKKAHitH0-Kf9L11yzG3NQNaeWntubOTZYQSJWLg3St3upgybi8C-Jj2i-cXMLueIN74JOQLmezCCwArHGFoYh1pYzaR6ax9JbtJDKRnyTnWdqhXuXpL9V0H0FHgtYmctA3zBrM2gcpmtArWzPS8hHOAmysoqu5Tof0nbcksgi8tal74Ql6CCJpR7Y_aOgsrobox2eBICT1859rCSUbA0k32e6A48WmTkSk9LraXiki09DlJkLSYZM3elljHTUYxZgXKHn1pRLg5jBD5IstbXMHl_okknuMy_4NHYxk3Eqkkk9vbP6ddxU71KnnleYltBeRpREtwsVxQyig44BuxK87GowatLUidx1SJsf2ocfsVrDqap0SLmSFNriCAYPOYWcl2iqUt_sV1w_YsvfyP3ieCbcx8iRNX_DerC4bH1rwdOLZpkmRhtWIV]--></g></svg>