<?xml version="1.0" encoding="UTF-8" standalone="no"?>
<!--
  - Copyright (c) 2025 Tim Savage.
  -
  - This program is free software: you can redistribute it and/or modify
  - it under the terms of the GNU General Public License as published by
  - the Free Software Foundation, version 3.
  -
  - This program is distributed in the hope that it will be useful, but
  - WITHOUT ANY WARRANTY; without even the implied warranty of
  - MERCHANTABILITY or FITNESS FOR A PARTICULAR PURPOSE. See the GNU
  - General Public License for more details.
  -
  - You should have received a copy of the GNU General Public License
  - along with this program. If not, see <http://www.gnu.org/licenses/>.
  -
  -->

<!DOCTYPE svg PUBLIC "-//W3C//DTD SVG 1.1//EN"
		"http://www.w3.org/Graphics/SVG/1.1/DTD/svg11.dtd">
<!-- Generated by graphviz version 13.1.2 (20250808.2320)
 -->
<!-- Title: g Pages: 1 -->
<svg width="625pt" height="740pt"
	 viewBox="0.00 0.00 625.00 740.00" xmlns="http://www.w3.org/2000/svg" xmlns:xlink="http://www.w3.org/1999/xlink">
	<g id="graph0" class="graph" transform="scale(1 1) rotate(0) translate(4 735.5)">
		<title>g</title>
		<polygon fill="white" stroke="none" points="-4,4 -4,-735.5 621,-735.5 621,4 -4,4"/>
		<g id="clust1" class="cluster">
			<title>cluster_1655488073</title>
			<polygon fill="#ececec" stroke="black" points="8,-8 8,-723.5 609,-723.5 609,-8 8,-8"/>
			<text xml:space="preserve" text-anchor="middle" x="58" y="-706.2" font-family="Times,serif" font-size="14.00">winterhavenmc</text>
		</g>
		<g id="clust2" class="cluster">
			<title>cluster_718573502</title>
			<polygon fill="#d8d8d8" stroke="black" points="16,-16 16,-691 601,-691 601,-16 16,-16"/>
			<text xml:space="preserve" text-anchor="middle" x="72" y="-673.7" font-family="Times,serif" font-size="14.00">savagegraveyards</text>
		</g>
		<!-- DisplayName1488080184 -->
		<g id="node1" class="node">
			<title>DisplayName1488080184</title>
			<polygon fill="#f1e5fd" stroke="none" points="249.62,-432.5 24.38,-432.5 24.38,-234.5 249.62,-234.5 249.62,-432.5"/>
			<text xml:space="preserve" text-anchor="start" x="29.38" y="-414.2" font-family="Times,serif" font-size="14.00">(I)DisplayName</text>
			<text xml:space="preserve" text-anchor="start" x="29.38" y="-389.7" font-family="Times,serif" font-size="14.00">+ BLANK(): DisplayName</text>
			<text xml:space="preserve" text-anchor="start" x="29.38" y="-365.2" font-family="Times,serif" font-size="14.00">+ NULL(): DisplayName</text>
			<text xml:space="preserve" text-anchor="start" x="29.38" y="-340.7" font-family="Times,serif" font-size="14.00">+ colorString(): String</text>
			<text xml:space="preserve" text-anchor="start" x="29.38" y="-316.2" font-family="Times,serif" font-size="14.00">+ noColorString(): String</text>
			<text xml:space="preserve" text-anchor="start" x="29.38" y="-291.7" font-family="Times,serif" font-size="14.00">+ of(string: String): DisplayName</text>
			<text xml:space="preserve" text-anchor="start" x="29.38" y="-267.2" font-family="Times,serif" font-size="14.00">+ of(args: List&lt;String&gt;): DisplayName</text>
			<text xml:space="preserve" text-anchor="start" x="29.38" y="-242.7" font-family="Times,serif" font-size="14.00">&#45; transform(string: String): String</text>
			<polygon fill="black" stroke="black" points="24.38,-407 24.38,-407 249.62,-407 249.62,-407 24.38,-407"/>
			<polygon fill="none" stroke="black" points="24.38,-234.5 24.38,-432.5 249.62,-432.5 249.62,-234.5 24.38,-234.5"/>
		</g>
		<!-- InvalidDisplayName1488080184 -->
		<g id="node2" class="node">
			<title>InvalidDisplayName1488080184</title>
			<polygon fill="#ffffff" stroke="none" points="209.62,-197.5 32.38,-197.5 32.38,-24 209.62,-24 209.62,-197.5"/>
			<text xml:space="preserve" text-anchor="start" x="37.38" y="-179.2" font-family="Times,serif" font-size="14.00">(C)InvalidDisplayName</text>
			<text xml:space="preserve" text-anchor="start" x="37.38" y="-154.7" font-family="Times,serif" font-size="14.00">&#45; &#160;&#160;parameter: Parameter [0..1]</text>
			<text xml:space="preserve" text-anchor="start" x="37.38" y="-130.2" font-family="Times,serif" font-size="14.00">&#45; &#160;&#160;reason: FailReason [0..1]</text>
			<text xml:space="preserve" text-anchor="start" x="37.38" y="-105.7" font-family="Times,serif" font-size="14.00">&#45; &#160;&#160;string: String [0..1]</text>
			<text xml:space="preserve" text-anchor="start" x="37.38" y="-81.2" font-family="Times,serif" font-size="14.00">+ parameter(): Parameter</text>
			<text xml:space="preserve" text-anchor="start" x="37.38" y="-56.7" font-family="Times,serif" font-size="14.00">+ reason(): FailReason</text>
			<text xml:space="preserve" text-anchor="start" x="37.38" y="-32.2" font-family="Times,serif" font-size="14.00">+ string(): String</text>
			<polygon fill="black" stroke="black" points="32.38,-172 32.38,-172 209.62,-172 209.62,-172 32.38,-172"/>
			<polygon fill="black" stroke="black" points="32.38,-98.5 32.38,-98.5 209.62,-98.5 209.62,-98.5 32.38,-98.5"/>
			<polygon fill="none" stroke="black" points="32.38,-24 32.38,-197.5 209.62,-197.5 209.62,-24 32.38,-24"/>
		</g>
		<!-- DisplayName1488080184&#45;&gt;InvalidDisplayName1488080184 -->
		<g id="edge1" class="edge">
			<title>DisplayName1488080184&#45;&gt;InvalidDisplayName1488080184</title>
			<path fill="none" stroke="black" d="M129.08,-223.28C128.45,-214.57 127.82,-205.85 127.2,-197.34"/>
			<polygon fill="none" stroke="black" points="125.59,-223.48 129.8,-233.2 132.57,-222.98 125.59,-223.48"/>
		</g>
		<!-- ValidDisplayName1488080184 -->
		<g id="node5" class="node">
			<title>ValidDisplayName1488080184</title>
			<polygon fill="#ffffff" stroke="none" points="410.25,-148.5 227.75,-148.5 227.75,-73 410.25,-73 410.25,-148.5"/>
			<text xml:space="preserve" text-anchor="start" x="232.75" y="-130.2" font-family="Times,serif" font-size="14.00">(C)ValidDisplayName</text>
			<text xml:space="preserve" text-anchor="start" x="232.75" y="-105.7" font-family="Times,serif" font-size="14.00">&#45; &#160;&#160;string: String [0..1]</text>
			<text xml:space="preserve" text-anchor="start" x="232.75" y="-81.2" font-family="Times,serif" font-size="14.00">+ searchKey(): ValidSearchKey</text>
			<polygon fill="black" stroke="black" points="227.75,-123 227.75,-123 410.25,-123 410.25,-123 227.75,-123"/>
			<polygon fill="black" stroke="black" points="227.75,-98.5 227.75,-98.5 410.25,-98.5 410.25,-98.5 227.75,-98.5"/>
			<polygon fill="none" stroke="black" points="227.75,-73 227.75,-148.5 410.25,-148.5 410.25,-73 227.75,-73"/>
		</g>
		<!-- DisplayName1488080184&#45;&gt;ValidDisplayName1488080184 -->
		<g id="edge2" class="edge">
			<title>DisplayName1488080184&#45;&gt;ValidDisplayName1488080184</title>
			<path fill="none" stroke="black" d="M224.76,-226.06C247.8,-198.11 271.12,-169.83 288.8,-148.39"/>
			<polygon fill="none" stroke="black" points="222.25,-223.6 218.59,-233.54 227.65,-228.05 222.25,-223.6"/>
		</g>
		<!-- InvalidSearchKey1559188750 -->
		<g id="node3" class="node">
			<title>InvalidSearchKey1559188750</title>
			<polygon fill="#ffffff" stroke="none" points="444.62,-420.25 267.38,-420.25 267.38,-246.75 444.62,-246.75 444.62,-420.25"/>
			<text xml:space="preserve" text-anchor="start" x="272.38" y="-401.95" font-family="Times,serif" font-size="14.00">(C)InvalidSearchKey</text>
			<text xml:space="preserve" text-anchor="start" x="272.38" y="-377.45" font-family="Times,serif" font-size="14.00">&#45; &#160;&#160;parameter: Parameter [0..1]</text>
			<text xml:space="preserve" text-anchor="start" x="272.38" y="-352.95" font-family="Times,serif" font-size="14.00">&#45; &#160;&#160;reason: FailReason [0..1]</text>
			<text xml:space="preserve" text-anchor="start" x="272.38" y="-328.45" font-family="Times,serif" font-size="14.00">&#45; &#160;&#160;string: String [0..1]</text>
			<text xml:space="preserve" text-anchor="start" x="272.38" y="-303.95" font-family="Times,serif" font-size="14.00">+ parameter(): Parameter</text>
			<text xml:space="preserve" text-anchor="start" x="272.38" y="-279.45" font-family="Times,serif" font-size="14.00">+ reason(): FailReason</text>
			<text xml:space="preserve" text-anchor="start" x="272.38" y="-254.95" font-family="Times,serif" font-size="14.00">+ string(): String</text>
			<polygon fill="black" stroke="black" points="267.38,-394.75 267.38,-394.75 444.62,-394.75 444.62,-394.75 267.38,-394.75"/>
			<polygon fill="black" stroke="black" points="267.38,-321.25 267.38,-321.25 444.62,-321.25 444.62,-321.25 267.38,-321.25"/>
			<polygon fill="none" stroke="black" points="267.38,-246.75 267.38,-420.25 444.62,-420.25 444.62,-246.75 267.38,-246.75"/>
		</g>
		<!-- SearchKey1559188750 -->
		<g id="node4" class="node">
			<title>SearchKey1559188750</title>
			<polygon fill="#f1e5fd" stroke="none" points="460.75,-658.5 251.25,-658.5 251.25,-485 460.75,-485 460.75,-658.5"/>
			<text xml:space="preserve" text-anchor="start" x="256.25" y="-640.2" font-family="Times,serif" font-size="14.00">(I)SearchKey</text>
			<text xml:space="preserve" text-anchor="start" x="256.25" y="-615.7" font-family="Times,serif" font-size="14.00">+ of(args: List&lt;String&gt;): SearchKey</text>
			<text xml:space="preserve" text-anchor="start" x="256.25" y="-591.2" font-family="Times,serif" font-size="14.00">+ of(string: String): SearchKey</text>
			<text xml:space="preserve" text-anchor="start" x="256.25" y="-566.7" font-family="Times,serif" font-size="14.00">+ string(): String</text>
			<text xml:space="preserve" text-anchor="start" x="256.25" y="-542.2" font-family="Times,serif" font-size="14.00">&#45; stripColor(string: String): String</text>
			<text xml:space="preserve" text-anchor="start" x="256.25" y="-517.7" font-family="Times,serif" font-size="14.00">+ toDisplayName(): DisplayName</text>
			<text xml:space="preserve" text-anchor="start" x="256.25" y="-493.2" font-family="Times,serif" font-size="14.00">&#45; transform(string: String): String</text>
			<polygon fill="black" stroke="black" points="251.25,-633 251.25,-633 460.75,-633 460.75,-633 251.25,-633"/>
			<polygon fill="none" stroke="black" points="251.25,-485 251.25,-658.5 460.75,-658.5 460.75,-485 251.25,-485"/>
		</g>
		<!-- SearchKey1559188750&#45;&gt;DisplayName1488080184 -->
		<g id="edge3" class="edge">
			<title>SearchKey1559188750&#45;&gt;DisplayName1488080184</title>
			<path fill="none" stroke="black" d="M251.36,-492.65C231.61,-477.91 217,-467 217,-467 217,-467 210.81,-456.75 201.87,-441.94"/>
			<polygon fill="black" stroke="black" points="204.93,-440.23 196.76,-433.48 198.94,-443.85 204.93,-440.23"/>
			<text xml:space="preserve" text-anchor="middle" x="284.5" y="-453.7" font-family="Times,serif" font-size="14.00">toDisplayName() &#45;&gt; of()</text>
		</g>
		<!-- SearchKey1559188750&#45;&gt;InvalidSearchKey1559188750 -->
		<g id="edge4" class="edge">
			<title>SearchKey1559188750&#45;&gt;InvalidSearchKey1559188750</title>
			<path fill="none" stroke="black" d="M356,-473.86C356,-456.09 356,-437.65 356,-420.23"/>
			<polygon fill="none" stroke="black" points="352.5,-473.61 356,-483.61 359.5,-473.61 352.5,-473.61"/>
		</g>
		<!-- ValidSearchKey1559188750 -->
		<g id="node6" class="node">
			<title>ValidSearchKey1559188750</title>
			<polygon fill="#ffffff" stroke="none" points="593.38,-371.25 462.62,-371.25 462.62,-295.75 593.38,-295.75 593.38,-371.25"/>
			<text xml:space="preserve" text-anchor="start" x="467.62" y="-352.95" font-family="Times,serif" font-size="14.00">(C)ValidSearchKey</text>
			<text xml:space="preserve" text-anchor="start" x="467.62" y="-328.45" font-family="Times,serif" font-size="14.00">&#45; &#160;&#160;string: String [0..1]</text>
			<text xml:space="preserve" text-anchor="start" x="467.62" y="-303.95" font-family="Times,serif" font-size="14.00">+ string(): String</text>
			<polygon fill="black" stroke="black" points="462.62,-345.75 462.62,-345.75 593.38,-345.75 593.38,-345.75 462.62,-345.75"/>
			<polygon fill="black" stroke="black" points="462.62,-321.25 462.62,-321.25 593.38,-321.25 593.38,-321.25 462.62,-321.25"/>
			<polygon fill="none" stroke="black" points="462.62,-295.75 462.62,-371.25 593.38,-371.25 593.38,-295.75 462.62,-295.75"/>
		</g>
		<!-- SearchKey1559188750&#45;&gt;ValidSearchKey1559188750 -->
		<g id="edge5" class="edge">
			<title>SearchKey1559188750&#45;&gt;ValidSearchKey1559188750</title>
			<path fill="none" stroke="black" d="M425.09,-475.85C451.88,-439.05 480.95,-399.13 501.33,-371.13"/>
			<polygon fill="none" stroke="black" points="422.29,-473.76 419.23,-483.9 427.95,-477.88 422.29,-473.76"/>
		</g>
	</g>
</svg>
