<?xml version="1.0" encoding="UTF-8" standalone="no"?>
<!DOCTYPE svg PUBLIC "-//W3C//DTD SVG 1.1//EN"
		"http://www.w3.org/Graphics/SVG/1.1/DTD/svg11.dtd">
<!-- Generated by graphviz version 13.1.2 (20250808.2320)
 -->
<!-- Title: g Pages: 1 -->
<svg width="382pt" height="488pt"
	 viewBox="0.00 0.00 382.00 488.00" xmlns="http://www.w3.org/2000/svg" xmlns:xlink="http://www.w3.org/1999/xlink">
	<g id="graph0" class="graph" transform="scale(1 1) rotate(0) translate(4 484)">
		<title>g</title>
		<polygon fill="white" stroke="none" points="-4,4 -4,-484 378,-484 378,4 -4,4"/>
		<g id="clust1" class="cluster">
			<title>cluster_1655488073</title>
			<polygon fill="#ececec" stroke="black" points="8,-8 8,-472 366,-472 366,-8 8,-8"/>
			<text xml:space="preserve" text-anchor="middle" x="58" y="-454.7" font-family="Times,serif" font-size="14.00">winterhavenmc</text>
		</g>
		<g id="clust2" class="cluster">
			<title>cluster_718573502</title>
			<polygon fill="#d8d8d8" stroke="black" points="16,-16 16,-439.5 358,-439.5 358,-16 16,-16"/>
			<text xml:space="preserve" text-anchor="middle" x="72" y="-422.2" font-family="Times,serif" font-size="14.00">savagegraveyards</text>
		</g>
		<!-- InvalidSearchKey1559188750 -->
		<g id="node1" class="node">
			<title>InvalidSearchKey1559188750</title>
			<polygon fill="#ffffff" stroke="none" points="201.62,-197.5 24.38,-197.5 24.38,-24 201.62,-24 201.62,-197.5"/>
			<text xml:space="preserve" text-anchor="start" x="29.38" y="-179.2" font-family="Times,serif" font-size="14.00">(C)InvalidSearchKey</text>
			<text xml:space="preserve" text-anchor="start" x="29.38" y="-154.7" font-family="Times,serif" font-size="14.00">&#45; &#160;&#160;parameter: Parameter [0..1]</text>
			<text xml:space="preserve" text-anchor="start" x="29.38" y="-130.2" font-family="Times,serif" font-size="14.00">&#45; &#160;&#160;reason: FailReason [0..1]</text>
			<text xml:space="preserve" text-anchor="start" x="29.38" y="-105.7" font-family="Times,serif" font-size="14.00">&#45; &#160;&#160;string: String [0..1]</text>
			<text xml:space="preserve" text-anchor="start" x="29.38" y="-81.2" font-family="Times,serif" font-size="14.00">+ parameter(): Parameter</text>
			<text xml:space="preserve" text-anchor="start" x="29.38" y="-56.7" font-family="Times,serif" font-size="14.00">+ reason(): FailReason</text>
			<text xml:space="preserve" text-anchor="start" x="29.38" y="-32.2" font-family="Times,serif" font-size="14.00">+ string(): String</text>
			<polygon fill="black" stroke="black" points="24.38,-172 24.38,-172 201.62,-172 201.62,-172 24.38,-172"/>
			<polygon fill="black" stroke="black" points="24.38,-98.5 24.38,-98.5 201.62,-98.5 201.62,-98.5 24.38,-98.5"/>
			<polygon fill="none" stroke="black" points="24.38,-24 24.38,-197.5 201.62,-197.5 201.62,-24 24.38,-24"/>
		</g>
		<!-- SearchKey1559188750 -->
		<g id="node2" class="node">
			<title>SearchKey1559188750</title>
			<polygon fill="#f1e5fd" stroke="none" points="300.75,-407 73.25,-407 73.25,-233.5 300.75,-233.5 300.75,-407"/>
			<text xml:space="preserve" text-anchor="start" x="78.25" y="-388.7" font-family="Times,serif" font-size="14.00">(I)SearchKey</text>
			<text xml:space="preserve" text-anchor="start" x="78.25" y="-364.2" font-family="Times,serif" font-size="14.00">+ isValid(): Optional&lt;ValidSearchKey&gt;</text>
			<text xml:space="preserve" text-anchor="start" x="78.25" y="-339.7" font-family="Times,serif" font-size="14.00">+ of(args: List&lt;String&gt;): SearchKey</text>
			<text xml:space="preserve" text-anchor="start" x="78.25" y="-315.2" font-family="Times,serif" font-size="14.00">+ of(string: String): SearchKey</text>
			<text xml:space="preserve" text-anchor="start" x="78.25" y="-290.7" font-family="Times,serif" font-size="14.00">+ string(): String</text>
			<text xml:space="preserve" text-anchor="start" x="78.25" y="-266.2" font-family="Times,serif" font-size="14.00">&#45; stripColor(string: String): String</text>
			<text xml:space="preserve" text-anchor="start" x="78.25" y="-241.7" font-family="Times,serif" font-size="14.00">&#45; transform(string: String): String</text>
			<polygon fill="black" stroke="black" points="73.25,-381.5 73.25,-381.5 300.75,-381.5 300.75,-381.5 73.25,-381.5"/>
			<polygon fill="none" stroke="black" points="73.25,-233.5 73.25,-407 300.75,-407 300.75,-233.5 73.25,-233.5"/>
		</g>
		<!-- SearchKey1559188750&#45;&gt;InvalidSearchKey1559188750 -->
		<g id="edge1" class="edge">
			<title>SearchKey1559188750&#45;&gt;InvalidSearchKey1559188750</title>
			<path fill="none" stroke="black" d="M152.66,-222.94C149.62,-214.45 146.57,-205.89 143.58,-197.48"/>
			<polygon fill="none" stroke="black" points="149.31,-223.98 155.97,-232.23 155.9,-221.63 149.31,-223.98"/>
		</g>
		<!-- ValidSearchKey1559188750 -->
		<g id="node3" class="node">
			<title>ValidSearchKey1559188750</title>
			<polygon fill="#ffffff" stroke="none" points="350.38,-148.5 219.62,-148.5 219.62,-73 350.38,-73 350.38,-148.5"/>
			<text xml:space="preserve" text-anchor="start" x="224.62" y="-130.2" font-family="Times,serif" font-size="14.00">(C)ValidSearchKey</text>
			<text xml:space="preserve" text-anchor="start" x="224.62" y="-105.7" font-family="Times,serif" font-size="14.00">&#45; &#160;&#160;string: String [0..1]</text>
			<text xml:space="preserve" text-anchor="start" x="224.62" y="-81.2" font-family="Times,serif" font-size="14.00">+ string(): String</text>
			<polygon fill="black" stroke="black" points="219.62,-123 219.62,-123 350.38,-123 350.38,-123 219.62,-123"/>
			<polygon fill="black" stroke="black" points="219.62,-98.5 219.62,-98.5 350.38,-98.5 350.38,-98.5 219.62,-98.5"/>
			<polygon fill="none" stroke="black" points="219.62,-73 219.62,-148.5 350.38,-148.5 350.38,-73 219.62,-73"/>
		</g>
		<!-- SearchKey1559188750&#45;&gt;ValidSearchKey1559188750 -->
		<g id="edge2" class="edge">
			<title>SearchKey1559188750&#45;&gt;ValidSearchKey1559188750</title>
			<path fill="none" stroke="black" d="M232.24,-223.46C244.86,-196.73 257.82,-169.29 267.74,-148.3"/>
			<polygon fill="none" stroke="black" points="229.18,-221.75 228.07,-232.29 235.51,-224.74 229.18,-221.75"/>
		</g>
	</g>
</svg>
