<svg xmlns="http://www.w3.org/2000/svg" xmlns:xlink="http://www.w3.org/1999/xlink" contentStyleType="text/css" data-diagram-type="CLASS" height="487px" preserveAspectRatio="none" style="width:1026px;height:487px;background:#F9F9F9;" version="1.1" viewBox="0 0 1026 487" width="1026px" zoomAndPan="magnify"><defs><filter height="300%" id="fve3wqw78qfxr" width="300%" x="-1" y="-1"><feGaussianBlur result="blurOut" stdDeviation="2"/><feColorMatrix in="blurOut" result="blurOut2" type="matrix" values="0 0 0 0 0 0 0 0 0 0 0 0 0 0 0 0 0 0 .4 0"/><feOffset dx="4" dy="4" in="blurOut2" result="blurOut3"/><feBlend in="SourceGraphic" in2="blurOut3" mode="normal"/></filter></defs><g><rect fill="#F9F9F9" height="487" style="stroke:none;stroke-width:1;" width="1026" x="0" y="0"/><!--cluster location--><g class="cluster" data-entity="location" data-source-line="25" data-uid="ent0002" id="cluster_location"><path d="M13.5,6 L62.0381,6 A11.25,11.25 0 0 1 69.5381,13.5 L76.5381,28.4883 L1004.5,28.4883 A7.5,7.5 0 0 1 1012,35.9883 L1012,465.09 A7.5,7.5 0 0 1 1004.5,472.59 L13.5,472.59 A7.5,7.5 0 0 1 6,465.09 L6,13.5 A7.5,7.5 0 0 1 13.5,6" fill="none" filter="url(#fve3wqw78qfxr)" style="stroke:#000000;stroke-width:1.5;"/><line style="stroke:#000000;stroke-width:1.5;" x1="6" x2="76.5381" y1="28.4883" y2="28.4883"/><text fill="#000000" font-family="sans-serif" font-size="14" font-weight="bold" lengthAdjust="spacing" textLength="57.5381" x="10" y="21.5352">location</text></g><!--class ConfirmedLocation--><g class="entity" data-entity="ConfirmedLocation" data-source-line="26" data-uid="ent0003" id="entity_ConfirmedLocation"><rect fill="#CFEFFF" filter="url(#fve3wqw78qfxr)" height="103.5977" rx="7.5" ry="7.5" style="stroke:#888888;stroke-width:0.5;" width="973.167" x="22.42" y="41"/><ellipse cx="445.9986" cy="60.0664" fill="#B4A7E5" rx="11" ry="11" style="stroke:#181818;stroke-width:1;"/><path d="M441.9263,55.8315 L441.9263,53.6733 L449.3057,53.6733 L449.3057,55.8315 L446.8404,55.8315 L446.8404,63.9082 L449.3057,63.9082 L449.3057,66.0664 L441.9263,66.0664 L441.9263,63.9082 L444.3917,63.9082 L444.3917,55.8315 Z " fill="#000000"/><text fill="#000000" font-family="sans-serif" font-size="12" font-style="italic" lengthAdjust="spacing" textLength="45.4219" x="502.5426" y="57.6016">&#171;entity&#187;</text><text fill="#000000" font-family="Helvetica" font-size="14" font-style="italic" lengthAdjust="spacing" textLength="117.5098" x="466.4986" y="70.9131">ConfirmedLocation</text><line style="stroke:#888888;stroke-width:0.5;" x1="23.42" x2="994.587" y1="79.1328" y2="79.1328"/><line style="stroke:#888888;stroke-width:0.5;" x1="23.42" x2="994.587" y1="87.1328" y2="87.1328"/><text fill="#000000" font-family="sans-serif" font-size="14" lengthAdjust="spacing" textLength="224.8203" x="28.42" y="104.668">+of(player: Player): ValidLocation</text><text fill="#000000" font-family="sans-serif" font-size="14" lengthAdjust="spacing" textLength="292.4756" x="28.42" y="121.1563">+of(location: Location): ConfirmedLocation</text><text fill="#000000" font-family="sans-serif" font-size="14" lengthAdjust="spacing" textLength="961.167" x="28.42" y="137.6445">+of(worldName: String, worldUid: UUID,                     x: double, y: double, z: double,                     yaw: float, pitch: float): ConfirmedLocation</text></g><!--class ValidLocation--><g class="entity" data-entity="ValidLocation" data-source-line="33" data-uid="ent0004" id="entity_ValidLocation"><rect fill="#E6FFE6" filter="url(#fve3wqw78qfxr)" height="251.9922" rx="7.5" ry="7.5" style="stroke:#888888;stroke-width:0.5;" width="152.0205" x="322.99" y="204.6"/><ellipse cx="354.1715" cy="223.6664" fill="#ADD1B2" rx="11" ry="11" style="stroke:#181818;stroke-width:1;"/><path d="M357.1447,229.3095 Q356.5636,229.6083 355.9245,229.7577 Q355.2853,229.9071 354.5797,229.9071 Q352.0729,229.9071 350.7531,228.2553 Q349.4333,226.6034 349.4333,223.4823 Q349.4333,220.3529 350.7531,218.7011 Q352.0729,217.0492 354.5797,217.0492 Q355.2853,217.0492 355.9328,217.1986 Q356.5802,217.348 357.1447,217.6469 L357.1447,220.3695 Q356.5138,219.7885 355.9203,219.5187 Q355.3268,219.2489 354.696,219.2489 Q353.3512,219.2489 352.6664,220.3156 Q351.9816,221.3822 351.9816,223.4823 Q351.9816,225.5741 352.6664,226.6408 Q353.3512,227.7074 354.696,227.7074 Q355.3268,227.7074 355.9203,227.4376 Q356.5138,227.1679 357.1447,226.5868 Z " fill="#000000"/><text fill="#000000" font-family="sans-serif" font-size="12" font-style="italic" lengthAdjust="spacing" textLength="79.6934" x="373.9515" y="221.2016">&#171;entity-valid&#187;</text><text fill="#000000" font-family="Helvetica" font-size="14" lengthAdjust="spacing" textLength="84.0615" x="371.7674" y="234.5131">ValidLocation</text><line style="stroke:#888888;stroke-width:0.5;" x1="323.99" x2="474.0105" y1="242.7328" y2="242.7328"/><text fill="#000000" font-family="sans-serif" font-size="14" lengthAdjust="spacing" textLength="127.8867" x="328.99" y="260.268">-world: ValidWorld</text><text fill="#000000" font-family="sans-serif" font-size="14" lengthAdjust="spacing" textLength="72.3037" x="328.99" y="276.7562">-x: double</text><text fill="#000000" font-family="sans-serif" font-size="14" lengthAdjust="spacing" textLength="71.0322" x="328.99" y="293.2445">-y: double</text><text fill="#000000" font-family="sans-serif" font-size="14" lengthAdjust="spacing" textLength="71.7432" x="328.99" y="309.7328">-z: double</text><text fill="#000000" font-family="sans-serif" font-size="14" lengthAdjust="spacing" textLength="73.5547" x="328.99" y="326.2211">-yaw: float</text><text fill="#000000" font-family="sans-serif" font-size="14" lengthAdjust="spacing" textLength="81.6758" x="328.99" y="342.7094">-pitch: float</text><line style="stroke:#888888;stroke-width:1;" x1="323.99" x2="474.0105" y1="349.6625" y2="349.6625"/><text fill="#000000" font-family="sans-serif" font-size="14" lengthAdjust="spacing" textLength="140.0205" x="328.99" y="367.1977">+world(): ValidWorld</text><text fill="#000000" font-family="sans-serif" font-size="14" lengthAdjust="spacing" textLength="84.4375" x="328.99" y="383.6859">+x(): double</text><text fill="#000000" font-family="sans-serif" font-size="14" lengthAdjust="spacing" textLength="83.166" x="328.99" y="400.1742">+y(): double</text><text fill="#000000" font-family="sans-serif" font-size="14" lengthAdjust="spacing" textLength="83.877" x="328.99" y="416.6625">+z(): double</text><text fill="#000000" font-family="sans-serif" font-size="14" lengthAdjust="spacing" textLength="85.6885" x="328.99" y="433.1508">+yaw(): float</text><text fill="#000000" font-family="sans-serif" font-size="14" lengthAdjust="spacing" textLength="93.8096" x="328.99" y="449.6391">+pitch(): float</text></g><!--class InvalidLocation--><g class="entity" data-entity="InvalidLocation" data-source-line="48" data-uid="ent0005" id="entity_InvalidLocation"><rect fill="#FFE6E6" filter="url(#fve3wqw78qfxr)" height="87.1094" rx="7.5" ry="7.5" style="stroke:#888888;stroke-width:0.5;" width="216.4561" x="509.77" y="287.04"/><ellipse cx="567.0483" cy="306.1064" fill="#ADD1B2" rx="11" ry="11" style="stroke:#181818;stroke-width:1;"/><path d="M570.0215,311.7495 Q569.4404,312.0483 568.8013,312.1977 Q568.1621,312.3471 567.4565,312.3471 Q564.9497,312.3471 563.6299,310.6953 Q562.31,309.0434 562.31,305.9223 Q562.31,302.7929 563.6299,301.1411 Q564.9497,299.4892 567.4565,299.4892 Q568.1621,299.4892 568.8096,299.6386 Q569.457,299.788 570.0215,300.0869 L570.0215,302.8095 Q569.3906,302.2285 568.7971,301.9587 Q568.2036,301.6889 567.5727,301.6889 Q566.228,301.6889 565.5432,302.7556 Q564.8584,303.8222 564.8584,305.9223 Q564.8584,308.0141 565.5432,309.0808 Q566.228,310.1474 567.5727,310.1474 Q568.2036,310.1474 568.7971,309.8776 Q569.3906,309.6079 570.0215,309.0268 Z " fill="#000000"/><text fill="#000000" font-family="sans-serif" font-size="12" font-style="italic" lengthAdjust="spacing" textLength="90.6094" x="588.9433" y="303.6416">&#171;entity-invalid&#187;</text><text fill="#000000" font-family="Helvetica" font-size="14" lengthAdjust="spacing" textLength="93.3994" x="587.5483" y="316.9531">InvalidLocation</text><line style="stroke:#888888;stroke-width:0.5;" x1="510.77" x2="725.2261" y1="325.1728" y2="325.1728"/><text fill="#000000" font-family="sans-serif" font-size="14" lengthAdjust="spacing" textLength="192.3223" x="515.77" y="342.708">-reason: LocationFailReason</text><line style="stroke:#888888;stroke-width:1;" x1="510.77" x2="725.2261" y1="349.6611" y2="349.6611"/><text fill="#000000" font-family="sans-serif" font-size="14" lengthAdjust="spacing" textLength="204.4561" x="515.77" y="367.1962">+reason(): LocationFailReason</text></g><!--reverse link ConfirmedLocation to ValidLocation--><g class="link" data-entity-1="ConfirmedLocation" data-entity-2="ValidLocation" data-source-line="53" data-uid="lnk6" id="link_ConfirmedLocation_ValidLocation"><path codeLine="53" d="M482.5935,150.3975 C474.3135,168.1475 467.17,183.46 457.35,204.51" fill="none" id="ConfirmedLocation-backto-ValidLocation" style="stroke:#444444;stroke-width:1.2;"/><polygon fill="#444444" points="485.13,144.96,477.7003,151.4253,483.0163,149.4912,484.9503,154.8072,485.13,144.96" style="stroke:#444444;stroke-width:1.2;"/></g><!--reverse link ConfirmedLocation to InvalidLocation--><g class="link" data-entity-1="ConfirmedLocation" data-entity-2="InvalidLocation" data-source-line="54" data-uid="lnk7" id="link_ConfirmedLocation_InvalidLocation"><path codeLine="54" d="M535.1676,150.4063 C554.7676,192.8063 579.78,246.92 598.22,286.81" fill="none" id="ConfirmedLocation-backto-InvalidLocation" style="stroke:#444444;stroke-width:1.2;"/><polygon fill="#444444" points="532.65,144.96,532.7956,154.8078,534.748,149.4985,540.0572,151.451,532.65,144.96" style="stroke:#444444;stroke-width:1.2;"/></g><!--SRC=[ZLFVRzem47xFNt5g7sW5cSQqLLrKAj5EPKYecmfisgD9pc1XREGOqb3nlo_E3mY9INjviEFlk_DtTxuMz7ez68n-FVH7C9xy6msV1-R82PTCh8aYAvWHVpbNSYE2HycbWalwtNmbHhWWWOoOc8DM6om1kPSIgA3xhGJqbP9H7kvhQbLmic3-Kc0OGlVJbohu98KUinr2jrk2rebGCiS9qnoFZ79advCmDD0pMI5S_4I-HSrySb7bzBLMRBRHEFIbIEDyhbBWpG5ugDGcMZ2Dvbog05MUu6rgpluZ4UxkK6Ycu_jxkFGfKaeJpbcMkoMS1OQBDvJYpVbuBXC7hc4ctBtZEAsyPZ0cssGPABB5cAZ0Q6kPYmjy9GFacUBC2e1BdsWcHGaoneH6HOcFy2W5PMg5mQXWbd8yTJBM1aclrfp4g3pudQxN7lmnsei0Tfz2Y0S5B_6hNMxtZQJYWNaJ7eoJnejv1zAZAGiyc4w7FpfWirSF0hcPSUn0VDpkZbkRnIJoW799T0VMJFkB_EzTjVkJl-m5dTG5Qi-YNbutIoolw5-pjt0EYLcmk07RDVaTyhQ0vKBKOTVIjJIDg-l6HDhmQXXd9BKXRaHtpRuaChXTSJjBo4wmzN6OJMUzayUnjVLI8GdBB_w9CFwIddsiY9c_aVbEX5FDbf5stOOPjVChEJl7krhvidV-0m00]--></g></svg>
