<svg xmlns="http://www.w3.org/2000/svg" xmlns:xlink="http://www.w3.org/1999/xlink" contentStyleType="text/css" data-diagram-type="CLASS" height="338px" preserveAspectRatio="none" style="width:468px;height:338px;background:#F9F9F9;" version="1.1" viewBox="0 0 468 338" width="468px" zoomAndPan="magnify"><defs><filter height="300%" id="fajn5ny8y0nts" width="300%" x="-1" y="-1"><feGaussianBlur result="blurOut" stdDeviation="2"/><feColorMatrix in="blurOut" result="blurOut2" type="matrix" values="0 0 0 0 0 0 0 0 0 0 0 0 0 0 0 0 0 0 .4 0"/><feOffset dx="4" dy="4" in="blurOut2" result="blurOut3"/><feBlend in="SourceGraphic" in2="blurOut3" mode="normal"/></filter></defs><g><rect fill="#F9F9F9" height="338" style="stroke:none;stroke-width:1;" width="468" x="0" y="0"/><!--cluster discovery--><g class="cluster" data-entity="discovery" data-source-line="23" data-uid="ent0002" id="cluster_discovery"><path d="M13.5,6 L73.6729,6 A11.25,11.25 0 0 1 81.1729,13.5 L88.1729,28.4883 L446.5,28.4883 A7.5,7.5 0 0 1 454,35.9883 L454,316.7 A7.5,7.5 0 0 1 446.5,324.2 L13.5,324.2 A7.5,7.5 0 0 1 6,316.7 L6,13.5 A7.5,7.5 0 0 1 13.5,6" fill="none" filter="url(#fajn5ny8y0nts)" style="stroke:#000000;stroke-width:1.5;"/><line style="stroke:#000000;stroke-width:1.5;" x1="6" x2="88.1729" y1="28.4883" y2="28.4883"/><text fill="#000000" font-family="sans-serif" font-size="14" font-weight="bold" lengthAdjust="spacing" textLength="69.1729" x="10" y="21.5352">discovery</text></g><!--class Discovery--><g class="entity" data-entity="Discovery" data-source-line="24" data-uid="ent0003" id="entity_Discovery"><rect fill="#CFEFFF" filter="url(#fajn5ny8y0nts)" height="87.1094" rx="7.5" ry="7.5" style="stroke:#888888;stroke-width:0.5;" width="416.0723" x="21.96" y="41"/><ellipse cx="195.0186" cy="60.0664" fill="#B4A7E5" rx="11" ry="11" style="stroke:#181818;stroke-width:1;"/><path d="M190.9463,55.8315 L190.9463,53.6733 L198.3257,53.6733 L198.3257,55.8315 L195.8604,55.8315 L195.8604,63.9082 L198.3257,63.9082 L198.3257,66.0664 L190.9463,66.0664 L190.9463,63.9082 L193.4117,63.9082 L193.4117,55.8315 Z " fill="#000000"/><text fill="#000000" font-family="sans-serif" font-size="12" font-style="italic" lengthAdjust="spacing" textLength="45.4219" x="223.5352" y="57.6016">&#171;entity&#187;</text><text fill="#000000" font-family="Helvetica" font-size="14" font-style="italic" lengthAdjust="spacing" textLength="61.4551" x="215.5186" y="70.9131">Discovery</text><line style="stroke:#888888;stroke-width:0.5;" x1="22.96" x2="437.0323" y1="79.1328" y2="79.1328"/><line style="stroke:#888888;stroke-width:0.5;" x1="22.96" x2="437.0323" y1="87.1328" y2="87.1328"/><text fill="#000000" font-family="sans-serif" font-size="14" lengthAdjust="spacing" textLength="385.5605" x="27.96" y="104.668">+of(graveyard: ValidGraveyard, player: Player): Discovery</text><text fill="#000000" font-family="sans-serif" font-size="14" lengthAdjust="spacing" textLength="404.0723" x="27.96" y="121.1563">+of(searchKey: ValidSearchKey, playerUid: UUID): Discovery</text></g><!--class ValidDiscovery--><g class="entity" data-entity="ValidDiscovery" data-source-line="28" data-uid="ent0004" id="entity_ValidDiscovery"><rect fill="#E6FFE6" filter="url(#fajn5ny8y0nts)" height="120.0859" rx="7.5" ry="7.5" style="stroke:#888888;stroke-width:0.5;" width="149.5732" x="30.21" y="188.11"/><ellipse cx="56.4543" cy="207.1764" fill="#ADD1B2" rx="11" ry="11" style="stroke:#181818;stroke-width:1;"/><path d="M59.4274,212.8195 Q58.8464,213.1183 58.2072,213.2677 Q57.5681,213.4171 56.8625,213.4171 Q54.3557,213.4171 53.0358,211.7653 Q51.716,210.1134 51.716,206.9923 Q51.716,203.8629 53.0358,202.2111 Q54.3557,200.5592 56.8625,200.5592 Q57.5681,200.5592 58.2155,200.7086 Q58.863,200.858 59.4274,201.1569 L59.4274,203.8795 Q58.7966,203.2985 58.2031,203.0287 Q57.6096,202.7589 56.9787,202.7589 Q55.634,202.7589 54.9492,203.8256 Q54.2643,204.8922 54.2643,206.9923 Q54.2643,209.0841 54.9492,210.1508 Q55.634,211.2174 56.9787,211.2174 Q57.6096,211.2174 58.2031,210.9476 Q58.7966,210.6779 59.4274,210.0968 Z " fill="#000000"/><text fill="#000000" font-family="sans-serif" font-size="12" font-style="italic" lengthAdjust="spacing" textLength="79.6934" x="79.3993" y="204.7116">&#171;entity-valid&#187;</text><text fill="#000000" font-family="Helvetica" font-size="14" lengthAdjust="spacing" textLength="92.5859" x="72.953" y="218.0231">ValidDiscovery</text><line style="stroke:#888888;stroke-width:0.5;" x1="31.21" x2="178.7832" y1="226.2428" y2="226.2428"/><text fill="#000000" font-family="sans-serif" font-size="14" lengthAdjust="spacing" textLength="114.8711" x="36.21" y="243.778">-playerUid: UUID</text><text fill="#000000" font-family="sans-serif" font-size="14" lengthAdjust="spacing" textLength="125.4395" x="36.21" y="260.2663">-searchKey: String</text><line style="stroke:#888888;stroke-width:1;" x1="31.21" x2="178.7832" y1="267.2194" y2="267.2194"/><text fill="#000000" font-family="sans-serif" font-size="14" lengthAdjust="spacing" textLength="127.0049" x="36.21" y="284.7545">+playerUid(): UUID</text><text fill="#000000" font-family="sans-serif" font-size="14" lengthAdjust="spacing" textLength="137.5732" x="36.21" y="301.2428">+searchKey(): String</text></g><!--class InvalidDiscovery--><g class="entity" data-entity="InvalidDiscovery" data-source-line="35" data-uid="ent0005" id="entity_InvalidDiscovery"><rect fill="#FFE6E6" filter="url(#fajn5ny8y0nts)" height="70.6211" rx="7.5" ry="7.5" style="stroke:#888888;stroke-width:0.5;" width="215.3418" x="214.33" y="212.85"/><ellipse cx="266.789" cy="231.9164" fill="#ADD1B2" rx="11" ry="11" style="stroke:#181818;stroke-width:1;"/><path d="M269.7621,237.5595 Q269.1811,237.8583 268.5419,238.0077 Q267.9028,238.1571 267.1972,238.1571 Q264.6904,238.1571 263.3705,236.5053 Q262.0507,234.8534 262.0507,231.7323 Q262.0507,228.6029 263.3705,226.9511 Q264.6904,225.2992 267.1972,225.2992 Q267.9028,225.2992 268.5502,225.4486 Q269.1977,225.598 269.7621,225.8969 L269.7621,228.6195 Q269.1313,228.0385 268.5378,227.7687 Q267.9443,227.4989 267.3134,227.4989 Q265.9687,227.4989 265.2839,228.5656 Q264.599,229.6322 264.599,231.7323 Q264.599,233.8241 265.2839,234.8908 Q265.9687,235.9574 267.3134,235.9574 Q267.9443,235.9574 268.5378,235.6876 Q269.1313,235.4179 269.7621,234.8368 Z " fill="#000000"/><text fill="#000000" font-family="sans-serif" font-size="12" font-style="italic" lengthAdjust="spacing" textLength="90.6094" x="292.9462" y="229.4516">&#171;entity-invalid&#187;</text><text fill="#000000" font-family="Helvetica" font-size="14" lengthAdjust="spacing" textLength="101.9238" x="287.289" y="242.7631">InvalidDiscovery</text><line style="stroke:#888888;stroke-width:0.5;" x1="215.33" x2="428.6718" y1="250.9828" y2="250.9828"/><text fill="#000000" font-family="sans-serif" font-size="14" lengthAdjust="spacing" textLength="203.3418" x="220.33" y="268.518">+reason: DiscoveryFailReason</text><line style="stroke:#888888;stroke-width:0.5;" x1="215.33" x2="428.6718" y1="275.4711" y2="275.4711"/></g><!--reverse link Discovery to ValidDiscovery--><g class="link" data-entity-1="Discovery" data-entity-2="ValidDiscovery" data-source-line="38" data-uid="lnk6" id="link_Discovery_ValidDiscovery"><path codeLine="38" d="M193.1592,133.1861 C179.1292,151.3261 166.22,168.02 151.03,187.65" fill="none" id="Discovery-backto-ValidDiscovery" style="stroke:#444444;stroke-width:1.2;"/><polygon fill="#444444" points="196.83,128.44,188.1598,133.112,193.771,132.3951,194.4879,138.0063,196.83,128.44" style="stroke:#444444;stroke-width:1.2;"/></g><!--reverse link Discovery to InvalidDiscovery--><g class="link" data-entity-1="Discovery" data-entity-2="InvalidDiscovery" data-source-line="39" data-uid="lnk7" id="link_Discovery_InvalidDiscovery"><path codeLine="39" d="M257.3791,133.6539 C272.3391,159.9239 288.27,187.91 302.28,212.51" fill="none" id="Discovery-backto-InvalidDiscovery" style="stroke:#444444;stroke-width:1.2;"/><polygon fill="#444444" points="254.41,128.44,255.3878,138.2402,256.8843,132.7849,262.3396,134.2814,254.41,128.44" style="stroke:#444444;stroke-width:1.2;"/></g><!--SRC=[ZP9HIyCm58NV-oik-g2Y5ISgEfmm5UTmJ76Ru6DCRxgmceoRRAFA_hjDrwqnAfX2I-uv-NfoanrejLhGwJrUjtim6BxsklsEAqLc8jMK4Nk7DyOdAUcPIcvqfWcsnOLxF8SPiqGlf4h1qWmzeLf52WaQfvxG9jAB2dTIZb0SZYMVA3G66eV7eNYdbHt83uH6mvEcHL2Mub3Q36k7J-OPCyP9VVQEi7MFsHojv6mhzBIj9VasizZbMfMSez02dn70TT2RnLXQT7LD2LArmVDoHCl_42ulKLbfywihsEO2XH25vqzNF6UPJ9mNpuJ0ixzviLGRhtCMtcKKHLNB8966wpbINcO2aCeY2SOHRZUA5srbScCVjDXDYSqnPvGquSNzfBEU7y0qOpbI4vxAxrwpvdr766J4nm-OLuZ1Uhv6Z6H17uswjpyOo_AzwcYvzcVaJP_gu778zHGlpA2u1ogjjTYBlG7ixWM8_HhXD0_YX-skZkINkFLX-PqcP4OhR_jtJ6RFPT5ZUxWu3XhoYo4CKLoBBm00]--></g></svg>