<svg xmlns="http://www.w3.org/2000/svg" xmlns:xlink="http://www.w3.org/1999/xlink" contentStyleType="text/css" data-diagram-type="CLASS" height="535px" preserveAspectRatio="none" style="width:385px;height:535px;background:#F9F9F9;" version="1.1" viewBox="0 0 385 535" width="385px" zoomAndPan="magnify"><defs><filter height="300%" id="f1f6oko1cieuy6" width="300%" x="-1" y="-1"><feGaussianBlur result="blurOut" stdDeviation="2"/><feColorMatrix in="blurOut" result="blurOut2" type="matrix" values="0 0 0 0 0 0 0 0 0 0 0 0 0 0 0 0 0 0 .4 0"/><feOffset dx="4" dy="4" in="blurOut2" result="blurOut3"/><feBlend in="SourceGraphic" in2="blurOut3" mode="normal"/></filter></defs><g><rect fill="#F9F9F9" height="535" style="stroke:none;stroke-width:1;" width="385" x="0" y="0"/><!--cluster world--><g class="cluster" data-entity="world" data-source-line="22" data-uid="ent0002" id="cluster_world"><path d="M13.5,6 L45.7139,6 A11.25,11.25 0 0 1 53.2139,13.5 L60.2139,28.4883 L363.5,28.4883 A7.5,7.5 0 0 1 371,35.9883 L371,513.27 A7.5,7.5 0 0 1 363.5,520.77 L13.5,520.77 A7.5,7.5 0 0 1 6,513.27 L6,13.5 A7.5,7.5 0 0 1 13.5,6" fill="none" filter="url(#f1f6oko1cieuy6)" style="stroke:#000000;stroke-width:1.5;"/><line style="stroke:#000000;stroke-width:1.5;" x1="6" x2="60.2139" y1="28.4883" y2="28.4883"/><text fill="#000000" font-family="sans-serif" font-size="14" font-weight="bold" lengthAdjust="spacing" textLength="41.2139" x="10" y="21.5352">world</text></g><!--class ConfirmedWorld--><g class="entity" data-entity="ConfirmedWorld" data-source-line="23" data-uid="ent0003" id="entity_ConfirmedWorld"><rect fill="#CFEFFF" filter="url(#f1f6oko1cieuy6)" height="103.5977" rx="7.5" ry="7.5" style="stroke:#888888;stroke-width:0.5;" width="324.8877" x="25.56" y="41"/><ellipse cx="133.185" cy="60.0664" fill="#B4A7E5" rx="11" ry="11" style="stroke:#181818;stroke-width:1;"/><path d="M129.1127,55.8315 L129.1127,53.6733 L136.4921,53.6733 L136.4921,55.8315 L134.0268,55.8315 L134.0268,63.9082 L136.4921,63.9082 L136.4921,66.0664 L129.1127,66.0664 L129.1127,63.9082 L131.5781,63.9082 L131.5781,55.8315 Z " fill="#000000"/><text fill="#000000" font-family="sans-serif" font-size="12" font-style="italic" lengthAdjust="spacing" textLength="45.4219" x="181.5429" y="57.6016">&#171;entity&#187;</text><text fill="#000000" font-family="Helvetica" font-size="14" font-style="italic" lengthAdjust="spacing" textLength="101.1377" x="153.685" y="70.9131">ConfirmedWorld</text><line style="stroke:#888888;stroke-width:0.5;" x1="26.56" x2="349.4477" y1="79.1328" y2="79.1328"/><line style="stroke:#888888;stroke-width:0.5;" x1="26.56" x2="349.4477" y1="87.1328" y2="87.1328"/><text fill="#000000" font-family="sans-serif" font-size="14" lengthAdjust="spacing" textLength="206.4453" x="31.56" y="104.668">+of(player: Player): ValidWorld</text><text fill="#000000" font-family="sans-serif" font-size="14" lengthAdjust="spacing" textLength="239.5791" x="31.56" y="121.1563">+of(world: World): ConfirmedWorld</text><text fill="#000000" font-family="sans-serif" font-size="14" lengthAdjust="spacing" textLength="312.8877" x="31.56" y="137.6445">+of(name: String, uid: UUID): ConfirmedWorld</text></g><!--class ValidWorld--><g class="entity" data-entity="ValidWorld" data-source-line="29" data-uid="ent0004" id="entity_ValidWorld"><rect fill="#E6FFE6" filter="url(#f1f6oko1cieuy6)" height="87.1094" rx="7.5" ry="7.5" style="stroke:#888888;stroke-width:0.5;" width="118.3535" x="21.82" y="221.09"/><ellipse cx="41.6171" cy="240.1564" fill="#B4A7E5" rx="11" ry="11" style="stroke:#181818;stroke-width:1;"/><path d="M37.5448,235.9215 L37.5448,233.7633 L44.9242,233.7633 L44.9242,235.9215 L42.4589,235.9215 L42.4589,243.9982 L44.9242,243.9982 L44.9242,246.1564 L37.5448,246.1564 L37.5448,243.9982 L40.0101,243.9982 L40.0101,235.9215 Z " fill="#000000"/><text fill="#000000" font-family="sans-serif" font-size="12" font-style="italic" lengthAdjust="spacing" textLength="79.6934" x="54.6831" y="237.6916">&#171;entity-valid&#187;</text><text fill="#000000" font-family="Helvetica" font-size="14" font-style="italic" lengthAdjust="spacing" textLength="67.6895" x="60.685" y="251.0031">ValidWorld</text><line style="stroke:#888888;stroke-width:0.5;" x1="22.82" x2="139.1735" y1="259.2228" y2="259.2228"/><line style="stroke:#888888;stroke-width:0.5;" x1="22.82" x2="139.1735" y1="267.2228" y2="267.2228"/><text fill="#000000" font-family="sans-serif" font-size="14" lengthAdjust="spacing" textLength="106.3535" x="27.82" y="284.758">+name(): String</text><text fill="#000000" font-family="sans-serif" font-size="14" lengthAdjust="spacing" textLength="84.5605" x="27.82" y="301.2463">+uid(): UUID</text></g><!--class AvailableWorld--><g class="entity" data-entity="AvailableWorld" data-source-line="34" data-uid="ent0005" id="entity_AvailableWorld"><rect fill="#E6FFE6" filter="url(#f1f6oko1cieuy6)" height="120.0859" rx="7.5" ry="7.5" style="stroke:#888888;stroke-width:0.5;" width="125.3721" x="22.31" y="384.68"/><ellipse cx="37.31" cy="403.7464" fill="#ADD1B2" rx="11" ry="11" style="stroke:#181818;stroke-width:1;"/><path d="M40.2831,409.3895 Q39.7021,409.6883 39.0629,409.8377 Q38.4238,409.9871 37.7182,409.9871 Q35.2114,409.9871 33.8915,408.3353 Q32.5717,406.6834 32.5717,403.5623 Q32.5717,400.4329 33.8915,398.7811 Q35.2114,397.1292 37.7182,397.1292 Q38.4238,397.1292 39.0712,397.2786 Q39.7187,397.428 40.2831,397.7269 L40.2831,400.4495 Q39.6523,399.8685 39.0588,399.5987 Q38.4653,399.3289 37.8344,399.3289 Q36.4897,399.3289 35.8049,400.3956 Q35.1201,401.4622 35.1201,403.5623 Q35.1201,405.6541 35.8049,406.7208 Q36.4897,407.7874 37.8344,407.7874 Q38.4653,407.7874 39.0588,407.5176 Q39.6523,407.2479 40.2831,406.6668 Z " fill="#000000"/><text fill="#000000" font-family="sans-serif" font-size="12" font-style="italic" lengthAdjust="spacing" textLength="79.6934" x="58.1494" y="401.2816">&#171;entity-valid&#187;</text><text fill="#000000" font-family="Helvetica" font-size="14" lengthAdjust="spacing" textLength="93.3721" x="51.31" y="414.5931">AvailableWorld</text><line style="stroke:#888888;stroke-width:0.5;" x1="23.31" x2="146.6821" y1="422.8128" y2="422.8128"/><text fill="#000000" font-family="sans-serif" font-size="14" lengthAdjust="spacing" textLength="94.2197" x="28.31" y="440.348">-name: String</text><text fill="#000000" font-family="sans-serif" font-size="14" lengthAdjust="spacing" textLength="72.4268" x="28.31" y="456.8362">-uid: UUID</text><line style="stroke:#888888;stroke-width:1;" x1="23.31" x2="146.6821" y1="463.7894" y2="463.7894"/><text fill="#000000" font-family="sans-serif" font-size="14" lengthAdjust="spacing" textLength="106.3535" x="28.31" y="481.3245">+name(): String</text><text fill="#000000" font-family="sans-serif" font-size="14" lengthAdjust="spacing" textLength="84.5605" x="28.31" y="497.8128">+uid(): UUID</text></g><!--class UnavailableWorld--><g class="entity" data-entity="UnavailableWorld" data-source-line="42" data-uid="ent0006" id="entity_UnavailableWorld"><rect fill="#E6FFE6" filter="url(#f1f6oko1cieuy6)" height="120.0859" rx="7.5" ry="7.5" style="stroke:#888888;stroke-width:0.5;" width="141.7168" x="183.14" y="384.68"/><ellipse cx="198.14" cy="403.7464" fill="#ADD1B2" rx="11" ry="11" style="stroke:#181818;stroke-width:1;"/><path d="M201.1131,409.3895 Q200.5321,409.6883 199.8929,409.8377 Q199.2538,409.9871 198.5482,409.9871 Q196.0414,409.9871 194.7215,408.3353 Q193.4017,406.6834 193.4017,403.5623 Q193.4017,400.4329 194.7215,398.7811 Q196.0414,397.1292 198.5482,397.1292 Q199.2538,397.1292 199.9012,397.2786 Q200.5487,397.428 201.1131,397.7269 L201.1131,400.4495 Q200.4823,399.8685 199.8888,399.5987 Q199.2953,399.3289 198.6644,399.3289 Q197.3197,399.3289 196.6349,400.3956 Q195.9501,401.4622 195.9501,403.5623 Q195.9501,405.6541 196.6349,406.7208 Q197.3197,407.7874 198.6644,407.7874 Q199.2953,407.7874 199.8888,407.5176 Q200.4823,407.2479 201.1131,406.6668 Z " fill="#000000"/><text fill="#000000" font-family="sans-serif" font-size="12" font-style="italic" lengthAdjust="spacing" textLength="79.6934" x="227.1517" y="401.2816">&#171;entity-valid&#187;</text><text fill="#000000" font-family="Helvetica" font-size="14" lengthAdjust="spacing" textLength="109.7168" x="212.14" y="414.5931">UnavailableWorld</text><line style="stroke:#888888;stroke-width:0.5;" x1="184.14" x2="323.8568" y1="422.8128" y2="422.8128"/><text fill="#000000" font-family="sans-serif" font-size="14" lengthAdjust="spacing" textLength="94.2197" x="189.14" y="440.348">-name: String</text><text fill="#000000" font-family="sans-serif" font-size="14" lengthAdjust="spacing" textLength="72.4268" x="189.14" y="456.8362">-uid: UUID</text><line style="stroke:#888888;stroke-width:1;" x1="184.14" x2="323.8568" y1="463.7894" y2="463.7894"/><text fill="#000000" font-family="sans-serif" font-size="14" lengthAdjust="spacing" textLength="106.3535" x="189.14" y="481.3245">+name(): String</text><text fill="#000000" font-family="sans-serif" font-size="14" lengthAdjust="spacing" textLength="84.5605" x="189.14" y="497.8128">+uid(): UUID</text></g><!--class InvalidWorld--><g class="entity" data-entity="InvalidWorld" data-source-line="50" data-uid="ent0007" id="entity_InvalidWorld"><rect fill="#FFE6E6" filter="url(#f1f6oko1cieuy6)" height="120.0859" rx="7.5" ry="7.5" style="stroke:#888888;stroke-width:0.5;" width="179.2959" x="175.35" y="204.6"/><ellipse cx="217.6589" cy="223.6664" fill="#ADD1B2" rx="11" ry="11" style="stroke:#181818;stroke-width:1;"/><path d="M220.6321,229.3095 Q220.051,229.6083 219.4119,229.7577 Q218.7727,229.9071 218.0671,229.9071 Q215.5603,229.9071 214.2405,228.2553 Q212.9207,226.6034 212.9207,223.4823 Q212.9207,220.3529 214.2405,218.7011 Q215.5603,217.0492 218.0671,217.0492 Q218.7727,217.0492 219.4202,217.1986 Q220.0676,217.348 220.6321,217.6469 L220.6321,220.3695 Q220.0012,219.7885 219.4077,219.5187 Q218.8142,219.2489 218.1833,219.2489 Q216.8386,219.2489 216.1538,220.3156 Q215.469,221.3822 215.469,223.4823 Q215.469,225.5741 216.1538,226.6408 Q216.8386,227.7074 218.1833,227.7074 Q218.8142,227.7074 219.4077,227.4376 Q220.0012,227.1679 220.6321,226.5868 Z " fill="#000000"/><text fill="#000000" font-family="sans-serif" font-size="12" font-style="italic" lengthAdjust="spacing" textLength="90.6094" x="235.7276" y="221.2016">&#171;entity-invalid&#187;</text><text fill="#000000" font-family="Helvetica" font-size="14" lengthAdjust="spacing" textLength="77.0273" x="242.5186" y="234.5131">InvalidWorld</text><line style="stroke:#888888;stroke-width:0.5;" x1="176.35" x2="353.6459" y1="242.7328" y2="242.7328"/><text fill="#000000" font-family="sans-serif" font-size="14" lengthAdjust="spacing" textLength="155.1621" x="181.35" y="260.268">-parameter: Parameter</text><text fill="#000000" font-family="sans-serif" font-size="14" lengthAdjust="spacing" textLength="134.7842" x="181.35" y="276.7562">-reason: FailReason</text><line style="stroke:#888888;stroke-width:1;" x1="176.35" x2="353.6459" y1="283.7094" y2="283.7094"/><text fill="#000000" font-family="sans-serif" font-size="14" lengthAdjust="spacing" textLength="167.2959" x="181.35" y="301.2445">+parameter(): Parameter</text><text fill="#000000" font-family="sans-serif" font-size="14" lengthAdjust="spacing" textLength="146.918" x="181.35" y="317.7328">+reason(): FailReason</text></g><!--reverse link ConfirmedWorld to ValidWorld--><g class="link" data-entity-1="ConfirmedWorld" data-entity-2="ValidWorld" data-source-line="60" data-uid="lnk8" id="link_ConfirmedWorld_ValidWorld"><path codeLine="60" d="M152.701,149.8361 C137.431,174.0661 122.58,197.64 108.03,220.74" fill="none" id="ConfirmedWorld-backto-ValidWorld" style="stroke:#444444;stroke-width:1.2;"/><polygon fill="#444444" points="155.9,144.76,147.7175,150.2414,153.2342,148.9901,154.4856,154.5068,155.9,144.76" style="stroke:#444444;stroke-width:1.2;"/></g><!--reverse link ConfirmedWorld to InvalidWorld--><g class="link" data-entity-1="ConfirmedWorld" data-entity-2="InvalidWorld" data-source-line="61" data-uid="lnk9" id="link_ConfirmedWorld_InvalidWorld"><path codeLine="61" d="M213.5786,150.2241 C222.0886,168.9841 229.31,184.93 238.12,204.36" fill="none" id="ConfirmedWorld-backto-InvalidWorld" style="stroke:#444444;stroke-width:1.2;"/><polygon fill="#444444" points="211.1,144.76,211.1752,154.6086,213.1655,149.3134,218.4607,151.3037,211.1,144.76" style="stroke:#444444;stroke-width:1.2;"/></g><!--reverse link ValidWorld to AvailableWorld--><g class="link" data-entity-1="ValidWorld" data-entity-2="AvailableWorld" data-source-line="62" data-uid="lnk10" id="link_ValidWorld_AvailableWorld"><path codeLine="62" d="M82.0945,314.2985 C82.6045,337.0385 83.11,359.38 83.66,384.25" fill="none" id="ValidWorld-backto-AvailableWorld" style="stroke:#444444;stroke-width:1.2;"/><polygon fill="#444444" points="81.96,308.3,78.1628,317.3874,82.0721,313.2987,86.1608,317.2081,81.96,308.3" style="stroke:#444444;stroke-width:1.2;"/></g><!--reverse link ValidWorld to UnavailableWorld--><g class="link" data-entity-1="ValidWorld" data-entity-2="UnavailableWorld" data-source-line="63" data-uid="lnk11" id="link_ValidWorld_UnavailableWorld"><path codeLine="63" d="M126.6207,312.6037 C148.7107,335.3437 172.06,359.38 196.22,384.25" fill="none" id="ValidWorld-backto-UnavailableWorld" style="stroke:#444444;stroke-width:1.2;"/><polygon fill="#444444" points="122.44,308.3,125.8419,317.5427,125.9239,311.8864,131.5802,311.9684,122.44,308.3" style="stroke:#444444;stroke-width:1.2;"/></g><!--SRC=[pLF1JW8n5BplLxpeGOsk4QD6DsA26fM4g17GU2oxhqj3QKctGD3mxxPbXMx5QEB5Sc3pPZephttTWdgz3hUjXyj62zgTrrRp_jQMecB0n8WeCeGUIGUvacEHNKak5MpIC_lp64MVP7BAH0vQZT43obrAe8BQiGSqb9BJKkx8hH3iz5aw45WKKDi_3C4RANIRlI7KQXuqCa59ZXscEQuOldBAIL5Ow9uC4JRka4zGivHiX9o6rehrnXgRgHHEvo2am7i4S1cSpRJFDDgwL1cgii5JjwBvRnJEpr5efcSN5x2PKgIK6iwth7X2ECii5qyenPFlzM8cbbpBDDnv59Kd1bEfUERY032XKL6I8bn9GPaQOlRYO2_QWcdNBaYwFU9aXYg1H_U_ay2pjNAxgaJdau133ArgKAKASqC9jCqrY7mFniniwtQRr-jtcLQgqLS1uCjP-U6jo_REfuy764DRjvQ-m-BU6XF2EEbn_D4X1hyFhxniQ5MB_vohAyW_JTPSJ5-GQZMJVYxtGb2xWVhyz625f90YWHlJwPFxNXzqAMDJVHNQBOKi6aZDxTFOmYp78WhVG1pxmxq6zJkD_34qM7LkGZIylUW3]--></g></svg>
