<svg xmlns="http://www.w3.org/2000/svg" xmlns:xlink="http://www.w3.org/1999/xlink" contentStyleType="text/css" data-diagram-type="CLASS" height="487px" preserveAspectRatio="none" style="width:848px;height:487px;background:#F9F9F9;" version="1.1" viewBox="0 0 848 487" width="848px" zoomAndPan="magnify"><defs><filter height="300%" id="fds8kkjvx2ejz" width="300%" x="-1" y="-1"><feGaussianBlur result="blurOut" stdDeviation="2"/><feColorMatrix in="blurOut" result="blurOut2" type="matrix" values="0 0 0 0 0 0 0 0 0 0 0 0 0 0 0 0 0 0 .4 0"/><feOffset dx="4" dy="4" in="blurOut2" result="blurOut3"/><feBlend in="SourceGraphic" in2="blurOut3" mode="normal"/></filter></defs><g><rect fill="#F9F9F9" height="487" style="stroke:none;stroke-width:1;" width="848" x="0" y="0"/><!--cluster location--><g class="cluster" data-entity="location" data-source-line="25" data-uid="ent0002" id="cluster_location"><path d="M13.5,6 L62.0381,6 A11.25,11.25 0 0 1 69.5381,13.5 L76.5381,28.4883 L826.5,28.4883 A7.5,7.5 0 0 1 834,35.9883 L834,465.09 A7.5,7.5 0 0 1 826.5,472.59 L13.5,472.59 A7.5,7.5 0 0 1 6,465.09 L6,13.5 A7.5,7.5 0 0 1 13.5,6" fill="none" filter="url(#fds8kkjvx2ejz)" style="stroke:#000000;stroke-width:1.5;"/><line style="stroke:#000000;stroke-width:1.5;" x1="6" x2="76.5381" y1="28.4883" y2="28.4883"/><text fill="#000000" font-family="sans-serif" font-size="14" font-weight="bold" lengthAdjust="spacing" textLength="57.5381" x="10" y="21.5352">location</text></g><!--class ConfirmedLocation--><g class="entity" data-entity="ConfirmedLocation" data-source-line="26" data-uid="ent0003" id="entity_ConfirmedLocation"><rect fill="#CFEFFF" filter="url(#fds8kkjvx2ejz)" height="103.5977" rx="7.5" ry="7.5" style="stroke:#888888;stroke-width:0.5;" width="795.9795" x="22.01" y="41"/><ellipse cx="356.9949" cy="60.0664" fill="#B4A7E5" rx="11" ry="11" style="stroke:#181818;stroke-width:1;"/><path d="M352.9226,55.8315 L352.9226,53.6733 L360.302,53.6733 L360.302,55.8315 L357.8367,55.8315 L357.8367,63.9082 L360.302,63.9082 L360.302,66.0664 L352.9226,66.0664 L352.9226,63.9082 L355.3879,63.9082 L355.3879,55.8315 Z " fill="#000000"/><text fill="#000000" font-family="sans-serif" font-size="12" font-style="italic" lengthAdjust="spacing" textLength="45.4219" x="413.5388" y="57.6016">&#171;entity&#187;</text><text fill="#000000" font-family="Helvetica" font-size="14" font-style="italic" lengthAdjust="spacing" textLength="117.5098" x="377.4949" y="70.9131">ConfirmedLocation</text><line style="stroke:#888888;stroke-width:0.5;" x1="23.01" x2="816.9895" y1="79.1328" y2="79.1328"/><line style="stroke:#888888;stroke-width:0.5;" x1="23.01" x2="816.9895" y1="87.1328" y2="87.1328"/><text fill="#000000" font-family="sans-serif" font-size="14" lengthAdjust="spacing" textLength="224.8203" x="28.01" y="104.668">+of(player: Player): ValidLocation</text><text fill="#000000" font-family="sans-serif" font-size="14" lengthAdjust="spacing" textLength="292.4756" x="28.01" y="121.1563">+of(location: Location): ConfirmedLocation</text><text fill="#000000" font-family="sans-serif" font-size="14" lengthAdjust="spacing" textLength="783.9795" x="28.01" y="137.6445">+of(worldName: String, worldUid: UUID, x: double, y: double, z: double, yaw: float, pitch: float): ConfirmedLocation</text></g><!--class ValidLocation--><g class="entity" data-entity="ValidLocation" data-source-line="31" data-uid="ent0004" id="entity_ValidLocation"><rect fill="#E6FFE6" filter="url(#fds8kkjvx2ejz)" height="251.9922" rx="7.5" ry="7.5" style="stroke:#888888;stroke-width:0.5;" width="152.0205" x="233.99" y="204.6"/><ellipse cx="265.1715" cy="223.6664" fill="#ADD1B2" rx="11" ry="11" style="stroke:#181818;stroke-width:1;"/><path d="M268.1447,229.3095 Q267.5636,229.6083 266.9245,229.7577 Q266.2853,229.9071 265.5797,229.9071 Q263.0729,229.9071 261.7531,228.2553 Q260.4333,226.6034 260.4333,223.4823 Q260.4333,220.3529 261.7531,218.7011 Q263.0729,217.0492 265.5797,217.0492 Q266.2853,217.0492 266.9328,217.1986 Q267.5802,217.348 268.1447,217.6469 L268.1447,220.3695 Q267.5138,219.7885 266.9203,219.5187 Q266.3268,219.2489 265.696,219.2489 Q264.3512,219.2489 263.6664,220.3156 Q262.9816,221.3822 262.9816,223.4823 Q262.9816,225.5741 263.6664,226.6408 Q264.3512,227.7074 265.696,227.7074 Q266.3268,227.7074 266.9203,227.4376 Q267.5138,227.1679 268.1447,226.5868 Z " fill="#000000"/><text fill="#000000" font-family="sans-serif" font-size="12" font-style="italic" lengthAdjust="spacing" textLength="79.6934" x="284.9515" y="221.2016">&#171;entity-valid&#187;</text><text fill="#000000" font-family="Helvetica" font-size="14" lengthAdjust="spacing" textLength="84.0615" x="282.7674" y="234.5131">ValidLocation</text><line style="stroke:#888888;stroke-width:0.5;" x1="234.99" x2="385.0105" y1="242.7328" y2="242.7328"/><text fill="#000000" font-family="sans-serif" font-size="14" lengthAdjust="spacing" textLength="127.8867" x="239.99" y="260.268">-world: ValidWorld</text><text fill="#000000" font-family="sans-serif" font-size="14" lengthAdjust="spacing" textLength="72.3037" x="239.99" y="276.7562">-x: double</text><text fill="#000000" font-family="sans-serif" font-size="14" lengthAdjust="spacing" textLength="71.0322" x="239.99" y="293.2445">-y: double</text><text fill="#000000" font-family="sans-serif" font-size="14" lengthAdjust="spacing" textLength="71.7432" x="239.99" y="309.7328">-z: double</text><text fill="#000000" font-family="sans-serif" font-size="14" lengthAdjust="spacing" textLength="73.5547" x="239.99" y="326.2211">-yaw: float</text><text fill="#000000" font-family="sans-serif" font-size="14" lengthAdjust="spacing" textLength="81.6758" x="239.99" y="342.7094">-pitch: float</text><line style="stroke:#888888;stroke-width:1;" x1="234.99" x2="385.0105" y1="349.6625" y2="349.6625"/><text fill="#000000" font-family="sans-serif" font-size="14" lengthAdjust="spacing" textLength="140.0205" x="239.99" y="367.1977">+world(): ValidWorld</text><text fill="#000000" font-family="sans-serif" font-size="14" lengthAdjust="spacing" textLength="84.4375" x="239.99" y="383.6859">+x(): double</text><text fill="#000000" font-family="sans-serif" font-size="14" lengthAdjust="spacing" textLength="83.166" x="239.99" y="400.1742">+y(): double</text><text fill="#000000" font-family="sans-serif" font-size="14" lengthAdjust="spacing" textLength="83.877" x="239.99" y="416.6625">+z(): double</text><text fill="#000000" font-family="sans-serif" font-size="14" lengthAdjust="spacing" textLength="85.6885" x="239.99" y="433.1508">+yaw(): float</text><text fill="#000000" font-family="sans-serif" font-size="14" lengthAdjust="spacing" textLength="93.8096" x="239.99" y="449.6391">+pitch(): float</text></g><!--class InvalidLocation--><g class="entity" data-entity="InvalidLocation" data-source-line="46" data-uid="ent0005" id="entity_InvalidLocation"><rect fill="#FFE6E6" filter="url(#fds8kkjvx2ejz)" height="87.1094" rx="7.5" ry="7.5" style="stroke:#888888;stroke-width:0.5;" width="216.4561" x="420.77" y="287.04"/><ellipse cx="478.0483" cy="306.1064" fill="#ADD1B2" rx="11" ry="11" style="stroke:#181818;stroke-width:1;"/><path d="M481.0215,311.7495 Q480.4404,312.0483 479.8013,312.1977 Q479.1621,312.3471 478.4565,312.3471 Q475.9497,312.3471 474.6299,310.6953 Q473.31,309.0434 473.31,305.9223 Q473.31,302.7929 474.6299,301.1411 Q475.9497,299.4892 478.4565,299.4892 Q479.1621,299.4892 479.8096,299.6386 Q480.457,299.788 481.0215,300.0869 L481.0215,302.8095 Q480.3906,302.2285 479.7971,301.9587 Q479.2036,301.6889 478.5727,301.6889 Q477.228,301.6889 476.5432,302.7556 Q475.8584,303.8222 475.8584,305.9223 Q475.8584,308.0141 476.5432,309.0808 Q477.228,310.1474 478.5727,310.1474 Q479.2036,310.1474 479.7971,309.8776 Q480.3906,309.6079 481.0215,309.0268 Z " fill="#000000"/><text fill="#000000" font-family="sans-serif" font-size="12" font-style="italic" lengthAdjust="spacing" textLength="90.6094" x="499.9433" y="303.6416">&#171;entity-invalid&#187;</text><text fill="#000000" font-family="Helvetica" font-size="14" lengthAdjust="spacing" textLength="93.3994" x="498.5483" y="316.9531">InvalidLocation</text><line style="stroke:#888888;stroke-width:0.5;" x1="421.77" x2="636.2261" y1="325.1728" y2="325.1728"/><text fill="#000000" font-family="sans-serif" font-size="14" lengthAdjust="spacing" textLength="192.3223" x="426.77" y="342.708">-reason: LocationFailReason</text><line style="stroke:#888888;stroke-width:1;" x1="421.77" x2="636.2261" y1="349.6611" y2="349.6611"/><text fill="#000000" font-family="sans-serif" font-size="14" lengthAdjust="spacing" textLength="204.4561" x="426.77" y="367.1962">+reason(): LocationFailReason</text></g><!--reverse link ConfirmedLocation to ValidLocation--><g class="link" data-entity-1="ConfirmedLocation" data-entity-2="ValidLocation" data-source-line="51" data-uid="lnk6" id="link_ConfirmedLocation_ValidLocation"><path codeLine="51" d="M393.5935,150.3975 C385.3135,168.1475 378.17,183.46 368.35,204.51" fill="none" id="ConfirmedLocation-backto-ValidLocation" style="stroke:#444444;stroke-width:1.2;"/><polygon fill="#444444" points="396.13,144.96,388.7003,151.4253,394.0163,149.4912,395.9503,154.8072,396.13,144.96" style="stroke:#444444;stroke-width:1.2;"/></g><!--reverse link ConfirmedLocation to InvalidLocation--><g class="link" data-entity-1="ConfirmedLocation" data-entity-2="InvalidLocation" data-source-line="52" data-uid="lnk7" id="link_ConfirmedLocation_InvalidLocation"><path codeLine="52" d="M446.1676,150.4063 C465.7676,192.8063 490.78,246.92 509.22,286.81" fill="none" id="ConfirmedLocation-backto-InvalidLocation" style="stroke:#444444;stroke-width:1.2;"/><polygon fill="#444444" points="443.65,144.96,443.7956,154.8078,445.748,149.4985,451.0572,151.451,443.65,144.96" style="stroke:#444444;stroke-width:1.2;"/></g><!--SRC=[ZLFVRzem47xFNt5g7sW5cSQqLLrKAj5EPKYecmfisgD9pc1XREGOqb3nlo_E3mY9INjvi7FVT-VlxkmMz7ez68n-FVH7C9xy6msV1yRbX4icraIH5So8lvmhkH71e-HImINzRhuI8roGG4PCp46h3PQ0F4e9LD3zLWBwIiaeJ_SrjIeuMJ1_AJ0CeVlfInLyaaAFsGwXsor1wqGecUE4QOv7HZcppqaO6kYPh10kVYBVecO-kQXo-behDjje7FfIf7a-LodmvW0yL7eJBPX6uvSgG9KNU9kQi_z8Xhix59hf-FuUBdsAbDA4SvRbRWbdWU7Y3QLuSpwVoyI1QvW9T-yuJYll6Op9Dba6Ycmn9Yemsbhcu09VoG1vfZYp0k3I9vf9KOACCQ5HKU8ZF4f1cLfXC2gOfHfFWuorGTAhDISnAWz-f-kr1t-CzYA1FQOGua71I-9gXzjZ8wbuOEw41-Day6BUWTGrPO47q-dmHmTUFGZaPiQn0_5nkojvIUG1vPBe3goPzXVvtxigzYT_sSqugHTguwwtpSq4vvtwQ_OMpg482nOtOBkck4FT5h3SY3hiMgQHbd5rtLX86ruDuuoaDiIDwAuvbaG6jojkPmNP2ROv3hDNLv_ayJdQPgcGXEMR_4GOVqbz7sjY5czalfFXLBFbgRfkmzkpyoirEyUpMlcoT_u3]--></g></svg>
