<?xml version="1.0" encoding="UTF-8" standalone="no"?>
<!DOCTYPE svg PUBLIC "-//W3C//DTD SVG 1.1//EN"
 "http://www.w3.org/Graphics/SVG/1.1/DTD/svg11.dtd">
<!-- Generated by graphviz version 13.1.2 (20250808.2320)
 -->
<!-- Title: g Pages: 1 -->
<svg width="5023pt" height="1858pt"
 viewBox="0.00 0.00 5023.00 1858.00" xmlns="http://www.w3.org/2000/svg" xmlns:xlink="http://www.w3.org/1999/xlink">
<g id="graph0" class="graph" transform="scale(1 1) rotate(0) translate(4 1854)">
<title>g</title>
<polygon fill="white" stroke="none" points="-4,4 -4,-1854 5019,-1854 5019,4 -4,4"/>
<g id="clust1" class="cluster">
<title>cluster_1655488073</title>
<polygon fill="#ececec" stroke="black" points="8,-8 8,-1842 5007,-1842 5007,-8 8,-8"/>
<text xml:space="preserve" text-anchor="middle" x="58" y="-1824.7" font-family="Times,serif" font-size="14.00">winterhavenmc</text>
</g>
<g id="clust2" class="cluster">
<title>cluster_718573502</title>
<polygon fill="#d8d8d8" stroke="black" points="16,-16 16,-1809.5 4999,-1809.5 4999,-16 16,-16"/>
<text xml:space="preserve" text-anchor="middle" x="72" y="-1792.2" font-family="Times,serif" font-size="14.00">savagegraveyards</text>
</g>
<g id="clust3" class="cluster">
<title>cluster_1041593136</title>
<polygon fill="#c4c4c4" stroke="black" points="2622,-24 2622,-507.5 4991,-507.5 4991,-24 2622,-24"/>
<text xml:space="preserve" text-anchor="middle" x="2652.5" y="-490.2" font-family="Times,serif" font-size="14.00">adapters</text>
</g>
<g id="clust4" class="cluster">
<title>cluster_1070682571</title>
<polygon fill="#c4c4c4" stroke="black" points="24,-109.75 24,-1463 2614,-1463 2614,-109.75 24,-109.75"/>
<text xml:space="preserve" text-anchor="middle" x="43.62" y="-1445.7" font-family="Times,serif" font-size="14.00">core</text>
</g>
<g id="clust5" class="cluster">
<title>cluster_1496697249</title>
<polygon fill="#c4c4c4" stroke="black" points="1102,-1514 1102,-1777 1408,-1777 1408,-1514 1102,-1514"/>
<text xml:space="preserve" text-anchor="middle" x="1127.25" y="-1759.7" font-family="Times,serif" font-size="14.00">plugin</text>
</g>
<!-- BukkitCommandManager578027687 -->
<g id="node1" class="node">
<title>BukkitCommandManager578027687</title>
<polygon fill="#ffffff" stroke="none" points="3249.5,-401.5 2630.5,-401.5 2630.5,-105.5 3249.5,-105.5 3249.5,-401.5"/>
<text xml:space="preserve" text-anchor="start" x="2635.5" y="-383.2" font-family="Times,serif" font-size="14.00">(C)BukkitCommandManager</text>
<text xml:space="preserve" text-anchor="start" x="2635.5" y="-358.7" font-family="Times,serif" font-size="14.00">&#45; &#160;&#160;ctx: CommandContextContainer [0..1]</text>
<text xml:space="preserve" text-anchor="start" x="2635.5" y="-334.2" font-family="Times,serif" font-size="14.00">&#45; &#160;&#160;subcommandRegistry: SubcommandRegistry [0..1]</text>
<text xml:space="preserve" text-anchor="start" x="2635.5" y="-309.7" font-family="Times,serif" font-size="14.00">&#45; getSubcommandNameOrDefault(argsList: List&lt;String&gt;): String</text>
<text xml:space="preserve" text-anchor="start" x="2635.5" y="-285.2" font-family="Times,serif" font-size="14.00">&#45; getSubcommandOrFallback(sender: CommandSender, subcommandName: String): Optional&lt;Subcommand&gt;</text>
<text xml:space="preserve" text-anchor="start" x="2635.5" y="-260.7" font-family="Times,serif" font-size="14.00">&#45; hasPermission(sender: CommandSender): Predicate&lt;String&gt;</text>
<text xml:space="preserve" text-anchor="start" x="2635.5" y="-236.2" font-family="Times,serif" font-size="14.00">+ init(ctx: CommandContextContainer): BukkitCommandManager</text>
<text xml:space="preserve" text-anchor="start" x="2635.5" y="-211.7" font-family="Times,serif" font-size="14.00">&#45; matchesPrefix(prefix: String): Predicate&lt;String&gt;</text>
<text xml:space="preserve" text-anchor="start" x="2635.5" y="-187.2" font-family="Times,serif" font-size="14.00">&#45; matchingNames(sender: CommandSender, matchString: String): List&lt;String&gt;</text>
<text xml:space="preserve" text-anchor="start" x="2635.5" y="-162.7" font-family="Times,serif" font-size="14.00">&#45; notifyInvalidCommand(sender: CommandSender, subcommandName: String): Optional&lt;Subcommand&gt;</text>
<text xml:space="preserve" text-anchor="start" x="2635.5" y="-138.2" font-family="Times,serif" font-size="14.00">+ onCommand(sender: CommandSender, command: Command, label: String, args: String[]): boolean</text>
<text xml:space="preserve" text-anchor="start" x="2635.5" y="-113.7" font-family="Times,serif" font-size="14.00">+ onTabComplete(sender: CommandSender, command: Command, alias: String, args: String[]): List&lt;String&gt;</text>
<polygon fill="black" stroke="black" points="2630.5,-376 2630.5,-376 3249.5,-376 3249.5,-376 2630.5,-376"/>
<polygon fill="black" stroke="black" points="2630.5,-327 2630.5,-327 3249.5,-327 3249.5,-327 2630.5,-327"/>
<polygon fill="none" stroke="black" points="2630.5,-105.5 2630.5,-401.5 3249.5,-401.5 3249.5,-105.5 2630.5,-105.5"/>
</g>
<!-- BukkitPlayerEventListener395421368 -->
<g id="node2" class="node">
<title>BukkitPlayerEventListener395421368</title>
<polygon fill="#ffffff" stroke="none" points="4982.88,-413.75 4597.12,-413.75 4597.12,-93.25 4982.88,-93.25 4982.88,-413.75"/>
<text xml:space="preserve" text-anchor="start" x="4602.12" y="-395.45" font-family="Times,serif" font-size="14.00">(C)BukkitPlayerEventListener</text>
<text xml:space="preserve" text-anchor="start" x="4602.12" y="-370.95" font-family="Times,serif" font-size="14.00">&#45; &#160;&#160;ctx: ListenerContextContainer [0..1]</text>
<text xml:space="preserve" text-anchor="start" x="4602.12" y="-346.45" font-family="Times,serif" font-size="14.00">&#45; &#160;&#160;deathTriggeredRespawn: Set&lt;UUID&gt; [0..*]</text>
<text xml:space="preserve" text-anchor="start" x="4602.12" y="-321.95" font-family="Times,serif" font-size="14.00">+ create(): PlayerEventListener</text>
<text xml:space="preserve" text-anchor="start" x="4602.12" y="-297.45" font-family="Times,serif" font-size="14.00">+ init(ctx: ListenerContextContainer): BukkitPlayerEventListener</text>
<text xml:space="preserve" text-anchor="start" x="4602.12" y="-272.95" font-family="Times,serif" font-size="14.00">+ onEntityTargetLivingEntity(event: EntityTargetLivingEntityEvent)</text>
<text xml:space="preserve" text-anchor="start" x="4602.12" y="-248.45" font-family="Times,serif" font-size="14.00">+ onPlayerDeath(event: PlayerDeathEvent)</text>
<text xml:space="preserve" text-anchor="start" x="4602.12" y="-223.95" font-family="Times,serif" font-size="14.00">+ onPlayerRespawnHIGH(event: PlayerRespawnEvent)</text>
<text xml:space="preserve" text-anchor="start" x="4602.12" y="-199.45" font-family="Times,serif" font-size="14.00">+ onPlayerRespawnHIGHEST(event: PlayerRespawnEvent)</text>
<text xml:space="preserve" text-anchor="start" x="4602.12" y="-174.95" font-family="Times,serif" font-size="14.00">&#45; onPlayerRespawnHandler(event: PlayerRespawnEvent)</text>
<text xml:space="preserve" text-anchor="start" x="4602.12" y="-150.45" font-family="Times,serif" font-size="14.00">+ onPlayerRespawnLOW(event: PlayerRespawnEvent)</text>
<text xml:space="preserve" text-anchor="start" x="4602.12" y="-125.95" font-family="Times,serif" font-size="14.00">+ onPlayerRespawnLOWEST(event: PlayerRespawnEvent)</text>
<text xml:space="preserve" text-anchor="start" x="4602.12" y="-101.45" font-family="Times,serif" font-size="14.00">+ onPlayerRespawnNORMAL(event: PlayerRespawnEvent)</text>
<polygon fill="black" stroke="black" points="4597.12,-388.25 4597.12,-388.25 4982.88,-388.25 4982.88,-388.25 4597.12,-388.25"/>
<polygon fill="black" stroke="black" points="4597.12,-339.25 4597.12,-339.25 4982.88,-339.25 4982.88,-339.25 4597.12,-339.25"/>
<polygon fill="none" stroke="black" points="4597.12,-93.25 4597.12,-413.75 4982.88,-413.75 4982.88,-93.25 4597.12,-93.25"/>
</g>
<!-- SqliteConnectionProvider1287084334 -->
<g id="node3" class="node">
<title>SqliteConnectionProvider1287084334</title>
<polygon fill="#ffffff" stroke="none" points="3720.25,-450.5 3267.75,-450.5 3267.75,-56.5 3720.25,-56.5 3720.25,-450.5"/>
<text xml:space="preserve" text-anchor="start" x="3272.75" y="-432.2" font-family="Times,serif" font-size="14.00">(C)SqliteConnectionProvider</text>
<text xml:space="preserve" text-anchor="start" x="3272.75" y="-407.7" font-family="Times,serif" font-size="14.00">&#45; &#160;&#160;connection: Connection [0..1]</text>
<text xml:space="preserve" text-anchor="start" x="3272.75" y="-383.2" font-family="Times,serif" font-size="14.00">&#45; &#160;&#160;dataFilePath: String [0..1]</text>
<text xml:space="preserve" text-anchor="start" x="3272.75" y="-358.7" font-family="Times,serif" font-size="14.00">&#45; &#160;&#160;discoveryRepository: SqliteDiscoveryRepository [0..1]</text>
<text xml:space="preserve" text-anchor="start" x="3272.75" y="-334.2" font-family="Times,serif" font-size="14.00">&#45; &#160;&#160;graveyardRepository: SqliteGraveyardRepository [0..1]</text>
<text xml:space="preserve" text-anchor="start" x="3272.75" y="-309.7" font-family="Times,serif" font-size="14.00">&#45; &#160;&#160;initialized: boolean [1]</text>
<text xml:space="preserve" text-anchor="start" x="3272.75" y="-285.2" font-family="Times,serif" font-size="14.00">&#45; &#160;&#160;localeProvider: LocaleProvider [0..1]</text>
<text xml:space="preserve" text-anchor="start" x="3272.75" y="-260.7" font-family="Times,serif" font-size="14.00">&#45; &#160;&#160;plugin: Plugin [0..1]</text>
<text xml:space="preserve" text-anchor="start" x="3272.75" y="-236.2" font-family="Times,serif" font-size="14.00">+ close()</text>
<text xml:space="preserve" text-anchor="start" x="3272.75" y="-211.7" font-family="Times,serif" font-size="14.00">+ connect(): ConnectionProvider</text>
<text xml:space="preserve" text-anchor="start" x="3272.75" y="-187.2" font-family="Times,serif" font-size="14.00">&#45; createDiscoveryTable(connection: Connection, localeProvider: LocaleProvider)</text>
<text xml:space="preserve" text-anchor="start" x="3272.75" y="-162.7" font-family="Times,serif" font-size="14.00">&#45; createGraveyardTable(connection: Connection, localeProvider: LocaleProvider)</text>
<text xml:space="preserve" text-anchor="start" x="3272.75" y="-138.2" font-family="Times,serif" font-size="14.00">+ discoveries(): DiscoveryRepository</text>
<text xml:space="preserve" text-anchor="start" x="3272.75" y="-113.7" font-family="Times,serif" font-size="14.00">&#45; enableForeignKeys(connection: Connection, localeProvider: LocaleProvider)</text>
<text xml:space="preserve" text-anchor="start" x="3272.75" y="-89.2" font-family="Times,serif" font-size="14.00">+ graveyards(): GraveyardRepository</text>
<text xml:space="preserve" text-anchor="start" x="3272.75" y="-64.7" font-family="Times,serif" font-size="14.00">&#45; initialize()</text>
<polygon fill="black" stroke="black" points="3267.75,-425 3267.75,-425 3720.25,-425 3720.25,-425 3267.75,-425"/>
<polygon fill="black" stroke="black" points="3267.75,-253.5 3267.75,-253.5 3720.25,-253.5 3720.25,-253.5 3267.75,-253.5"/>
<polygon fill="none" stroke="black" points="3267.75,-56.5 3267.75,-450.5 3720.25,-450.5 3720.25,-56.5 3267.75,-56.5"/>
</g>
<!-- SqliteDiscoveryRepository1287084334 -->
<g id="node4" class="node">
<title>SqliteDiscoveryRepository1287084334</title>
<polygon fill="#ffffff" stroke="none" points="4105.5,-364.75 3738.5,-364.75 3738.5,-142.25 4105.5,-142.25 4105.5,-364.75"/>
<text xml:space="preserve" text-anchor="start" x="3743.5" y="-346.45" font-family="Times,serif" font-size="14.00">(C)SqliteDiscoveryRepository</text>
<text xml:space="preserve" text-anchor="start" x="3743.5" y="-321.95" font-family="Times,serif" font-size="14.00">&#45; &#160;&#160;connection: Connection [0..1]</text>
<text xml:space="preserve" text-anchor="start" x="3743.5" y="-297.45" font-family="Times,serif" font-size="14.00">&#45; &#160;&#160;discoveryMapper: SqliteDiscoveryRowMapper [0..1]</text>
<text xml:space="preserve" text-anchor="start" x="3743.5" y="-272.95" font-family="Times,serif" font-size="14.00">&#45; &#160;&#160;localeProvider: LocaleProvider [0..1]</text>
<text xml:space="preserve" text-anchor="start" x="3743.5" y="-248.45" font-family="Times,serif" font-size="14.00">&#45; &#160;&#160;logger: Logger [0..1]</text>
<text xml:space="preserve" text-anchor="start" x="3743.5" y="-223.95" font-family="Times,serif" font-size="14.00">&#45; &#160;&#160;queryExecutor: SqliteDiscoveryQueryExecutor [0..1]</text>
<text xml:space="preserve" text-anchor="start" x="3743.5" y="-199.45" font-family="Times,serif" font-size="14.00">+ delete(searchKey: ValidSearchKey, playerUid: UUID): boolean</text>
<text xml:space="preserve" text-anchor="start" x="3743.5" y="-174.95" font-family="Times,serif" font-size="14.00">+ save(discovery: ValidDiscovery): boolean</text>
<text xml:space="preserve" text-anchor="start" x="3743.5" y="-150.45" font-family="Times,serif" font-size="14.00">+ saveAll(discoveries: Collection&lt;ValidDiscovery&gt;): int</text>
<polygon fill="black" stroke="black" points="3738.5,-339.25 3738.5,-339.25 4105.5,-339.25 4105.5,-339.25 3738.5,-339.25"/>
<polygon fill="black" stroke="black" points="3738.5,-216.75 3738.5,-216.75 4105.5,-216.75 4105.5,-216.75 3738.5,-216.75"/>
<polygon fill="none" stroke="black" points="3738.5,-142.25 3738.5,-364.75 4105.5,-364.75 4105.5,-142.25 3738.5,-142.25"/>
</g>
<!-- SqliteGraveyardRepository1287084334 -->
<g id="node5" class="node">
<title>SqliteGraveyardRepository1287084334</title>
<polygon fill="#ffffff" stroke="none" points="4578.75,-475 4123.25,-475 4123.25,-32 4578.75,-32 4578.75,-475"/>
<text xml:space="preserve" text-anchor="start" x="4128.25" y="-456.7" font-family="Times,serif" font-size="14.00">(C)SqliteGraveyardRepository</text>
<text xml:space="preserve" text-anchor="start" x="4128.25" y="-432.2" font-family="Times,serif" font-size="14.00">&#45; &#160;&#160;connection: Connection [0..1]</text>
<text xml:space="preserve" text-anchor="start" x="4128.25" y="-407.7" font-family="Times,serif" font-size="14.00">&#45; &#160;&#160;graveyardMapper: SqliteGraveyardRowMapper [0..1]</text>
<text xml:space="preserve" text-anchor="start" x="4128.25" y="-383.2" font-family="Times,serif" font-size="14.00">&#45; &#160;&#160;localeProvider: LocaleProvider [0..1]</text>
<text xml:space="preserve" text-anchor="start" x="4128.25" y="-358.7" font-family="Times,serif" font-size="14.00">&#45; &#160;&#160;logger: Logger [0..1]</text>
<text xml:space="preserve" text-anchor="start" x="4128.25" y="-334.2" font-family="Times,serif" font-size="14.00">&#45; &#160;&#160;queryExecutor: SqliteGraveyardQueryExecutor [0..1]</text>
<text xml:space="preserve" text-anchor="start" x="4128.25" y="-309.7" font-family="Times,serif" font-size="14.00">+ delete(searchKey: ValidSearchKey): Graveyard</text>
<text xml:space="preserve" text-anchor="start" x="4128.25" y="-285.2" font-family="Times,serif" font-size="14.00">+ get(searchKey: ValidSearchKey): Graveyard</text>
<text xml:space="preserve" text-anchor="start" x="4128.25" y="-260.7" font-family="Times,serif" font-size="14.00">+ getMatchingKeys(prefix: String): List&lt;String&gt;</text>
<text xml:space="preserve" text-anchor="start" x="4128.25" y="-236.2" font-family="Times,serif" font-size="14.00">+ getMatchingNames(prefix: String): List&lt;String&gt;</text>
<text xml:space="preserve" text-anchor="start" x="4128.25" y="-211.7" font-family="Times,serif" font-size="14.00">+ getNearestGraveyard(player: Player): Optional&lt;ValidGraveyard&gt;</text>
<text xml:space="preserve" text-anchor="start" x="4128.25" y="-187.2" font-family="Times,serif" font-size="14.00">+ getNearestGraveyards(player: Player): List&lt;ValidGraveyard&gt;</text>
<text xml:space="preserve" text-anchor="start" x="4128.25" y="-162.7" font-family="Times,serif" font-size="14.00">+ getUndiscoveredGraveyards(player: Player): Stream&lt;ValidGraveyard&gt;</text>
<text xml:space="preserve" text-anchor="start" x="4128.25" y="-138.2" font-family="Times,serif" font-size="14.00">+ getUndiscoveredKeys(sender: CommandSender): Set&lt;String&gt;</text>
<text xml:space="preserve" text-anchor="start" x="4128.25" y="-113.7" font-family="Times,serif" font-size="14.00">+ save(graveyard: ValidGraveyard): Graveyard</text>
<text xml:space="preserve" text-anchor="start" x="4128.25" y="-89.2" font-family="Times,serif" font-size="14.00">+ saveAll(graveyards: Collection&lt;ValidGraveyard&gt;): int</text>
<text xml:space="preserve" text-anchor="start" x="4128.25" y="-64.7" font-family="Times,serif" font-size="14.00">+ update(graveyard: ValidGraveyard): Graveyard</text>
<text xml:space="preserve" text-anchor="start" x="4128.25" y="-40.2" font-family="Times,serif" font-size="14.00">+ update(oldSearchKey: ValidSearchKey, graveyard: ValidGraveyard): Graveyard</text>
<polygon fill="black" stroke="black" points="4123.25,-449.5 4123.25,-449.5 4578.75,-449.5 4578.75,-449.5 4123.25,-449.5"/>
<polygon fill="black" stroke="black" points="4123.25,-327 4123.25,-327 4578.75,-327 4578.75,-327 4123.25,-327"/>
<polygon fill="none" stroke="black" points="4123.25,-32 4123.25,-475 4578.75,-475 4578.75,-32 4123.25,-32"/>
</g>
<!-- CommandManager1969417996 -->
<g id="node6" class="node">
<title>CommandManager1969417996</title>
<polygon fill="#f1e5fd" stroke="none" points="1130.38,-757 789.62,-757 789.62,-706 1130.38,-706 1130.38,-757"/>
<text xml:space="preserve" text-anchor="start" x="794.62" y="-738.7" font-family="Times,serif" font-size="14.00">(I)CommandManager</text>
<text xml:space="preserve" text-anchor="start" x="794.62" y="-714.2" font-family="Times,serif" font-size="14.00">+ init(ctx: CommandContextContainer): CommandManager</text>
<polygon fill="black" stroke="black" points="789.62,-731.5 789.62,-731.5 1130.38,-731.5 1130.38,-731.5 789.62,-731.5"/>
<polygon fill="none" stroke="black" points="789.62,-706 789.62,-757 1130.38,-757 1130.38,-706 789.62,-706"/>
</g>
<!-- CommandManager1969417996&#45;&gt;BukkitCommandManager578027687 -->
<g id="edge2" class="edge">
<title>CommandManager1969417996&#45;&gt;BukkitCommandManager578027687</title>
<path fill="none" stroke="black" d="M990.07,-697.58C1041.05,-641.75 1139,-534.5 1139,-534.5 1139,-534.5 1705,-515.5 1705,-515.5 1705,-515.5 2618,-507.5 2618,-507.5 2618,-507.5 2682.13,-457.11 2753.16,-401.3"/>
<polygon fill="none" stroke="black" points="987.49,-695.21 983.33,-704.96 992.66,-699.93 987.49,-695.21"/>
</g>
<!-- ConnectionProvider231410315 -->
<g id="node7" class="node">
<title>ConnectionProvider231410315</title>
<polygon fill="#f1e5fd" stroke="none" points="1362,-793.75 1148,-793.75 1148,-669.25 1362,-669.25 1362,-793.75"/>
<text xml:space="preserve" text-anchor="start" x="1153" y="-775.45" font-family="Times,serif" font-size="14.00">(I)ConnectionProvider</text>
<text xml:space="preserve" text-anchor="start" x="1153" y="-750.95" font-family="Times,serif" font-size="14.00">+ close()</text>
<text xml:space="preserve" text-anchor="start" x="1153" y="-726.45" font-family="Times,serif" font-size="14.00">+ connect(): ConnectionProvider</text>
<text xml:space="preserve" text-anchor="start" x="1153" y="-701.95" font-family="Times,serif" font-size="14.00">+ discoveries(): DiscoveryRepository</text>
<text xml:space="preserve" text-anchor="start" x="1153" y="-677.45" font-family="Times,serif" font-size="14.00">+ graveyards(): GraveyardRepository</text>
<polygon fill="black" stroke="black" points="1148,-768.25 1148,-768.25 1362,-768.25 1362,-768.25 1148,-768.25"/>
<polygon fill="none" stroke="black" points="1148,-669.25 1148,-793.75 1362,-793.75 1362,-669.25 1148,-669.25"/>
</g>
<!-- ConnectionProvider231410315&#45;&gt;SqliteConnectionProvider1287084334 -->
<g id="edge3" class="edge">
<title>ConnectionProvider231410315&#45;&gt;SqliteConnectionProvider1287084334</title>
<path fill="none" stroke="black" d="M1297.27,-659.69C1330.78,-603.56 1372,-534.5 1372,-534.5 1372,-534.5 2168,-515.5 2168,-515.5 2168,-515.5 3259,-507.5 3259,-507.5 3259,-507.5 3281.24,-483.56 3312.03,-450.41"/>
<polygon fill="none" stroke="black" points="1294.43,-657.61 1292.31,-667.99 1300.44,-661.2 1294.43,-657.61"/>
</g>
<!-- DiscoveryObserver776919744 -->
<g id="node8" class="node">
<title>DiscoveryObserver776919744</title>
<polygon fill="#f1e5fd" stroke="none" points="424.25,-806 31.75,-806 31.75,-657 424.25,-657 424.25,-806"/>
<text xml:space="preserve" text-anchor="start" x="36.75" y="-787.7" font-family="Times,serif" font-size="14.00">(I)DiscoveryObserver</text>
<text xml:space="preserve" text-anchor="start" x="36.75" y="-763.2" font-family="Times,serif" font-size="14.00">+ cancel()</text>
<text xml:space="preserve" text-anchor="start" x="36.75" y="-738.7" font-family="Times,serif" font-size="14.00">+ create(): GraveyardDiscoveryObserver</text>
<text xml:space="preserve" text-anchor="start" x="36.75" y="-714.2" font-family="Times,serif" font-size="14.00">+ init(discoveryCtx: DiscoveryContextContainer): DiscoveryObserver</text>
<text xml:space="preserve" text-anchor="start" x="36.75" y="-689.7" font-family="Times,serif" font-size="14.00">+ reload()</text>
<text xml:space="preserve" text-anchor="start" x="36.75" y="-665.2" font-family="Times,serif" font-size="14.00">+ run()</text>
<polygon fill="black" stroke="black" points="31.75,-780.5 31.75,-780.5 424.25,-780.5 424.25,-780.5 31.75,-780.5"/>
<polygon fill="none" stroke="black" points="31.75,-657 31.75,-806 424.25,-806 424.25,-657 31.75,-657"/>
</g>
<!-- GraveyardDiscoveryObserver776919744 -->
<g id="node10" class="node">
<title>GraveyardDiscoveryObserver776919744</title>
<polygon fill="#ffffff" stroke="none" points="426,-389.25 32,-389.25 32,-117.75 426,-117.75 426,-389.25"/>
<text xml:space="preserve" text-anchor="start" x="37" y="-370.95" font-family="Times,serif" font-size="14.00">(C)GraveyardDiscoveryObserver</text>
<text xml:space="preserve" text-anchor="start" x="37" y="-346.45" font-family="Times,serif" font-size="14.00">&#45; &#160;&#160;discoveries: DiscoveryRepository [0..1]</text>
<text xml:space="preserve" text-anchor="start" x="37" y="-321.95" font-family="Times,serif" font-size="14.00">&#45; &#160;&#160;discoveryTask: BukkitTask [0..1]</text>
<text xml:space="preserve" text-anchor="start" x="37" y="-297.45" font-family="Times,serif" font-size="14.00">&#45; &#160;&#160;graveyards: GraveyardRepository [0..1]</text>
<text xml:space="preserve" text-anchor="start" x="37" y="-272.95" font-family="Times,serif" font-size="14.00">&#45; &#160;&#160;messageBuilder: MessageBuilder [0..1]</text>
<text xml:space="preserve" text-anchor="start" x="37" y="-248.45" font-family="Times,serif" font-size="14.00">&#45; &#160;&#160;plugin: Plugin [0..1]</text>
<text xml:space="preserve" text-anchor="start" x="37" y="-223.95" font-family="Times,serif" font-size="14.00">&#45; &#160;&#160;soundConfig: SoundConfiguration [0..1]</text>
<text xml:space="preserve" text-anchor="start" x="37" y="-199.45" font-family="Times,serif" font-size="14.00">+ cancel()</text>
<text xml:space="preserve" text-anchor="start" x="37" y="-174.95" font-family="Times,serif" font-size="14.00">+ init(ctx: DiscoveryContextContainer): GraveyardDiscoveryObserver</text>
<text xml:space="preserve" text-anchor="start" x="37" y="-150.45" font-family="Times,serif" font-size="14.00">+ reload()</text>
<text xml:space="preserve" text-anchor="start" x="37" y="-125.95" font-family="Times,serif" font-size="14.00">+ run()</text>
<polygon fill="black" stroke="black" points="32,-363.75 32,-363.75 426,-363.75 426,-363.75 32,-363.75"/>
<polygon fill="black" stroke="black" points="32,-216.75 32,-216.75 426,-216.75 426,-216.75 32,-216.75"/>
<polygon fill="none" stroke="black" points="32,-117.75 32,-389.25 426,-389.25 426,-117.75 32,-117.75"/>
</g>
<!-- DiscoveryObserver776919744&#45;&gt;GraveyardDiscoveryObserver776919744 -->
<g id="edge4" class="edge">
<title>DiscoveryObserver776919744&#45;&gt;GraveyardDiscoveryObserver776919744</title>
<path fill="none" stroke="black" d="M228.18,-646.01C228.33,-574.73 228.54,-471.4 228.72,-388.79"/>
<polygon fill="none" stroke="black" points="224.68,-645.65 228.16,-655.65 231.68,-645.66 224.68,-645.65"/>
</g>
<!-- DiscoveryRepository231410315 -->
<g id="node9" class="node">
<title>DiscoveryRepository231410315</title>
<polygon fill="#f1e5fd" stroke="none" points="1747.5,-793.75 1380.5,-793.75 1380.5,-669.25 1747.5,-669.25 1747.5,-793.75"/>
<text xml:space="preserve" text-anchor="start" x="1385.5" y="-775.45" font-family="Times,serif" font-size="14.00">(I)DiscoveryRepository</text>
<text xml:space="preserve" text-anchor="start" x="1385.5" y="-750.95" font-family="Times,serif" font-size="14.00">+ delete(searchKey: ValidSearchKey, playerUid: UUID): boolean</text>
<text xml:space="preserve" text-anchor="start" x="1385.5" y="-726.45" font-family="Times,serif" font-size="14.00">+ getAll(): Set&lt;ValidDiscovery&gt;</text>
<text xml:space="preserve" text-anchor="start" x="1385.5" y="-701.95" font-family="Times,serif" font-size="14.00">+ save(discovery: ValidDiscovery): boolean</text>
<text xml:space="preserve" text-anchor="start" x="1385.5" y="-677.45" font-family="Times,serif" font-size="14.00">+ saveAll(discoveries: Collection&lt;ValidDiscovery&gt;): int</text>
<polygon fill="black" stroke="black" points="1380.5,-768.25 1380.5,-768.25 1747.5,-768.25 1747.5,-768.25 1380.5,-768.25"/>
<polygon fill="none" stroke="black" points="1380.5,-669.25 1380.5,-793.75 1747.5,-793.75 1747.5,-669.25 1380.5,-669.25"/>
</g>
<!-- DiscoveryRepository231410315&#45;&gt;SqliteDiscoveryRepository1287084334 -->
<g id="edge5" class="edge">
<title>DiscoveryRepository231410315&#45;&gt;SqliteDiscoveryRepository1287084334</title>
<path fill="none" stroke="black" d="M1632.01,-661.43C1687.58,-604.99 1757,-534.5 1757,-534.5 1757,-534.5 2784,-515.5 2784,-515.5 2784,-515.5 3729,-507.5 3729,-507.5 3729,-507.5 3785.9,-432.91 3837.91,-364.73"/>
<polygon fill="none" stroke="black" points="1629.86,-658.63 1625.33,-668.21 1634.84,-663.54 1629.86,-658.63"/>
</g>
<!-- GraveyardRepository231410315 -->
<g id="node11" class="node">
<title>GraveyardRepository231410315</title>
<polygon fill="#f1e5fd" stroke="none" points="2202,-928.5 1766,-928.5 1766,-534.5 2202,-534.5 2202,-928.5"/>
<text xml:space="preserve" text-anchor="start" x="1771" y="-910.2" font-family="Times,serif" font-size="14.00">(I)GraveyardRepository</text>
<text xml:space="preserve" text-anchor="start" x="1771" y="-885.7" font-family="Times,serif" font-size="14.00">+ delete(searchKey: ValidSearchKey): Graveyard</text>
<text xml:space="preserve" text-anchor="start" x="1771" y="-861.2" font-family="Times,serif" font-size="14.00">+ get(searchKey: ValidSearchKey): Graveyard</text>
<text xml:space="preserve" text-anchor="start" x="1771" y="-836.7" font-family="Times,serif" font-size="14.00">+ getAll(): Stream&lt;Graveyard&gt;</text>
<text xml:space="preserve" text-anchor="start" x="1771" y="-812.2" font-family="Times,serif" font-size="14.00">+ getAllValid(): List&lt;ValidGraveyard&gt;</text>
<text xml:space="preserve" text-anchor="start" x="1771" y="-787.7" font-family="Times,serif" font-size="14.00">+ getCount(): int</text>
<text xml:space="preserve" text-anchor="start" x="1771" y="-763.2" font-family="Times,serif" font-size="14.00">+ getMatchingKeys(prefix: String): List&lt;String&gt;</text>
<text xml:space="preserve" text-anchor="start" x="1771" y="-738.7" font-family="Times,serif" font-size="14.00">+ getMatchingNames(prefix: String): List&lt;String&gt;</text>
<text xml:space="preserve" text-anchor="start" x="1771" y="-714.2" font-family="Times,serif" font-size="14.00">+ getNearestGraveyard(player: Player): Optional&lt;ValidGraveyard&gt;</text>
<text xml:space="preserve" text-anchor="start" x="1771" y="-689.7" font-family="Times,serif" font-size="14.00">+ getNearestGraveyards(player: Player): List&lt;ValidGraveyard&gt;</text>
<text xml:space="preserve" text-anchor="start" x="1771" y="-665.2" font-family="Times,serif" font-size="14.00">+ getUndiscoveredGraveyards(player: Player): Stream&lt;ValidGraveyard&gt;</text>
<text xml:space="preserve" text-anchor="start" x="1771" y="-640.7" font-family="Times,serif" font-size="14.00">+ getUndiscoveredKeys(player: CommandSender): Set&lt;String&gt;</text>
<text xml:space="preserve" text-anchor="start" x="1771" y="-616.2" font-family="Times,serif" font-size="14.00">+ save(graveyard: ValidGraveyard): Graveyard</text>
<text xml:space="preserve" text-anchor="start" x="1771" y="-591.7" font-family="Times,serif" font-size="14.00">+ saveAll(graveyards: Collection&lt;ValidGraveyard&gt;): int</text>
<text xml:space="preserve" text-anchor="start" x="1771" y="-567.2" font-family="Times,serif" font-size="14.00">+ update(graveyard: ValidGraveyard): Graveyard</text>
<text xml:space="preserve" text-anchor="start" x="1771" y="-542.7" font-family="Times,serif" font-size="14.00">+ update(searchKey: ValidSearchKey, graveyard: ValidGraveyard): Graveyard</text>
<polygon fill="black" stroke="black" points="1766,-903 1766,-903 2202,-903 2202,-903 1766,-903"/>
<polygon fill="none" stroke="black" points="1766,-534.5 1766,-928.5 2202,-928.5 2202,-534.5 1766,-534.5"/>
</g>
<!-- GraveyardRepository231410315&#45;&gt;SqliteGraveyardRepository1287084334 -->
<g id="edge6" class="edge">
<title>GraveyardRepository231410315&#45;&gt;SqliteGraveyardRepository1287084334</title>
<path fill="none" stroke="black" d="M2210.39,-535.03C2210.79,-534.68 2211,-534.5 2211,-534.5 2211,-534.5 4115,-507.5 4115,-507.5 4115,-507.5 4126.91,-494.74 4145.37,-474.94"/>
<polygon fill="none" stroke="black" points="2208.25,-532.25 2202.97,-541.44 2212.82,-537.55 2208.25,-532.25"/>
</g>
<!-- PlayerEventListener642410157 -->
<g id="node12" class="node">
<title>PlayerEventListener642410157</title>
<polygon fill="#f1e5fd" stroke="none" points="2605.88,-842.75 2220.12,-842.75 2220.12,-620.25 2605.88,-620.25 2605.88,-842.75"/>
<text xml:space="preserve" text-anchor="start" x="2225.12" y="-824.45" font-family="Times,serif" font-size="14.00">(I)PlayerEventListener</text>
<text xml:space="preserve" text-anchor="start" x="2225.12" y="-799.95" font-family="Times,serif" font-size="14.00">+ init(ctx: ListenerContextContainer): PlayerEventListener</text>
<text xml:space="preserve" text-anchor="start" x="2225.12" y="-775.45" font-family="Times,serif" font-size="14.00">+ onEntityTargetLivingEntity(event: EntityTargetLivingEntityEvent)</text>
<text xml:space="preserve" text-anchor="start" x="2225.12" y="-750.95" font-family="Times,serif" font-size="14.00">+ onPlayerDeath(event: PlayerDeathEvent)</text>
<text xml:space="preserve" text-anchor="start" x="2225.12" y="-726.45" font-family="Times,serif" font-size="14.00">+ onPlayerRespawnHIGH(event: PlayerRespawnEvent)</text>
<text xml:space="preserve" text-anchor="start" x="2225.12" y="-701.95" font-family="Times,serif" font-size="14.00">+ onPlayerRespawnHIGHEST(event: PlayerRespawnEvent)</text>
<text xml:space="preserve" text-anchor="start" x="2225.12" y="-677.45" font-family="Times,serif" font-size="14.00">+ onPlayerRespawnLOW(event: PlayerRespawnEvent)</text>
<text xml:space="preserve" text-anchor="start" x="2225.12" y="-652.95" font-family="Times,serif" font-size="14.00">+ onPlayerRespawnLOWEST(event: PlayerRespawnEvent)</text>
<text xml:space="preserve" text-anchor="start" x="2225.12" y="-628.45" font-family="Times,serif" font-size="14.00">+ onPlayerRespawnNORMAL(event: PlayerRespawnEvent)</text>
<polygon fill="black" stroke="black" points="2220.12,-817.25 2220.12,-817.25 2605.88,-817.25 2605.88,-817.25 2220.12,-817.25"/>
<polygon fill="none" stroke="black" points="2220.12,-620.25 2220.12,-842.75 2605.88,-842.75 2605.88,-620.25 2220.12,-620.25"/>
</g>
<!-- PlayerEventListener642410157&#45;&gt;BukkitPlayerEventListener395421368 -->
<g id="edge7" class="edge">
<title>PlayerEventListener642410157&#45;&gt;BukkitPlayerEventListener395421368</title>
<path fill="none" stroke="black" d="M2616.97,-709.59C3157.92,-654.12 4588,-507.5 4588,-507.5 4588,-507.5 4622.47,-464.33 4662.93,-413.65"/>
<polygon fill="none" stroke="black" points="2616.64,-706.1 2607.05,-710.6 2617.35,-713.07 2616.64,-706.1"/>
</g>
<!-- PluginController1876166622 -->
<g id="node13" class="node">
<title>PluginController1876166622</title>
<polygon fill="#f1e5fd" stroke="none" points="1884.75,-1430.5 625.25,-1430.5 625.25,-1355 1884.75,-1355 1884.75,-1430.5"/>
<text xml:space="preserve" text-anchor="start" x="630.25" y="-1412.2" font-family="Times,serif" font-size="14.00">(I)PluginController</text>
<text xml:space="preserve" text-anchor="start" x="630.25" y="-1387.7" font-family="Times,serif" font-size="14.00">+ shutDown()</text>
<text xml:space="preserve" text-anchor="start" x="630.25" y="-1363.2" font-family="Times,serif" font-size="14.00">+ startUp(plugin: JavaPlugin, connectionProvider: ConnectionProvider, commandManager: CommandManager, playerEventListener: PlayerEventListener, discoveryObserver: DiscoveryObserver, safetyManager: SafetyManager)</text>
<polygon fill="black" stroke="black" points="625.25,-1405 625.25,-1405 1884.75,-1405 1884.75,-1405 625.25,-1405"/>
<polygon fill="none" stroke="black" points="625.25,-1355 625.25,-1430.5 1884.75,-1430.5 1884.75,-1355 625.25,-1355"/>
</g>
<!-- SavageGraveyardsPluginController1876166622 -->
<g id="node16" class="node">
<title>SavageGraveyardsPluginController1876166622</title>
<polygon fill="#ffffff" stroke="none" points="1884.75,-1318 625.25,-1318 625.25,-997.5 1884.75,-997.5 1884.75,-1318"/>
<text xml:space="preserve" text-anchor="start" x="630.25" y="-1299.7" font-family="Times,serif" font-size="14.00">(C)SavageGraveyardsPluginController</text>
<text xml:space="preserve" text-anchor="start" x="630.25" y="-1275.2" font-family="Times,serif" font-size="14.00">+ &#160;&#160;commandManager: CommandManager [0..1]</text>
<text xml:space="preserve" text-anchor="start" x="630.25" y="-1250.7" font-family="Times,serif" font-size="14.00">+ &#160;&#160;datastore: ConnectionProvider [0..1]</text>
<text xml:space="preserve" text-anchor="start" x="630.25" y="-1226.2" font-family="Times,serif" font-size="14.00">+ &#160;&#160;discoveries: DiscoveryRepository [0..1]</text>
<text xml:space="preserve" text-anchor="start" x="630.25" y="-1201.7" font-family="Times,serif" font-size="14.00">+ &#160;&#160;discoveryObserver: DiscoveryObserver [0..1]</text>
<text xml:space="preserve" text-anchor="start" x="630.25" y="-1177.2" font-family="Times,serif" font-size="14.00">+ &#160;&#160;graveyards: GraveyardRepository [0..1]</text>
<text xml:space="preserve" text-anchor="start" x="630.25" y="-1152.7" font-family="Times,serif" font-size="14.00">+ &#160;&#160;messageBuilder: MessageBuilder [0..1]</text>
<text xml:space="preserve" text-anchor="start" x="630.25" y="-1128.2" font-family="Times,serif" font-size="14.00">+ &#160;&#160;playerEventListener: PlayerEventListener [0..1]</text>
<text xml:space="preserve" text-anchor="start" x="630.25" y="-1103.7" font-family="Times,serif" font-size="14.00">+ &#160;&#160;safetyManager: SafetyManager [0..1]</text>
<text xml:space="preserve" text-anchor="start" x="630.25" y="-1079.2" font-family="Times,serif" font-size="14.00">+ &#160;&#160;soundConfig: SoundConfiguration [0..1]</text>
<text xml:space="preserve" text-anchor="start" x="630.25" y="-1054.7" font-family="Times,serif" font-size="14.00">+ &#160;&#160;worldManager: WorldManager [0..1]</text>
<text xml:space="preserve" text-anchor="start" x="630.25" y="-1030.2" font-family="Times,serif" font-size="14.00">+ shutDown()</text>
<text xml:space="preserve" text-anchor="start" x="630.25" y="-1005.7" font-family="Times,serif" font-size="14.00">+ startUp(plugin: JavaPlugin, connectionProvider: ConnectionProvider, commandManager: CommandManager, playerEventListener: PlayerEventListener, discoveryObserver: DiscoveryObserver, safetyManager: SafetyManager)</text>
<polygon fill="black" stroke="black" points="625.25,-1292.5 625.25,-1292.5 1884.75,-1292.5 1884.75,-1292.5 625.25,-1292.5"/>
<polygon fill="black" stroke="black" points="625.25,-1047.5 625.25,-1047.5 1884.75,-1047.5 1884.75,-1047.5 625.25,-1047.5"/>
<polygon fill="none" stroke="black" points="625.25,-997.5 625.25,-1318 1884.75,-1318 1884.75,-997.5 625.25,-997.5"/>
</g>
<!-- PluginController1876166622&#45;&gt;SavageGraveyardsPluginController1876166622 -->
<g id="edge8" class="edge">
<title>PluginController1876166622&#45;&gt;SavageGraveyardsPluginController1876166622</title>
<path fill="none" stroke="black" d="M1255,-1343.82C1255,-1335.77 1255,-1327.05 1255,-1317.92"/>
<polygon fill="none" stroke="black" points="1251.5,-1343.57 1255,-1353.57 1258.5,-1343.57 1251.5,-1343.57"/>
</g>
<!-- RespawnSafetyManager1159211330 -->
<g id="node14" class="node">
<title>RespawnSafetyManager1159211330</title>
<polygon fill="#ffffff" stroke="none" points="796.38,-352.5 443.62,-352.5 443.62,-154.5 796.38,-154.5 796.38,-352.5"/>
<text xml:space="preserve" text-anchor="start" x="448.62" y="-334.2" font-family="Times,serif" font-size="14.00">(C)RespawnSafetyManager</text>
<text xml:space="preserve" text-anchor="start" x="448.62" y="-309.7" font-family="Times,serif" font-size="14.00">&#45; &#160;&#160;messageBuilder: MessageBuilder [0..1]</text>
<text xml:space="preserve" text-anchor="start" x="448.62" y="-285.2" font-family="Times,serif" font-size="14.00">&#45; &#160;&#160;plugin: Plugin [0..1]</text>
<text xml:space="preserve" text-anchor="start" x="448.62" y="-260.7" font-family="Times,serif" font-size="14.00">&#45; &#160;&#160;safetyCooldownMap: Map&lt;UUID, BukkitRunnable&gt; [0..*]</text>
<text xml:space="preserve" text-anchor="start" x="448.62" y="-236.2" font-family="Times,serif" font-size="14.00">+ init(ctx: SafetyContextContainer): RespawnSafetyManager</text>
<text xml:space="preserve" text-anchor="start" x="448.62" y="-211.7" font-family="Times,serif" font-size="14.00">+ isProtected(player: Player): boolean</text>
<text xml:space="preserve" text-anchor="start" x="448.62" y="-187.2" font-family="Times,serif" font-size="14.00">+ put(player: Player, graveyard: ValidGraveyard)</text>
<text xml:space="preserve" text-anchor="start" x="448.62" y="-162.7" font-family="Times,serif" font-size="14.00">+ remove(player: Player)</text>
<polygon fill="black" stroke="black" points="443.62,-327 443.62,-327 796.38,-327 796.38,-327 443.62,-327"/>
<polygon fill="black" stroke="black" points="443.62,-253.5 443.62,-253.5 796.38,-253.5 796.38,-253.5 443.62,-253.5"/>
<polygon fill="none" stroke="black" points="443.62,-154.5 443.62,-352.5 796.38,-352.5 796.38,-154.5 443.62,-154.5"/>
</g>
<!-- SafetyManager1159211330 -->
<g id="node15" class="node">
<title>SafetyManager1159211330</title>
<polygon fill="#f1e5fd" stroke="none" points="771.75,-806 442.25,-806 442.25,-657 771.75,-657 771.75,-806"/>
<text xml:space="preserve" text-anchor="start" x="447.25" y="-787.7" font-family="Times,serif" font-size="14.00">(I)SafetyManager</text>
<text xml:space="preserve" text-anchor="start" x="447.25" y="-763.2" font-family="Times,serif" font-size="14.00">+ create(): RespawnSafetyManager</text>
<text xml:space="preserve" text-anchor="start" x="447.25" y="-738.7" font-family="Times,serif" font-size="14.00">+ init(safetyCtx: SafetyContextContainer): SafetyManager</text>
<text xml:space="preserve" text-anchor="start" x="447.25" y="-714.2" font-family="Times,serif" font-size="14.00">+ isProtected(player: Player): boolean</text>
<text xml:space="preserve" text-anchor="start" x="447.25" y="-689.7" font-family="Times,serif" font-size="14.00">+ put(player: Player, graveyard: ValidGraveyard)</text>
<text xml:space="preserve" text-anchor="start" x="447.25" y="-665.2" font-family="Times,serif" font-size="14.00">+ remove(player: Player)</text>
<polygon fill="black" stroke="black" points="442.25,-780.5 442.25,-780.5 771.75,-780.5 771.75,-780.5 442.25,-780.5"/>
<polygon fill="none" stroke="black" points="442.25,-657 442.25,-806 771.75,-806 771.75,-657 442.25,-657"/>
</g>
<!-- SafetyManager1159211330&#45;&gt;RespawnSafetyManager1159211330 -->
<g id="edge9" class="edge">
<title>SafetyManager1159211330&#45;&gt;RespawnSafetyManager1159211330</title>
<path fill="none" stroke="black" d="M609.31,-645.85C611.56,-563.58 614.97,-438.74 617.33,-352.28"/>
<polygon fill="none" stroke="black" points="605.82,-645.56 609.04,-655.66 612.82,-645.75 605.82,-645.56"/>
</g>
<!-- SavageGraveyardsPluginController1876166622&#45;&gt;CommandManager1969417996 -->
<g id="edge10" class="edge">
<title>SavageGraveyardsPluginController1876166622&#45;&gt;CommandManager1969417996</title>
<path fill="none" stroke="black" d="M1144.31,-997.57C1085.46,-912.92 1018.25,-816.26 983.53,-766.33"/>
<polygon fill="black" stroke="black" points="986.47,-764.44 977.89,-758.23 980.73,-768.44 986.47,-764.44"/>
<text xml:space="preserve" text-anchor="middle" x="1176.91" y="-966.2" font-family="Times,serif" font-size="14.00">commandManager</text>
<text xml:space="preserve" text-anchor="middle" x="1176.91" y="-949.7" font-family="Times,serif" font-size="14.00">[0..1]</text>
</g>
<!-- SavageGraveyardsPluginController1876166622&#45;&gt;ConnectionProvider231410315 -->
<g id="edge11" class="edge">
<title>SavageGraveyardsPluginController1876166622&#45;&gt;ConnectionProvider231410315</title>
<path fill="none" stroke="black" d="M1255,-997.57C1255,-931.31 1255,-857.68 1255,-804.87"/>
<polygon fill="black" stroke="black" points="1258.5,-805.11 1255,-795.11 1251.5,-805.11 1258.5,-805.11"/>
<text xml:space="preserve" text-anchor="middle" x="1279.38" y="-966.2" font-family="Times,serif" font-size="14.00">datastore</text>
<text xml:space="preserve" text-anchor="middle" x="1279.38" y="-949.7" font-family="Times,serif" font-size="14.00">[0..1]</text>
</g>
<!-- SavageGraveyardsPluginController1876166622&#45;&gt;DiscoveryObserver776919744 -->
<g id="edge12" class="edge">
<title>SavageGraveyardsPluginController1876166622&#45;&gt;DiscoveryObserver776919744</title>
<path fill="none" stroke="black" d="M681.58,-997.52C542.51,-958.91 433,-928.5 433,-928.5 433,-928.5 369.28,-867.57 312.88,-813.66"/>
<polygon fill="black" stroke="black" points="315.37,-811.19 305.72,-806.81 310.53,-816.25 315.37,-811.19"/>
<text xml:space="preserve" text-anchor="middle" x="661.55" y="-966.2" font-family="Times,serif" font-size="14.00">discoveryObserver</text>
<text xml:space="preserve" text-anchor="middle" x="661.55" y="-949.7" font-family="Times,serif" font-size="14.00">[0..1]</text>
</g>
<!-- SavageGraveyardsPluginController1876166622&#45;&gt;DiscoveryRepository231410315 -->
<g id="edge13" class="edge">
<title>SavageGraveyardsPluginController1876166622&#45;&gt;DiscoveryRepository231410315</title>
<path fill="none" stroke="black" d="M1370.94,-997.57C1419.81,-930.47 1474.18,-855.83 1512.73,-802.89"/>
<polygon fill="black" stroke="black" points="1515.55,-804.96 1518.61,-794.82 1509.89,-800.84 1515.55,-804.96"/>
<text xml:space="preserve" text-anchor="middle" x="1430.61" y="-966.2" font-family="Times,serif" font-size="14.00">discoveries</text>
<text xml:space="preserve" text-anchor="middle" x="1430.61" y="-949.7" font-family="Times,serif" font-size="14.00">[0..1]</text>
</g>
<!-- SavageGraveyardsPluginController1876166622&#45;&gt;GraveyardRepository231410315 -->
<g id="edge14" class="edge">
<title>SavageGraveyardsPluginController1876166622&#45;&gt;GraveyardRepository231410315</title>
<path fill="none" stroke="black" d="M1605.02,-997.6C1690.04,-958.95 1757,-928.5 1757,-928.5 1757,-928.5 1757.21,-928.32 1757.61,-927.97"/>
<polygon fill="black" stroke="black" points="1759.75,-930.75 1765.03,-921.56 1755.18,-925.45 1759.75,-930.75"/>
<text xml:space="preserve" text-anchor="middle" x="1743.69" y="-966.2" font-family="Times,serif" font-size="14.00">graveyards</text>
<text xml:space="preserve" text-anchor="middle" x="1743.69" y="-949.7" font-family="Times,serif" font-size="14.00">[0..1]</text>
</g>
<!-- SavageGraveyardsPluginController1876166622&#45;&gt;PlayerEventListener642410157 -->
<g id="edge15" class="edge">
<title>SavageGraveyardsPluginController1876166622&#45;&gt;PlayerEventListener642410157</title>
<path fill="none" stroke="black" d="M1884.67,-1006.41C2063.66,-963.68 2211,-928.5 2211,-928.5 2211,-928.5 2248.71,-891.91 2291.55,-850.34"/>
<polygon fill="black" stroke="black" points="2293.77,-853.06 2298.51,-843.59 2288.9,-848.04 2293.77,-853.06"/>
<text xml:space="preserve" text-anchor="middle" x="2183.98" y="-966.2" font-family="Times,serif" font-size="14.00">playerEventListener</text>
<text xml:space="preserve" text-anchor="middle" x="2183.98" y="-949.7" font-family="Times,serif" font-size="14.00">[0..1]</text>
</g>
<!-- SavageGraveyardsPluginController1876166622&#45;&gt;SafetyManager1159211330 -->
<g id="edge16" class="edge">
<title>SavageGraveyardsPluginController1876166622&#45;&gt;SafetyManager1159211330</title>
<path fill="none" stroke="black" d="M924.5,-997.6C844.23,-958.95 781,-928.5 781,-928.5 781,-928.5 727.35,-868.07 679.64,-814.32"/>
<polygon fill="black" stroke="black" points="682.3,-812.05 673.04,-806.89 677.06,-816.7 682.3,-812.05"/>
<text xml:space="preserve" text-anchor="middle" x="923.88" y="-966.2" font-family="Times,serif" font-size="14.00">safetyManager</text>
<text xml:space="preserve" text-anchor="middle" x="923.88" y="-949.7" font-family="Times,serif" font-size="14.00">[0..1]</text>
</g>
<!-- Bootstrap520637518 -->
<g id="node17" class="node">
<title>Bootstrap520637518</title>
<polygon fill="#ffffff" stroke="none" points="1399.5,-1744.5 1110.5,-1744.5 1110.5,-1522 1399.5,-1522 1399.5,-1744.5"/>
<text xml:space="preserve" text-anchor="start" x="1115.5" y="-1726.2" font-family="Times,serif" font-size="14.00">(C)Bootstrap</text>
<text xml:space="preserve" text-anchor="start" x="1115.5" y="-1701.7" font-family="Times,serif" font-size="14.00"># &#160;&#160;commandManager: CommandManager [0..1]</text>
<text xml:space="preserve" text-anchor="start" x="1115.5" y="-1677.2" font-family="Times,serif" font-size="14.00"># &#160;&#160;connectionProvider: ConnectionProvider [0..1]</text>
<text xml:space="preserve" text-anchor="start" x="1115.5" y="-1652.7" font-family="Times,serif" font-size="14.00"># &#160;&#160;discoveryObserver: DiscoveryObserver [0..1]</text>
<text xml:space="preserve" text-anchor="start" x="1115.5" y="-1628.2" font-family="Times,serif" font-size="14.00"># &#160;&#160;playerEventListener: PlayerEventListener [0..1]</text>
<text xml:space="preserve" text-anchor="start" x="1115.5" y="-1603.7" font-family="Times,serif" font-size="14.00"># &#160;&#160;pluginController: PluginController [0..1]</text>
<text xml:space="preserve" text-anchor="start" x="1115.5" y="-1579.2" font-family="Times,serif" font-size="14.00"># &#160;&#160;safetyManager: SafetyManager [0..1]</text>
<text xml:space="preserve" text-anchor="start" x="1115.5" y="-1554.7" font-family="Times,serif" font-size="14.00">+ onDisable()</text>
<text xml:space="preserve" text-anchor="start" x="1115.5" y="-1530.2" font-family="Times,serif" font-size="14.00">+ onEnable()</text>
<polygon fill="black" stroke="black" points="1110.5,-1719 1110.5,-1719 1399.5,-1719 1399.5,-1719 1110.5,-1719"/>
<polygon fill="black" stroke="black" points="1110.5,-1572 1110.5,-1572 1399.5,-1572 1399.5,-1572 1110.5,-1572"/>
<polygon fill="none" stroke="black" points="1110.5,-1522 1110.5,-1744.5 1399.5,-1744.5 1399.5,-1522 1110.5,-1522"/>
</g>
<!-- Bootstrap520637518&#45;&gt;PluginController1876166622 -->
<g id="edge1" class="edge">
<title>Bootstrap520637518&#45;&gt;PluginController1876166622</title>
<path fill="none" stroke="black" d="M1255,-1522.08C1255,-1493.78 1255,-1464.8 1255,-1441.55"/>
<polygon fill="black" stroke="black" points="1258.5,-1441.81 1255,-1431.81 1251.5,-1441.81 1258.5,-1441.81"/>
<text xml:space="preserve" text-anchor="middle" x="1300" y="-1490.7" font-family="Times,serif" font-size="14.00">pluginController</text>
<text xml:space="preserve" text-anchor="middle" x="1300" y="-1474.2" font-family="Times,serif" font-size="14.00">[0..1]</text>
</g>
</g>
</svg>
