<!--
  - Copyright (c) 2025 Tim Savage.
  -
  - This program is free software: you can redistribute it and/or modify
  - it under the terms of the GNU General Public License as published by
  - the Free Software Foundation, version 3.
  -
  - This program is distributed in the hope that it will be useful, but
  - WITHOUT ANY WARRANTY; without even the implied warranty of
  - MERCHANTABILITY or FITNESS FOR A PARTICULAR PURPOSE. See the GNU
  - General Public License for more details.
  -
  - You should have received a copy of the GNU General Public License
  - along with this program. If not, see <http://www.gnu.org/licenses/>.
  -
  -->

<svg xmlns="http://www.w3.org/2000/svg" xmlns:xlink="http://www.w3.org/1999/xlink" contentStyleType="text/css" data-diagram-type="CLASS" height="404px" preserveAspectRatio="none" style="width:561px;height:404px;background:#F9F9F9;" version="1.1" viewBox="0 0 561 404" width="561px" zoomAndPan="magnify"><defs><filter height="300%" id="fx1mr0a2dwvjl" width="300%" x="-1" y="-1"><feGaussianBlur result="blurOut" stdDeviation="2"/><feColorMatrix in="blurOut" result="blurOut2" type="matrix" values="0 0 0 0 0 0 0 0 0 0 0 0 0 0 0 0 0 0 .4 0"/><feOffset dx="4" dy="4" in="blurOut2" result="blurOut3"/><feBlend in="SourceGraphic" in2="blurOut3" mode="normal"/></filter></defs><g><rect fill="#F9F9F9" height="404" style="stroke:none;stroke-width:1;" width="561" x="0" y="0"/><!--cluster displayname--><g class="cluster" data-entity="displayname" data-source-line="22" data-uid="ent0002" id="cluster_displayname"><path d="M13.5,6 L95.6709,6 A11.25,11.25 0 0 1 103.1709,13.5 L110.1709,28.4883 L539.5,28.4883 A7.5,7.5 0 0 1 547,35.9883 L547,382.65 A7.5,7.5 0 0 1 539.5,390.15 L13.5,390.15 A7.5,7.5 0 0 1 6,382.65 L6,13.5 A7.5,7.5 0 0 1 13.5,6" fill="none" filter="url(#fx1mr0a2dwvjl)" style="stroke:#000000;stroke-width:1.5;"/><line style="stroke:#000000;stroke-width:1.5;" x1="6" x2="110.1709" y1="28.4883" y2="28.4883"/><text fill="#000000" font-family="sans-serif" font-size="14" font-weight="bold" lengthAdjust="spacing" textLength="91.1709" x="10" y="21.5352">displayname</text></g><!--class DisplayName--><g class="entity" data-entity="DisplayName" data-source-line="23" data-uid="ent0003" id="entity_DisplayName"><rect fill="#CFEFFF" filter="url(#fx1mr0a2dwvjl)" height="153.0625" rx="7.5" ry="7.5" style="stroke:#888888;stroke-width:0.5;" width="267.6572" x="142.17" y="41"/><ellipse cx="230.1246" cy="60.0664" fill="#B4A7E5" rx="11" ry="11" style="stroke:#181818;stroke-width:1;"/><path d="M226.0523,55.8315 L226.0523,53.6733 L233.4317,53.6733 L233.4317,55.8315 L230.9664,55.8315 L230.9664,63.9082 L233.4317,63.9082 L233.4317,66.0664 L226.0523,66.0664 L226.0523,63.9082 L228.5177,63.9082 L228.5177,55.8315 Z " fill="#000000"/><text fill="#000000" font-family="sans-serif" font-size="12" font-style="italic" lengthAdjust="spacing" textLength="45.4219" x="269.5377" y="57.6016">&#171;entity&#187;</text><text fill="#000000" font-family="Helvetica" font-size="14" font-style="italic" lengthAdjust="spacing" textLength="83.248" x="250.6246" y="70.9131">DisplayName</text><line style="stroke:#888888;stroke-width:0.5;" x1="143.17" x2="408.8272" y1="79.1328" y2="79.1328"/><line style="stroke:#888888;stroke-width:0.5;" x1="143.17" x2="408.8272" y1="87.1328" y2="87.1328"/><text fill="#000000" font-family="sans-serif" font-size="14" lengthAdjust="spacing" textLength="219.7549" x="148.17" y="104.668">+of(string: String): DisplayName</text><text fill="#000000" font-family="sans-serif" font-size="14" lengthAdjust="spacing" textLength="255.6572" x="148.17" y="121.1563">+of(args: List&lt;String&gt;): DisplayName</text><text fill="#000000" font-family="sans-serif" font-size="14" lengthAdjust="spacing" textLength="143.1787" x="148.17" y="137.6445">+colorString(): String</text><text fill="#000000" font-family="sans-serif" font-size="14" lengthAdjust="spacing" textLength="162.9824" x="148.17" y="154.1328">+noColorString(): String</text><text fill="#000000" font-family="sans-serif" font-size="14" lengthAdjust="spacing" textLength="162.2715" x="148.17" y="170.6211">+BLANK(): DisplayName</text><text fill="#000000" font-family="sans-serif" font-size="14" lengthAdjust="spacing" textLength="152.585" x="148.17" y="187.1094">+NULL(): DisplayName</text></g><!--class ValidDisplayName--><g class="entity" data-entity="ValidDisplayName" data-source-line="31" data-uid="ent0004" id="entity_ValidDisplayName"><rect fill="#E6FFE6" filter="url(#fx1mr0a2dwvjl)" height="87.1094" rx="7.5" ry="7.5" style="stroke:#888888;stroke-width:0.5;" width="226.5459" x="21.73" y="270.55"/><ellipse cx="73.5635" cy="289.6164" fill="#ADD1B2" rx="11" ry="11" style="stroke:#181818;stroke-width:1;"/><path d="M76.5366,295.2595 Q75.9556,295.5583 75.3164,295.7077 Q74.6773,295.8571 73.9717,295.8571 Q71.4649,295.8571 70.145,294.2053 Q68.8252,292.5534 68.8252,289.4323 Q68.8252,286.3029 70.145,284.6511 Q71.4649,282.9992 73.9717,282.9992 Q74.6773,282.9992 75.3247,283.1486 Q75.9722,283.298 76.5366,283.5969 L76.5366,286.3195 Q75.9058,285.7385 75.3123,285.4687 Q74.7188,285.1989 74.0879,285.1989 Q72.7432,285.1989 72.0584,286.2656 Q71.3736,287.3322 71.3736,289.4323 Q71.3736,291.5241 72.0584,292.5908 Q72.7432,293.6574 74.0879,293.6574 Q74.7188,293.6574 75.3123,293.3876 Q75.9058,293.1179 76.5366,292.5368 Z " fill="#000000"/><text fill="#000000" font-family="sans-serif" font-size="12" font-style="italic" lengthAdjust="spacing" textLength="79.6934" x="111.4063" y="287.1516">&#171;entity-valid&#187;</text><text fill="#000000" font-family="Helvetica" font-size="14" lengthAdjust="spacing" textLength="114.3789" x="94.0635" y="300.4631">ValidDisplayName</text><line style="stroke:#888888;stroke-width:0.5;" x1="22.73" x2="247.2759" y1="308.6828" y2="308.6828"/><text fill="#000000" font-family="sans-serif" font-size="14" lengthAdjust="spacing" textLength="96.4961" x="27.73" y="326.218">-string: String</text><line style="stroke:#888888;stroke-width:1;" x1="22.73" x2="247.2759" y1="333.1711" y2="333.1711"/><text fill="#000000" font-family="sans-serif" font-size="14" lengthAdjust="spacing" textLength="214.5459" x="27.73" y="350.7062">+toSearchKey(): ValidSearchKey</text></g><!--class InvalidDisplayName--><g class="entity" data-entity="InvalidDisplayName" data-source-line="36" data-uid="ent0005" id="entity_InvalidDisplayName"><rect fill="#FFE6E6" filter="url(#fx1mr0a2dwvjl)" height="120.0859" rx="7.5" ry="7.5" style="stroke:#888888;stroke-width:0.5;" width="247.4365" x="283.28" y="254.06"/><ellipse cx="340.8899" cy="273.1264" fill="#ADD1B2" rx="11" ry="11" style="stroke:#181818;stroke-width:1;"/><path d="M343.863,278.7695 Q343.282,279.0683 342.6428,279.2177 Q342.0036,279.3671 341.2981,279.3671 Q338.7912,279.3671 337.4714,277.7153 Q336.1516,276.0634 336.1516,272.9423 Q336.1516,269.8129 337.4714,268.1611 Q338.7912,266.5092 341.2981,266.5092 Q342.0036,266.5092 342.6511,266.6586 Q343.2986,266.808 343.863,267.1069 L343.863,269.8295 Q343.2321,269.2485 342.6386,268.9787 Q342.0451,268.7089 341.4143,268.7089 Q340.0696,268.7089 339.3847,269.7756 Q338.6999,270.8422 338.6999,272.9423 Q338.6999,275.0341 339.3847,276.1008 Q340.0696,277.1674 341.4143,277.1674 Q342.0451,277.1674 342.6386,276.8976 Q343.2321,276.6279 343.863,276.0468 Z " fill="#000000"/><text fill="#000000" font-family="sans-serif" font-size="12" font-style="italic" lengthAdjust="spacing" textLength="90.6094" x="377.9436" y="270.6616">&#171;entity-invalid&#187;</text><text fill="#000000" font-family="Helvetica" font-size="14" lengthAdjust="spacing" textLength="123.7168" x="361.3899" y="283.9731">InvalidDisplayName</text><line style="stroke:#888888;stroke-width:0.5;" x1="284.28" x2="529.7165" y1="292.1928" y2="292.1928"/><text fill="#000000" font-family="sans-serif" font-size="14" lengthAdjust="spacing" textLength="223.3027" x="289.28" y="309.728">-reason: DisplayNameFailReason</text><text fill="#000000" font-family="sans-serif" font-size="14" lengthAdjust="spacing" textLength="96.4961" x="289.28" y="326.2162">-string: String</text><line style="stroke:#888888;stroke-width:1;" x1="284.28" x2="529.7165" y1="333.1694" y2="333.1694"/><text fill="#000000" font-family="sans-serif" font-size="14" lengthAdjust="spacing" textLength="235.4365" x="289.28" y="350.7045">+reason(): DisplayNameFailReason</text><text fill="#000000" font-family="sans-serif" font-size="14" lengthAdjust="spacing" textLength="108.6299" x="289.28" y="367.1928">+string(): String</text></g><!--reverse link DisplayName to ValidDisplayName--><g class="link" data-entity-1="DisplayName" data-entity-2="ValidDisplayName" data-source-line="46" data-uid="lnk6" id="link_DisplayName_ValidDisplayName"><path codeLine="46" d="M217.5594,199.1785 C198.9294,224.8885 182.28,247.86 166.16,270.11" fill="none" id="DisplayName-backto-ValidDisplayName" style="stroke:#444444;stroke-width:1.2;"/><polygon fill="#444444" points="221.08,194.32,212.5601,199.2607,218.1462,198.3688,219.0381,203.9549,221.08,194.32" style="stroke:#444444;stroke-width:1.2;"/></g><!--reverse link DisplayName to InvalidDisplayName--><g class="link" data-entity-1="DisplayName" data-entity-2="InvalidDisplayName" data-source-line="47" data-uid="lnk7" id="link_DisplayName_InvalidDisplayName"><path codeLine="47" d="M330.3709,199.2971 C343.6609,219.0371 354.44,235.04 367.07,253.79" fill="none" id="DisplayName-backto-InvalidDisplayName" style="stroke:#444444;stroke-width:1.2;"/><polygon fill="#444444" points="327.02,194.32,328.7282,204.0196,329.8124,198.4676,335.3644,199.5518,327.02,194.32" style="stroke:#444444;stroke-width:1.2;"/></g><!--SRC=[bP9HJy8m58NVzojkz46CcH6ZH0cG04ObB9W8clXOkzlHC5hI5WWI_hkqcr06HEsIBUdvUkwzfpk3UhqEJz5Bgnb1V_0HTNfFTYlG8oucH94nV18wIfISYhWjKwdWbDtRnoFqaCHopaK2HatH4_9JIg22ygqdD9MIyzpkngsYE1XoEXAeDPGlhulYenIcpxyGocLFcgmR9GaEk4bnI_ZED2LQMwb7nWWdpvZEq71AJefCqnZ5FwS6ErGAvtDLH60P0BGAsSo7tA3Tbof6bGzuvrQm-ej3hOR2SBDeDE2KCcIChPcZL3WZAOyjYnN6i7BSB-HYmrfopQw284yCOgudALa8cyhI5UJ2e6A48ZnacalCwox3xBe0oKfwdPT8gj1tt_EgVsoN92hHLOYuDhKCRXobgPqWWqhdFzwUBcJx5w8LDNlTqj42lRSeEgIkt3kxf7SRsw4GDk5lemXXDuUj47fLZUmZKNJOnOKjxWfiTlRgTxABEzZ1zbBz7XGIBSNEL8-4fwzk-v-zPbw5Z0wuNUHkXLjOsR_i3EC4TR0pGHZk1Ri7x4yUV0C0]--></g></svg>