<svg xmlns="http://www.w3.org/2000/svg" xmlns:xlink="http://www.w3.org/1999/xlink" contentStyleType="text/css" data-diagram-type="CLASS" height="355px" preserveAspectRatio="none" style="width:558px;height:355px;background:#F9F9F9;" version="1.1" viewBox="0 0 558 355" width="558px" zoomAndPan="magnify"><defs><filter height="300%" id="f1f7s1rduyols0" width="300%" x="-1" y="-1"><feGaussianBlur result="blurOut" stdDeviation="2"/><feColorMatrix in="blurOut" result="blurOut2" type="matrix" values="0 0 0 0 0 0 0 0 0 0 0 0 0 0 0 0 0 0 .4 0"/><feOffset dx="4" dy="4" in="blurOut2" result="blurOut3"/><feBlend in="SourceGraphic" in2="blurOut3" mode="normal"/></filter></defs><g><rect fill="#F9F9F9" height="355" style="stroke:none;stroke-width:1;" width="558" x="0" y="0"/><!--cluster discovery--><g class="cluster" data-entity="discovery" data-source-line="23" data-uid="ent0002" id="cluster_discovery"><path d="M13.5,6 L73.6729,6 A11.25,11.25 0 0 1 81.1729,13.5 L88.1729,28.4883 L536.5,28.4883 A7.5,7.5 0 0 1 544,35.9883 L544,333.18 A7.5,7.5 0 0 1 536.5,340.68 L13.5,340.68 A7.5,7.5 0 0 1 6,333.18 L6,13.5 A7.5,7.5 0 0 1 13.5,6" fill="none" filter="url(#f1f7s1rduyols0)" style="stroke:#000000;stroke-width:1.5;"/><line style="stroke:#000000;stroke-width:1.5;" x1="6" x2="88.1729" y1="28.4883" y2="28.4883"/><text fill="#000000" font-family="sans-serif" font-size="14" font-weight="bold" lengthAdjust="spacing" textLength="69.1729" x="10" y="21.5352">discovery</text></g><!--class Discovery--><g class="entity" data-entity="Discovery" data-source-line="24" data-uid="ent0003" id="entity_Discovery"><rect fill="#CFEFFF" filter="url(#f1f7s1rduyols0)" height="87.1094" rx="7.5" ry="7.5" style="stroke:#888888;stroke-width:0.5;" width="505.1719" x="22.41" y="41"/><ellipse cx="240.0184" cy="60.0664" fill="#B4A7E5" rx="11" ry="11" style="stroke:#181818;stroke-width:1;"/><path d="M235.9461,55.8315 L235.9461,53.6733 L243.3255,53.6733 L243.3255,55.8315 L240.8602,55.8315 L240.8602,63.9082 L243.3255,63.9082 L243.3255,66.0664 L235.9461,66.0664 L235.9461,63.9082 L238.4115,63.9082 L238.4115,55.8315 Z " fill="#000000"/><text fill="#000000" font-family="sans-serif" font-size="12" font-style="italic" lengthAdjust="spacing" textLength="45.4219" x="268.535" y="57.6016">&#171;entity&#187;</text><text fill="#000000" font-family="Helvetica" font-size="14" font-style="italic" lengthAdjust="spacing" textLength="61.4551" x="260.5184" y="70.9131">Discovery</text><line style="stroke:#888888;stroke-width:0.5;" x1="23.41" x2="526.5819" y1="79.1328" y2="79.1328"/><line style="stroke:#888888;stroke-width:0.5;" x1="23.41" x2="526.5819" y1="87.1328" y2="87.1328"/><text fill="#000000" font-family="sans-serif" font-size="14" lengthAdjust="spacing" textLength="356.1592" x="28.41" y="104.668">+of(graveyardUid: UUID, playerUid: UUID): Discovery</text><text fill="#000000" font-family="sans-serif" font-size="14" lengthAdjust="spacing" textLength="493.1719" x="28.41" y="121.1563">+of(graveyardUid: UUID, playerUid: UUID, timeStamp: Instant): Discovery</text></g><!--class ValidDiscovery--><g class="entity" data-entity="ValidDiscovery" data-source-line="28" data-uid="ent0004" id="entity_ValidDiscovery"><rect fill="#E6FFE6" filter="url(#f1f7s1rduyols0)" height="136.5742" rx="7.5" ry="7.5" style="stroke:#888888;stroke-width:0.5;" width="164.3936" x="61.8" y="188.11"/><ellipse cx="94.7134" cy="207.1764" fill="#ADD1B2" rx="11" ry="11" style="stroke:#181818;stroke-width:1;"/><path d="M97.6866,212.8195 Q97.1055,213.1183 96.4664,213.2677 Q95.8272,213.4171 95.1216,213.4171 Q92.6148,213.4171 91.295,211.7653 Q89.9751,210.1134 89.9751,206.9923 Q89.9751,203.8629 91.295,202.2111 Q92.6148,200.5592 95.1216,200.5592 Q95.8272,200.5592 96.4747,200.7086 Q97.1221,200.858 97.6866,201.1569 L97.6866,203.8795 Q97.0557,203.2985 96.4622,203.0287 Q95.8687,202.7589 95.2378,202.7589 Q93.8931,202.7589 93.2083,203.8256 Q92.5235,204.8922 92.5235,206.9923 Q92.5235,209.0841 93.2083,210.1508 Q93.8931,211.2174 95.2378,211.2174 Q95.8687,211.2174 96.4622,210.9476 Q97.0557,210.6779 97.6866,210.0968 Z " fill="#000000"/><text fill="#000000" font-family="sans-serif" font-size="12" font-style="italic" lengthAdjust="spacing" textLength="79.6934" x="119.1405" y="204.7116">&#171;entity-valid&#187;</text><text fill="#000000" font-family="Helvetica" font-size="14" lengthAdjust="spacing" textLength="92.5859" x="112.6942" y="218.0231">ValidDiscovery</text><line style="stroke:#888888;stroke-width:0.5;" x1="62.8" x2="225.1936" y1="226.2428" y2="226.2428"/><text fill="#000000" font-family="sans-serif" font-size="14" lengthAdjust="spacing" textLength="140.2598" x="67.8" y="243.778">-graveyardUid: UUID</text><text fill="#000000" font-family="sans-serif" font-size="14" lengthAdjust="spacing" textLength="114.8711" x="67.8" y="260.2663">-playerUid: UUID</text><text fill="#000000" font-family="sans-serif" font-size="14" lengthAdjust="spacing" textLength="135.8506" x="67.8" y="276.7545">-timestamp: Instant</text><line style="stroke:#888888;stroke-width:1;" x1="62.8" x2="225.1936" y1="283.7077" y2="283.7077"/><text fill="#000000" font-family="sans-serif" font-size="14" lengthAdjust="spacing" textLength="152.3936" x="67.8" y="301.2428">+graveyardUid(): UUID</text><text fill="#000000" font-family="sans-serif" font-size="14" lengthAdjust="spacing" textLength="127.0049" x="67.8" y="317.7311">+playerUid(): UUID</text></g><!--class InvalidDiscovery--><g class="entity" data-entity="InvalidDiscovery" data-source-line="36" data-uid="ent0005" id="entity_InvalidDiscovery"><rect fill="#FFE6E6" filter="url(#f1f7s1rduyols0)" height="120.0859" rx="7.5" ry="7.5" style="stroke:#888888;stroke-width:0.5;" width="225.8965" x="261.05" y="196.35"/><ellipse cx="318.7863" cy="215.4164" fill="#ADD1B2" rx="11" ry="11" style="stroke:#181818;stroke-width:1;"/><path d="M321.7595,221.0595 Q321.1784,221.3583 320.5393,221.5077 Q319.9001,221.6571 319.1945,221.6571 Q316.6877,221.6571 315.3679,220.0053 Q314.048,218.3534 314.048,215.2323 Q314.048,212.1029 315.3679,210.4511 Q316.6877,208.7992 319.1945,208.7992 Q319.9001,208.7992 320.5476,208.9486 Q321.195,209.098 321.7595,209.3969 L321.7595,212.1195 Q321.1286,211.5385 320.5351,211.2687 Q319.9416,210.9989 319.3107,210.9989 Q317.966,210.9989 317.2812,212.0656 Q316.5964,213.1322 316.5964,215.2323 Q316.5964,217.3241 317.2812,218.3908 Q317.966,219.4574 319.3107,219.4574 Q319.9416,219.4574 320.5351,219.1876 Q321.1286,218.9179 321.7595,218.3368 Z " fill="#000000"/><text fill="#000000" font-family="sans-serif" font-size="12" font-style="italic" lengthAdjust="spacing" textLength="90.6094" x="344.9436" y="212.9516">&#171;entity-invalid&#187;</text><text fill="#000000" font-family="Helvetica" font-size="14" lengthAdjust="spacing" textLength="101.9238" x="339.2863" y="226.2631">InvalidDiscovery</text><line style="stroke:#888888;stroke-width:0.5;" x1="262.05" x2="485.9465" y1="234.4828" y2="234.4828"/><text fill="#000000" font-family="sans-serif" font-size="14" lengthAdjust="spacing" textLength="201.7627" x="267.05" y="252.018">-discoveryFailReason: Reason</text><text fill="#000000" font-family="sans-serif" font-size="14" lengthAdjust="spacing" textLength="155.1621" x="267.05" y="268.5063">-parameter: Parameter</text><line style="stroke:#888888;stroke-width:1;" x1="262.05" x2="485.9465" y1="275.4594" y2="275.4594"/><text fill="#000000" font-family="sans-serif" font-size="14" lengthAdjust="spacing" textLength="213.8965" x="267.05" y="292.9945">+discoveryFailReason(): Reason</text><text fill="#000000" font-family="sans-serif" font-size="14" lengthAdjust="spacing" textLength="167.2959" x="267.05" y="309.4828">+parameter(): Parameter</text></g><!--reverse link Discovery to ValidDiscovery--><g class="link" data-entity-1="Discovery" data-entity-2="ValidDiscovery" data-source-line="43" data-uid="lnk6" id="link_Discovery_ValidDiscovery"><path codeLine="43" d="M238.2752,133.1607 C224.4052,151.1407 211.6,167.74 196.17,187.76" fill="none" id="Discovery-backto-ValidDiscovery" style="stroke:#444444;stroke-width:1.2;"/><polygon fill="#444444" points="241.94,128.41,233.2757,133.0929,238.886,132.3689,239.61,137.9793,241.94,128.41" style="stroke:#444444;stroke-width:1.2;"/></g><!--reverse link Discovery to InvalidDiscovery--><g class="link" data-entity-1="Discovery" data-entity-2="InvalidDiscovery" data-source-line="44" data-uid="lnk7" id="link_Discovery_InvalidDiscovery"><path codeLine="44" d="M303.0026,133.593 C314.9226,154.033 326.35,173.64 339.31,195.87" fill="none" id="Discovery-backto-InvalidDiscovery" style="stroke:#444444;stroke-width:1.2;"/><polygon fill="#444444" points="299.98,128.41,301.0585,138.1996,302.4988,132.7292,307.9693,134.1695,299.98,128.41" style="stroke:#444444;stroke-width:1.2;"/></g><!--SRC=[bL9XIyCm4FtUNt7e1vLPSQAYnGbJKGj3nMs27y_sieLroKYoZIdxxpRjRBDiWgRGbdilB-_TPGzQhHOyT9vlsXtezjuxyTE3BGLwnCK45OxX0vFHGCcfI6zb9XNiialxE0mzn5JEkHY0KLDoWDKk9KX1yym1sah9-Khkj5W-s1loP2H8QsWUdVZWlHIcopy9caq7ckH6SK0zRZAg6Qvoag7M5dh2CS7E8sKpCZp17P_JDaRnZwcXE96Yq3dsAV0L0DnulPaFkI5RboebjGfuKQnW-HU5goiIXfl5zJNi9emOOpddLrOumuodbaldZD7vxteX5nNNCdFkCWY2LSiWvJgHCrABmXC05uOKmuJWha8SQoN9hWP8jZzGEAC5ghJFqmZw_VZk42OPBaXLXOEeLlhtvaCmV4nTW-D91B7G1eNP45mMxxAnRpRgflEgNRN_43RFTq3FY8DOHthDKGs6Ja9NVl_0asdK1wnXRfQu7DoMDFL8tJpLAE-HPw-4Mee8ogyRp5v3oeSSmSlFx_O0M_IiLq-nKIjQT5spZECa24DlH5i8Vkxyldu3]--></g></svg>
