<svg xmlns="http://www.w3.org/2000/svg" xmlns:xlink="http://www.w3.org/1999/xlink" contentStyleType="text/css" data-diagram-type="CLASS" height="538px" preserveAspectRatio="none" style="width:657px;height:538px;background:#F9F9F9;" version="1.1" viewBox="0 0 657 538" width="657px" zoomAndPan="magnify"><defs><filter height="300%" id="f1hlja2nyifvb6" width="300%" x="-1" y="-1"><feGaussianBlur result="blurOut" stdDeviation="2"/><feColorMatrix in="blurOut" result="blurOut2" type="matrix" values="0 0 0 0 0 0 0 0 0 0 0 0 0 0 0 0 0 0 .4 0"/><feOffset dx="4" dy="4" in="blurOut2" result="blurOut3"/><feBlend in="SourceGraphic" in2="blurOut3" mode="normal"/></filter></defs><g><rect fill="#F9F9F9" height="538" style="stroke:none;stroke-width:1;" width="657" x="0" y="0"/><!--cluster SavageGraveyards--><g class="cluster" data-entity="SavageGraveyards" data-source-line="23" data-uid="ent0002" id="cluster_SavageGraveyards"><path d="M13.5,6 L136.1943,6 A11.25,11.25 0 0 1 143.6943,13.5 L150.6943,28.4883 L635.5,28.4883 A7.5,7.5 0 0 1 643,35.9883 L643,516.65 A7.5,7.5 0 0 1 635.5,524.15 L13.5,524.15 A7.5,7.5 0 0 1 6,516.65 L6,13.5 A7.5,7.5 0 0 1 13.5,6" fill="none" filter="url(#f1hlja2nyifvb6)" style="stroke:#000000;stroke-width:1.5;"/><line style="stroke:#000000;stroke-width:1.5;" x1="6" x2="150.6943" y1="28.4883" y2="28.4883"/><text fill="#000000" font-family="sans-serif" font-size="14" font-weight="bold" lengthAdjust="spacing" textLength="131.6943" x="10" y="21.5352">SavageGraveyards</text></g><!--cluster models--><g class="cluster" data-entity="models" data-source-line="24" data-uid="ent0003" id="cluster_models"><path d="M37.5,49 L80.9658,49 A11.25,11.25 0 0 1 88.4658,56.5 L95.4658,71.4883 L611.5,71.4883 A7.5,7.5 0 0 1 619,78.9883 L619,492.65 A7.5,7.5 0 0 1 611.5,500.15 L37.5,500.15 A7.5,7.5 0 0 1 30,492.65 L30,56.5 A7.5,7.5 0 0 1 37.5,49" fill="none" filter="url(#f1hlja2nyifvb6)" style="stroke:#000000;stroke-width:1.5;"/><line style="stroke:#000000;stroke-width:1.5;" x1="30" x2="95.4658" y1="71.4883" y2="71.4883"/><text fill="#000000" font-family="sans-serif" font-size="14" font-weight="bold" lengthAdjust="spacing" textLength="52.4658" x="34" y="64.5352">models</text></g><!--cluster displayname--><g class="cluster" data-entity="displayname" data-source-line="25" data-uid="ent0004" id="cluster_displayname"><path d="M61.5,92 L143.6709,92 A11.25,11.25 0 0 1 151.1709,99.5 L158.1709,114.4883 L587.5,114.4883 A7.5,7.5 0 0 1 595,121.9883 L595,468.65 A7.5,7.5 0 0 1 587.5,476.15 L61.5,476.15 A7.5,7.5 0 0 1 54,468.65 L54,99.5 A7.5,7.5 0 0 1 61.5,92" fill="none" filter="url(#f1hlja2nyifvb6)" style="stroke:#000000;stroke-width:1.5;"/><line style="stroke:#000000;stroke-width:1.5;" x1="54" x2="158.1709" y1="114.4883" y2="114.4883"/><text fill="#000000" font-family="sans-serif" font-size="14" font-weight="bold" lengthAdjust="spacing" textLength="91.1709" x="58" y="107.5352">displayname</text></g><!--class DisplayName--><g class="entity" data-entity="DisplayName" data-source-line="26" data-uid="ent0005" id="entity_DisplayName"><rect fill="#CFEFFF" filter="url(#f1hlja2nyifvb6)" height="153.0625" rx="7.5" ry="7.5" style="stroke:#888888;stroke-width:0.5;" width="267.6572" x="190.17" y="127"/><ellipse cx="278.1246" cy="146.0664" fill="#B4A7E5" rx="11" ry="11" style="stroke:#181818;stroke-width:1;"/><path d="M274.0523,141.8315 L274.0523,139.6733 L281.4317,139.6733 L281.4317,141.8315 L278.9664,141.8315 L278.9664,149.9082 L281.4317,149.9082 L281.4317,152.0664 L274.0523,152.0664 L274.0523,149.9082 L276.5177,149.9082 L276.5177,141.8315 Z " fill="#000000"/><text fill="#000000" font-family="sans-serif" font-size="12" font-style="italic" lengthAdjust="spacing" textLength="45.4219" x="317.5377" y="143.6016">&#171;entity&#187;</text><text fill="#000000" font-family="Helvetica" font-size="14" font-style="italic" lengthAdjust="spacing" textLength="83.248" x="298.6246" y="156.9131">DisplayName</text><line style="stroke:#888888;stroke-width:0.5;" x1="191.17" x2="456.8272" y1="165.1328" y2="165.1328"/><line style="stroke:#888888;stroke-width:0.5;" x1="191.17" x2="456.8272" y1="173.1328" y2="173.1328"/><text fill="#000000" font-family="sans-serif" font-size="14" lengthAdjust="spacing" textLength="219.7549" x="196.17" y="190.668">+of(string: String): DisplayName</text><text fill="#000000" font-family="sans-serif" font-size="14" lengthAdjust="spacing" textLength="255.6572" x="196.17" y="207.1563">+of(args: List&lt;String&gt;): DisplayName</text><text fill="#000000" font-family="sans-serif" font-size="14" lengthAdjust="spacing" textLength="143.1787" x="196.17" y="223.6445">+colorString(): String</text><text fill="#000000" font-family="sans-serif" font-size="14" lengthAdjust="spacing" textLength="162.9824" x="196.17" y="240.1328">+noColorString(): String</text><text fill="#000000" font-family="sans-serif" font-size="14" lengthAdjust="spacing" textLength="162.2715" x="196.17" y="256.6211">+BLANK(): DisplayName</text><text fill="#000000" font-family="sans-serif" font-size="14" lengthAdjust="spacing" textLength="152.585" x="196.17" y="273.1094">+NULL(): DisplayName</text></g><!--class ValidDisplayName--><g class="entity" data-entity="ValidDisplayName" data-source-line="34" data-uid="ent0006" id="entity_ValidDisplayName"><rect fill="#E6FFE6" filter="url(#f1hlja2nyifvb6)" height="87.1094" rx="7.5" ry="7.5" style="stroke:#888888;stroke-width:0.5;" width="226.5459" x="69.73" y="356.55"/><ellipse cx="121.5635" cy="375.6164" fill="#ADD1B2" rx="11" ry="11" style="stroke:#181818;stroke-width:1;"/><path d="M124.5366,381.2595 Q123.9556,381.5583 123.3164,381.7077 Q122.6773,381.8571 121.9717,381.8571 Q119.4649,381.8571 118.145,380.2053 Q116.8252,378.5534 116.8252,375.4323 Q116.8252,372.3029 118.145,370.6511 Q119.4649,368.9992 121.9717,368.9992 Q122.6773,368.9992 123.3247,369.1486 Q123.9722,369.298 124.5366,369.5969 L124.5366,372.3195 Q123.9058,371.7385 123.3123,371.4687 Q122.7188,371.1989 122.0879,371.1989 Q120.7432,371.1989 120.0584,372.2656 Q119.3736,373.3322 119.3736,375.4323 Q119.3736,377.5241 120.0584,378.5908 Q120.7432,379.6574 122.0879,379.6574 Q122.7188,379.6574 123.3123,379.3876 Q123.9058,379.1179 124.5366,378.5368 Z " fill="#000000"/><text fill="#000000" font-family="sans-serif" font-size="12" font-style="italic" lengthAdjust="spacing" textLength="79.6934" x="159.4063" y="373.1516">&#171;entity-valid&#187;</text><text fill="#000000" font-family="Helvetica" font-size="14" lengthAdjust="spacing" textLength="114.3789" x="142.0635" y="386.4631">ValidDisplayName</text><line style="stroke:#888888;stroke-width:0.5;" x1="70.73" x2="295.2759" y1="394.6828" y2="394.6828"/><text fill="#000000" font-family="sans-serif" font-size="14" lengthAdjust="spacing" textLength="96.4961" x="75.73" y="412.218">-string: String</text><line style="stroke:#888888;stroke-width:1;" x1="70.73" x2="295.2759" y1="419.1711" y2="419.1711"/><text fill="#000000" font-family="sans-serif" font-size="14" lengthAdjust="spacing" textLength="214.5459" x="75.73" y="436.7062">+toSearchKey(): ValidSearchKey</text></g><!--class InvalidDisplayName--><g class="entity" data-entity="InvalidDisplayName" data-source-line="39" data-uid="ent0007" id="entity_InvalidDisplayName"><rect fill="#FFE6E6" filter="url(#f1hlja2nyifvb6)" height="120.0859" rx="7.5" ry="7.5" style="stroke:#888888;stroke-width:0.5;" width="247.4365" x="331.28" y="340.06"/><ellipse cx="388.8899" cy="359.1264" fill="#ADD1B2" rx="11" ry="11" style="stroke:#181818;stroke-width:1;"/><path d="M391.863,364.7695 Q391.282,365.0683 390.6428,365.2177 Q390.0036,365.3671 389.2981,365.3671 Q386.7912,365.3671 385.4714,363.7153 Q384.1516,362.0634 384.1516,358.9423 Q384.1516,355.8129 385.4714,354.1611 Q386.7912,352.5092 389.2981,352.5092 Q390.0036,352.5092 390.6511,352.6586 Q391.2986,352.808 391.863,353.1069 L391.863,355.8295 Q391.2321,355.2485 390.6386,354.9787 Q390.0451,354.7089 389.4143,354.7089 Q388.0696,354.7089 387.3847,355.7756 Q386.6999,356.8422 386.6999,358.9423 Q386.6999,361.0341 387.3847,362.1008 Q388.0696,363.1674 389.4143,363.1674 Q390.0451,363.1674 390.6386,362.8976 Q391.2321,362.6279 391.863,362.0468 Z " fill="#000000"/><text fill="#000000" font-family="sans-serif" font-size="12" font-style="italic" lengthAdjust="spacing" textLength="90.6094" x="425.9436" y="356.6616">&#171;entity-invalid&#187;</text><text fill="#000000" font-family="Helvetica" font-size="14" lengthAdjust="spacing" textLength="123.7168" x="409.3899" y="369.9731">InvalidDisplayName</text><line style="stroke:#888888;stroke-width:0.5;" x1="332.28" x2="577.7165" y1="378.1928" y2="378.1928"/><text fill="#000000" font-family="sans-serif" font-size="14" lengthAdjust="spacing" textLength="223.3027" x="337.28" y="395.728">-reason: DisplayNameFailReason</text><text fill="#000000" font-family="sans-serif" font-size="14" lengthAdjust="spacing" textLength="96.4961" x="337.28" y="412.2162">-string: String</text><line style="stroke:#888888;stroke-width:1;" x1="332.28" x2="577.7165" y1="419.1694" y2="419.1694"/><text fill="#000000" font-family="sans-serif" font-size="14" lengthAdjust="spacing" textLength="235.4365" x="337.28" y="436.7045">+reason(): DisplayNameFailReason</text><text fill="#000000" font-family="sans-serif" font-size="14" lengthAdjust="spacing" textLength="108.6299" x="337.28" y="453.1928">+string(): String</text></g><!--reverse link DisplayName to ValidDisplayName--><g class="link" data-entity-1="DisplayName" data-entity-2="ValidDisplayName" data-source-line="51" data-uid="lnk8" id="link_DisplayName_ValidDisplayName"><path codeLine="51" d="M265.5594,285.1785 C246.9294,310.8885 230.28,333.86 214.16,356.11" fill="none" id="DisplayName-backto-ValidDisplayName" style="stroke:#444444;stroke-width:1.2;"/><polygon fill="#444444" points="269.08,280.32,260.5601,285.2607,266.1462,284.3688,267.0381,289.9549,269.08,280.32" style="stroke:#444444;stroke-width:1.2;"/></g><!--reverse link DisplayName to InvalidDisplayName--><g class="link" data-entity-1="DisplayName" data-entity-2="InvalidDisplayName" data-source-line="52" data-uid="lnk9" id="link_DisplayName_InvalidDisplayName"><path codeLine="52" d="M378.3709,285.2971 C391.6609,305.0371 402.44,321.04 415.07,339.79" fill="none" id="DisplayName-backto-InvalidDisplayName" style="stroke:#444444;stroke-width:1.2;"/><polygon fill="#444444" points="375.02,280.32,376.7282,290.0196,377.8124,284.4676,383.3644,285.5518,375.02,280.32" style="stroke:#444444;stroke-width:1.2;"/></g><!--SRC=[hPFVRzem4CVVyrUSseTILPb6jLKj0YHeLOOQKQbXa_PuJSx18jZ8DY0syRylJWBa5wKFkpmukVlS3t_jN46lruEHzpeSUE1FVtlZoSYw73tdOeaA5_2EmJnISYN2HnbB1PVimJu5Giymb1ik8Z1gHOL0dgK4AMX_BmG6IibDNkvRQjNWTCQ3kI2jeVtbjXfybiBu_0z1krq8BPD1CQ8fDp4TYMBb84QjRMY22uAB7nIloV00BwhCm1Z5trU6ne4KQPslLGJ-EW33YZQR6JTa_LA5fF8DtgVcx3vJeTibORZPzljm6J1YZ2NCISfTOyn3oz8TOtHtkfxBnO6rPCBk7CV99GCVryaoKhYcBQem6mtsYi92XXJldSL0oFKongsmSXwZrhWmf1W614yPaqfUs5uPjtO3ahLq8ho8Ek2dwtMdcDwSWIhI7V2uDjqigNysAx3IP73hUj-hWHFoyPFaq1jCNbfd6qz-Ujv7rAxqbTsIN_RScaGyd7vTIXVAEjO1js4w8tr25SnUQ6k7J1iVF6Vd76Sth77Iu-rhcbKHQYbAgZmZZzzIzt_QMzQZelq7NMxoBYTE_IX0zhQplzCLXH5ffwI0wzOEi0RKbNF-0G00]--></g></svg>