<svg xmlns="http://www.w3.org/2000/svg" xmlns:xlink="http://www.w3.org/1999/xlink" contentStyleType="text/css" data-diagram-type="CLASS" height="474px" preserveAspectRatio="none" style="width:373px;height:474px;background:#FFFFFF;" version="1.1" viewBox="0 0 373 474" width="373px" zoomAndPan="magnify"><defs/><g><!--cluster world--><g class="cluster" data-entity="world" data-source-line="1" data-uid="ent0002" id="cluster_world"><path d="M8.5,6 L53.7764,6 A3.75,3.75 0 0 1 56.2764,8.5 L63.2764,28.2969 L363.5,28.2969 A2.5,2.5 0 0 1 366,30.7969 L366,465.17 A2.5,2.5 0 0 1 363.5,467.67 L8.5,467.67 A2.5,2.5 0 0 1 6,465.17 L6,8.5 A2.5,2.5 0 0 1 8.5,6" fill="none" style="stroke:#000000;stroke-width:1.5;"/><line style="stroke:#000000;stroke-width:1.5;" x1="6" x2="63.2764" y1="28.2969" y2="28.2969"/><text fill="#000000" font-family="sans-serif" font-size="14" font-weight="bold" lengthAdjust="spacing" textLength="44.2764" x="10" y="20.9951">world</text></g><!--class ValidatedWorld--><g class="entity" data-entity="ValidatedWorld" data-source-line="2" data-uid="ent0003" id="entity_ValidatedWorld"><rect fill="#F1F1F1" height="96.8906" rx="2.5" ry="2.5" style="stroke:#181818;stroke-width:0.5;" width="327.9707" x="22.01" y="41"/><ellipse cx="128.0798" cy="57" fill="#B4A7E5" rx="11" ry="11" style="stroke:#181818;stroke-width:1;"/><path d="M124.0017,52.7656 L124.0017,50.6094 L131.3923,50.6094 L131.3923,52.7656 L128.9236,52.7656 L128.9236,60.8438 L131.3923,60.8438 L131.3923,63 L124.0017,63 L124.0017,60.8438 L126.4704,60.8438 L126.4704,52.7656 L124.0017,52.7656 Z " fill="#000000"/><text fill="#000000" font-family="sans-serif" font-size="14" font-style="italic" lengthAdjust="spacing" textLength="107.3311" x="148.5798" y="61.8467">ValidatedWorld</text><line style="stroke:#181818;stroke-width:0.5;" x1="23.01" x2="348.9807" y1="73" y2="73"/><line style="stroke:#181818;stroke-width:0.5;" x1="23.01" x2="348.9807" y1="81" y2="81"/><ellipse cx="33.01" cy="94.6484" fill="#84BE84" rx="3" ry="3" style="stroke:#038048;stroke-width:1;"/><text fill="#000000" font-family="sans-serif" font-size="14" lengthAdjust="spacing" textLength="206.0898" x="42.01" y="97.9951">of(player: Player): ValidWorld</text><ellipse cx="33.01" cy="110.9453" fill="#84BE84" rx="3" ry="3" style="stroke:#038048;stroke-width:1;"/><text fill="#000000" font-family="sans-serif" font-size="14" lengthAdjust="spacing" textLength="229.5713" x="42.01" y="114.292">of(world: World): ValidatedWorld</text><ellipse cx="33.01" cy="127.2422" fill="#84BE84" rx="3" ry="3" style="stroke:#038048;stroke-width:1;"/><text fill="#000000" font-family="sans-serif" font-size="14" lengthAdjust="spacing" textLength="301.9707" x="42.01" y="130.5889">of(name: String, uid: UUID) ValidatedWorld</text></g><!--class ValidWorld--><g class="entity" data-entity="ValidWorld" data-source-line="9" data-uid="ent0004" id="entity_ValidWorld"><rect fill="#F1F1F1" height="80.5938" rx="2.5" ry="2.5" style="stroke:#181818;stroke-width:0.5;" width="127.5752" x="43.21" y="197.89"/><ellipse cx="67.1256" cy="213.89" fill="#B4A7E5" rx="11" ry="11" style="stroke:#181818;stroke-width:1;"/><path d="M63.0475,209.6556 L63.0475,207.4994 L70.4381,207.4994 L70.4381,209.6556 L67.9694,209.6556 L67.9694,217.7338 L70.4381,217.7338 L70.4381,219.89 L63.0475,219.89 L63.0475,217.7338 L65.5163,217.7338 L65.5163,209.6556 L63.0475,209.6556 Z " fill="#000000"/><text fill="#000000" font-family="sans-serif" font-size="14" font-style="italic" lengthAdjust="spacing" textLength="75.7627" x="83.1069" y="218.7367">ValidWorld</text><line style="stroke:#181818;stroke-width:0.5;" x1="44.21" x2="169.7852" y1="229.89" y2="229.89"/><line style="stroke:#181818;stroke-width:0.5;" x1="44.21" x2="169.7852" y1="237.89" y2="237.89"/><ellipse cx="54.21" cy="251.5384" fill="#84BE84" rx="3" ry="3" style="stroke:#038048;stroke-width:1;"/><text fill="#000000" font-family="sans-serif" font-size="14" lengthAdjust="spacing" textLength="101.5752" x="63.21" y="254.8851">name(): String</text><ellipse cx="54.21" cy="267.8353" fill="#84BE84" rx="3" ry="3" style="stroke:#038048;stroke-width:1;"/><text fill="#000000" font-family="sans-serif" font-size="14" lengthAdjust="spacing" textLength="77.1436" x="63.21" y="271.182">uid(): UUID</text></g><!--class InvalidWorld--><g class="entity" data-entity="InvalidWorld" data-source-line="15" data-uid="ent0005" id="entity_InvalidWorld"><rect fill="#F1F1F1" height="80.5938" rx="2.5" ry="2.5" style="stroke:#181818;stroke-width:0.5;" width="127.5752" x="206.21" y="197.89"/><ellipse cx="224.8561" cy="213.89" fill="#ADD1B2" rx="11" ry="11" style="stroke:#181818;stroke-width:1;"/><path d="M227.8249,219.5306 Q227.2468,219.8275 226.6061,219.9681 Q225.9655,220.1244 225.2624,220.1244 Q222.7624,220.1244 221.4343,218.4838 Q220.1218,216.8275 220.1218,213.7025 Q220.1218,210.5775 221.4343,208.9213 Q222.7624,207.265 225.2624,207.265 Q225.9655,207.265 226.6061,207.4213 Q227.2624,207.5775 227.8249,207.8744 L227.8249,210.5931 Q227.1999,210.015 226.6061,209.7494 Q226.0124,209.4681 225.3874,209.4681 Q224.0436,209.4681 223.3561,210.5463 Q222.6686,211.6088 222.6686,213.7025 Q222.6686,215.7963 223.3561,216.8744 Q224.0436,217.9369 225.3874,217.9369 Q226.0124,217.9369 226.6061,217.6713 Q227.1999,217.39 227.8249,216.8119 L227.8249,219.5306 Z " fill="#000000"/><text fill="#000000" font-family="sans-serif" font-size="14" lengthAdjust="spacing" textLength="87.4727" x="239.6664" y="218.7367">InvalidWorld</text><line style="stroke:#181818;stroke-width:0.5;" x1="207.21" x2="332.7852" y1="229.89" y2="229.89"/><line style="stroke:#181818;stroke-width:0.5;" x1="207.21" x2="332.7852" y1="237.89" y2="237.89"/><ellipse cx="217.21" cy="251.5384" fill="#84BE84" rx="3" ry="3" style="stroke:#038048;stroke-width:1;"/><text fill="#000000" font-family="sans-serif" font-size="14" lengthAdjust="spacing" textLength="101.5752" x="226.21" y="254.8851">name(): String</text><ellipse cx="217.21" cy="267.8353" fill="#84BE84" rx="3" ry="3" style="stroke:#038048;stroke-width:1;"/><text fill="#000000" font-family="sans-serif" font-size="14" lengthAdjust="spacing" textLength="77.1436" x="226.21" y="271.182">uid(): UUID</text></g><!--class AvailableWorld--><g class="entity" data-entity="AvailableWorld" data-source-line="21" data-uid="ent0006" id="entity_AvailableWorld"><rect fill="#F1F1F1" height="113.1875" rx="2.5" ry="2.5" style="stroke:#181818;stroke-width:0.5;" width="137.1299" x="22.44" y="338.48"/><ellipse cx="37.44" cy="354.48" fill="#ADD1B2" rx="11" ry="11" style="stroke:#181818;stroke-width:1;"/><path d="M40.4088,360.1206 Q39.8306,360.4175 39.19,360.5581 Q38.5494,360.7144 37.8463,360.7144 Q35.3463,360.7144 34.0181,359.0738 Q32.7056,357.4175 32.7056,354.2925 Q32.7056,351.1675 34.0181,349.5113 Q35.3463,347.855 37.8463,347.855 Q38.5494,347.855 39.19,348.0113 Q39.8463,348.1675 40.4088,348.4644 L40.4088,351.1831 Q39.7838,350.605 39.19,350.3394 Q38.5963,350.0581 37.9713,350.0581 Q36.6275,350.0581 35.94,351.1363 Q35.2525,352.1988 35.2525,354.2925 Q35.2525,356.3863 35.94,357.4644 Q36.6275,358.5269 37.9713,358.5269 Q38.5963,358.5269 39.19,358.2613 Q39.7838,357.98 40.4088,357.4019 L40.4088,360.1206 Z " fill="#000000"/><text fill="#000000" font-family="sans-serif" font-size="14" lengthAdjust="spacing" textLength="105.1299" x="51.44" y="359.3267">AvailableWorld</text><line style="stroke:#181818;stroke-width:0.5;" x1="23.44" x2="158.5699" y1="370.48" y2="370.48"/><rect fill="none" height="6" style="stroke:#C82930;stroke-width:1;" width="6" x="30.44" y="381.1284"/><text fill="#000000" font-family="sans-serif" font-size="14" lengthAdjust="spacing" textLength="90.6514" x="42.44" y="387.4751">name: String</text><rect fill="none" height="6" style="stroke:#C82930;stroke-width:1;" width="6" x="30.44" y="397.4253"/><text fill="#000000" font-family="sans-serif" font-size="14" lengthAdjust="spacing" textLength="66.2197" x="42.44" y="403.772">uid: UUID</text><line style="stroke:#181818;stroke-width:1;" x1="23.44" x2="158.5699" y1="411.0738" y2="411.0738"/><ellipse cx="33.44" cy="424.7222" fill="#84BE84" rx="3" ry="3" style="stroke:#038048;stroke-width:1;"/><text fill="#000000" font-family="sans-serif" font-size="14" lengthAdjust="spacing" textLength="101.5752" x="42.44" y="428.0689">name(): String</text><ellipse cx="33.44" cy="441.0191" fill="#84BE84" rx="3" ry="3" style="stroke:#038048;stroke-width:1;"/><text fill="#000000" font-family="sans-serif" font-size="14" lengthAdjust="spacing" textLength="77.1436" x="42.44" y="444.3657">uid(): UUID</text></g><!--class UnavailableWorld--><g class="entity" data-entity="UnavailableWorld" data-source-line="30" data-uid="ent0007" id="entity_UnavailableWorld"><rect fill="#F1F1F1" height="113.1875" rx="2.5" ry="2.5" style="stroke:#181818;stroke-width:0.5;" width="155.252" x="194.37" y="338.48"/><ellipse cx="209.37" cy="354.48" fill="#ADD1B2" rx="11" ry="11" style="stroke:#181818;stroke-width:1;"/><path d="M212.3388,360.1206 Q211.7606,360.4175 211.12,360.5581 Q210.4794,360.7144 209.7763,360.7144 Q207.2763,360.7144 205.9481,359.0738 Q204.6356,357.4175 204.6356,354.2925 Q204.6356,351.1675 205.9481,349.5113 Q207.2763,347.855 209.7763,347.855 Q210.4794,347.855 211.12,348.0113 Q211.7763,348.1675 212.3388,348.4644 L212.3388,351.1831 Q211.7138,350.605 211.12,350.3394 Q210.5263,350.0581 209.9013,350.0581 Q208.5575,350.0581 207.87,351.1363 Q207.1825,352.1988 207.1825,354.2925 Q207.1825,356.3863 207.87,357.4644 Q208.5575,358.5269 209.9013,358.5269 Q210.5263,358.5269 211.12,358.2613 Q211.7138,357.98 212.3388,357.4019 L212.3388,360.1206 Z " fill="#000000"/><text fill="#000000" font-family="sans-serif" font-size="14" lengthAdjust="spacing" textLength="123.252" x="223.37" y="359.3267">UnavailableWorld</text><line style="stroke:#181818;stroke-width:0.5;" x1="195.37" x2="348.622" y1="370.48" y2="370.48"/><rect fill="none" height="6" style="stroke:#C82930;stroke-width:1;" width="6" x="202.37" y="381.1284"/><text fill="#000000" font-family="sans-serif" font-size="14" lengthAdjust="spacing" textLength="90.6514" x="214.37" y="387.4751">name: String</text><rect fill="none" height="6" style="stroke:#C82930;stroke-width:1;" width="6" x="202.37" y="397.4253"/><text fill="#000000" font-family="sans-serif" font-size="14" lengthAdjust="spacing" textLength="66.2197" x="214.37" y="403.772">uid: UUID</text><line style="stroke:#181818;stroke-width:1;" x1="195.37" x2="348.622" y1="411.0738" y2="411.0738"/><ellipse cx="205.37" cy="424.7222" fill="#84BE84" rx="3" ry="3" style="stroke:#038048;stroke-width:1;"/><text fill="#000000" font-family="sans-serif" font-size="14" lengthAdjust="spacing" textLength="101.5752" x="214.37" y="428.0689">name(): String</text><ellipse cx="205.37" cy="441.0191" fill="#84BE84" rx="3" ry="3" style="stroke:#038048;stroke-width:1;"/><text fill="#000000" font-family="sans-serif" font-size="14" lengthAdjust="spacing" textLength="77.1436" x="214.37" y="444.3657">uid(): UUID</text></g><!--reverse link ValidatedWorld to ValidWorld--><g class="link" data-entity-1="ValidatedWorld" data-entity-2="ValidWorld" data-source-line="40" data-uid="lnk8" id="link_ValidatedWorld_ValidWorld"><path codeLine="40" d="M157.5054,143.3728 C147.1454,162.6128 138.17,179.29 128.29,197.63" fill="none" id="ValidatedWorld-backto-ValidWorld" style="stroke:#181818;stroke-width:1;"/><polygon fill="#181818" points="160.35,138.09,152.5612,144.1178,157.9795,142.4924,159.605,147.9106,160.35,138.09" style="stroke:#181818;stroke-width:1;"/></g><!--reverse link ValidWorld to AvailableWorld--><g class="link" data-entity-1="ValidWorld" data-entity-2="AvailableWorld" data-source-line="41" data-uid="lnk9" id="link_ValidWorld_AvailableWorld"><path codeLine="41" d="M102.304,284.6383 C100.444,302.6583 98.82,318.34 96.79,338.01" fill="none" id="ValidWorld-backto-AvailableWorld" style="stroke:#181818;stroke-width:1;"/><polygon fill="#181818" points="102.92,278.67,98.0171,287.2117,102.4066,283.6436,105.9748,288.0331,102.92,278.67" style="stroke:#181818;stroke-width:1;"/></g><!--reverse link ValidWorld to UnavailableWorld--><g class="link" data-entity-1="ValidWorld" data-entity-2="UnavailableWorld" data-source-line="42" data-uid="lnk10" id="link_ValidWorld_UnavailableWorld"><path codeLine="42" d="M153.4339,282.7772 C172.6239,300.7972 191.32,318.34 212.27,338.01" fill="none" id="ValidWorld-backto-UnavailableWorld" style="stroke:#181818;stroke-width:1;"/><polygon fill="#181818" points="149.06,278.67,152.8827,287.7467,152.7049,282.0927,158.359,281.9149,149.06,278.67" style="stroke:#181818;stroke-width:1;"/></g><!--reverse link ValidatedWorld to InvalidWorld--><g class="link" data-entity-1="ValidatedWorld" data-entity-2="InvalidWorld" data-source-line="43" data-uid="lnk11" id="link_ValidatedWorld_InvalidWorld"><path codeLine="43" d="M216.2521,143.2965 C227.2721,162.5365 236.86,179.29 247.36,197.63" fill="none" id="ValidatedWorld-backto-InvalidWorld" style="stroke:#181818;stroke-width:1;"/><polygon fill="#181818" points="213.27,138.09,214.2721,147.8877,215.7551,142.4287,221.2141,143.9116,213.27,138.09" style="stroke:#181818;stroke-width:1;"/></g><!--SRC=[nP5D3e8m48Ntd6AM4Eq56ZScRjYP67GzGY6DjPY266EykstvAz2T9h8fUVFcwvlE3TCB5WmUfH8Pl0BG7vSrKpcc38ueU8OroqwcR8kj1M05PHxU13wPeh2tPqJRXj7SsIoSWjLxqvJQ6ILU6OL3hRWird3dkYb9ubtaQta7lh2-e8OQHZrta3NUgEO25vWAh2g8PVDBtBP1Bl0is198m9rw48VXUuLy5I2H-9S8EiHqTx0Xn5tL-6ihiuUQLHTJUDZkvZu0]--></g></svg>