<svg xmlns="http://www.w3.org/2000/svg" xmlns:xlink="http://www.w3.org/1999/xlink" contentStyleType="text/css" data-diagram-type="CLASS" height="421px" preserveAspectRatio="none" style="width:708px;height:421px;background:#F9F9F9;" version="1.1" viewBox="0 0 708 421" width="708px" zoomAndPan="magnify"><defs><filter height="300%" id="fo4wqqtf0uerk" width="300%" x="-1" y="-1"><feGaussianBlur result="blurOut" stdDeviation="2"/><feColorMatrix in="blurOut" result="blurOut2" type="matrix" values="0 0 0 0 0 0 0 0 0 0 0 0 0 0 0 0 0 0 .4 0"/><feOffset dx="4" dy="4" in="blurOut2" result="blurOut3"/><feBlend in="SourceGraphic" in2="blurOut3" mode="normal"/></filter></defs><g><rect fill="#F9F9F9" height="421" style="stroke:none;stroke-width:1;" width="708" x="0" y="0"/><!--cluster graveyard--><g class="cluster" data-entity="graveyard" data-source-line="25" data-uid="ent0002" id="cluster_graveyard"><path d="M13.5,6 L76.8721,6 A11.25,11.25 0 0 1 84.3721,13.5 L91.3721,28.4883 L686.5,28.4883 A7.5,7.5 0 0 1 694,35.9883 L694,399.14 A7.5,7.5 0 0 1 686.5,406.64 L13.5,406.64 A7.5,7.5 0 0 1 6,399.14 L6,13.5 A7.5,7.5 0 0 1 13.5,6" fill="none" filter="url(#fo4wqqtf0uerk)" style="stroke:#000000;stroke-width:1.5;"/><line style="stroke:#000000;stroke-width:1.5;" x1="6" x2="91.3721" y1="28.4883" y2="28.4883"/><text fill="#000000" font-family="sans-serif" font-size="14" font-weight="bold" lengthAdjust="spacing" textLength="72.3721" x="10" y="21.5352">graveyard</text></g><!--class Graveyard--><g class="entity" data-entity="Graveyard" data-source-line="26" data-uid="ent0003" id="entity_Graveyard"><rect fill="#CFEFFF" filter="url(#fo4wqqtf0uerk)" height="136.5742" rx="7.5" ry="7.5" style="stroke:#888888;stroke-width:0.5;" width="655.1797" x="22.41" y="41"/><ellipse cx="313.0706" cy="60.0664" fill="#B4A7E5" rx="11" ry="11" style="stroke:#181818;stroke-width:1;"/><path d="M308.9984,55.8315 L308.9984,53.6733 L316.3778,53.6733 L316.3778,55.8315 L313.9124,55.8315 L313.9124,63.9082 L316.3778,63.9082 L316.3778,66.0664 L308.9984,66.0664 L308.9984,63.9082 L311.4637,63.9082 L311.4637,55.8315 Z " fill="#000000"/><text fill="#000000" font-family="sans-serif" font-size="12" font-style="italic" lengthAdjust="spacing" textLength="45.4219" x="343.5389" y="57.6016">&#171;entity&#187;</text><text fill="#000000" font-family="Helvetica" font-size="14" font-style="italic" lengthAdjust="spacing" textLength="65.3584" x="333.5706" y="70.9131">Graveyard</text><line style="stroke:#888888;stroke-width:0.5;" x1="23.41" x2="676.5897" y1="79.1328" y2="79.1328"/><line style="stroke:#888888;stroke-width:0.5;" x1="23.41" x2="676.5897" y1="87.1328" y2="87.1328"/><text fill="#000000" font-family="sans-serif" font-size="14" lengthAdjust="spacing" textLength="531.2412" x="28.41" y="104.668">+of(plugin: Plugin, displayName: ValidDisplayName, player: Player): Graveyard</text><text fill="#000000" font-family="sans-serif" font-size="14" lengthAdjust="spacing" textLength="643.1797" x="28.41" y="121.1563">+of(displayName: ValidDisplayName, attributes: Attributes, location: ValidLocation): Graveyard</text><text fill="#000000" font-family="sans-serif" font-size="14" lengthAdjust="spacing" textLength="204.4561" x="28.41" y="137.6445">+displayName(): DisplayName</text><text fill="#000000" font-family="sans-serif" font-size="14" lengthAdjust="spacing" textLength="179.3477" x="28.41" y="154.1328">+getDisplayName(): String</text><text fill="#000000" font-family="sans-serif" font-size="14" lengthAdjust="spacing" textLength="145.9814" x="28.41" y="170.6211">+worldName(): String</text></g><!--class ValidGraveyard--><g class="entity" data-entity="ValidGraveyard" data-source-line="33" data-uid="ent0004" id="entity_ValidGraveyard"><rect fill="#E6FFE6" filter="url(#fo4wqqtf0uerk)" height="120.0859" rx="7.5" ry="7.5" style="stroke:#888888;stroke-width:0.5;" width="149.5732" x="97.21" y="254.07"/><ellipse cx="121.6978" cy="273.1364" fill="#ADD1B2" rx="11" ry="11" style="stroke:#181818;stroke-width:1;"/><path d="M124.6709,278.7795 Q124.0899,279.0783 123.4507,279.2277 Q122.8116,279.3771 122.106,279.3771 Q119.5992,279.3771 118.2793,277.7253 Q116.9595,276.0734 116.9595,272.9523 Q116.9595,269.8229 118.2793,268.1711 Q119.5992,266.5192 122.106,266.5192 Q122.8116,266.5192 123.459,266.6686 Q124.1065,266.818 124.6709,267.1169 L124.6709,269.8395 Q124.0401,269.2585 123.4466,268.9887 Q122.8531,268.7189 122.2222,268.7189 Q120.8775,268.7189 120.1927,269.7856 Q119.5079,270.8522 119.5079,272.9523 Q119.5079,275.0441 120.1927,276.1108 Q120.8775,277.1774 122.2222,277.1774 Q122.8531,277.1774 123.4466,276.9076 Q124.0401,276.6379 124.6709,276.0568 Z " fill="#000000"/><text fill="#000000" font-family="sans-serif" font-size="12" font-style="italic" lengthAdjust="spacing" textLength="79.6934" x="146.2041" y="270.6716">&#171;entity-valid&#187;</text><text fill="#000000" font-family="Helvetica" font-size="14" lengthAdjust="spacing" textLength="96.4893" x="137.8062" y="283.9831">ValidGraveyard</text><line style="stroke:#888888;stroke-width:0.5;" x1="98.21" x2="245.7832" y1="292.2028" y2="292.2028"/><text fill="#000000" font-family="sans-serif" font-size="14" lengthAdjust="spacing" textLength="114.8711" x="103.21" y="309.738">-playerUid: UUID</text><text fill="#000000" font-family="sans-serif" font-size="14" lengthAdjust="spacing" textLength="125.4395" x="103.21" y="326.2263">-searchKey: String</text><line style="stroke:#888888;stroke-width:1;" x1="98.21" x2="245.7832" y1="333.1794" y2="333.1794"/><text fill="#000000" font-family="sans-serif" font-size="14" lengthAdjust="spacing" textLength="127.0049" x="103.21" y="350.7145">+playerUid(): UUID</text><text fill="#000000" font-family="sans-serif" font-size="14" lengthAdjust="spacing" textLength="137.5732" x="103.21" y="367.2028">+searchKey(): String</text></g><!--class InvalidGraveyard--><g class="entity" data-entity="InvalidGraveyard" data-source-line="40" data-uid="ent0005" id="entity_InvalidGraveyard"><rect fill="#FFE6E6" filter="url(#fo4wqqtf0uerk)" height="153.0625" rx="7.5" ry="7.5" style="stroke:#888888;stroke-width:0.5;" width="320.4033" x="281.8" y="237.58"/><ellipse cx="384.8381" cy="256.6464" fill="#ADD1B2" rx="11" ry="11" style="stroke:#181818;stroke-width:1;"/><path d="M387.8112,262.2895 Q387.2302,262.5883 386.591,262.7377 Q385.9519,262.8871 385.2463,262.8871 Q382.7395,262.8871 381.4196,261.2353 Q380.0998,259.5834 380.0998,256.4623 Q380.0998,253.3329 381.4196,251.6811 Q382.7395,250.0292 385.2463,250.0292 Q385.9519,250.0292 386.5993,250.1786 Q387.2468,250.328 387.8112,250.6269 L387.8112,253.3495 Q387.1804,252.7685 386.5869,252.4987 Q385.9934,252.2289 385.3625,252.2289 Q384.0178,252.2289 383.333,253.2956 Q382.6481,254.3622 382.6481,256.4623 Q382.6481,258.5541 383.333,259.6208 Q384.0178,260.6874 385.3625,260.6874 Q385.9934,260.6874 386.5869,260.4176 Q387.1804,260.1479 387.8112,259.5668 Z " fill="#000000"/><text fill="#000000" font-family="sans-serif" font-size="12" font-style="italic" lengthAdjust="spacing" textLength="90.6094" x="412.947" y="254.1816">&#171;entity-invalid&#187;</text><text fill="#000000" font-family="Helvetica" font-size="14" lengthAdjust="spacing" textLength="105.8271" x="405.3381" y="267.4931">InvalidGraveyard</text><line style="stroke:#888888;stroke-width:0.5;" x1="282.8" x2="601.2033" y1="275.7128" y2="275.7128"/><text fill="#000000" font-family="sans-serif" font-size="14" lengthAdjust="spacing" textLength="192.3223" x="287.8" y="293.248">-displayName: DisplayName</text><text fill="#000000" font-family="sans-serif" font-size="14" lengthAdjust="spacing" textLength="296.2695" x="287.8" y="309.7363">-graveyardFailReason: GraveyardFailReason</text><text fill="#000000" font-family="sans-serif" font-size="14" lengthAdjust="spacing" textLength="133.8477" x="287.8" y="326.2245">-worldName: String</text><line style="stroke:#888888;stroke-width:1;" x1="282.8" x2="601.2033" y1="333.1777" y2="333.1777"/><text fill="#000000" font-family="sans-serif" font-size="14" lengthAdjust="spacing" textLength="204.4561" x="287.8" y="350.7128">+displayName(): DisplayName</text><text fill="#000000" font-family="sans-serif" font-size="14" lengthAdjust="spacing" textLength="308.4033" x="287.8" y="367.2011">+graveyardFailReason(): GraveyardFailReason</text><text fill="#000000" font-family="sans-serif" font-size="14" lengthAdjust="spacing" textLength="145.9814" x="287.8" y="383.6894">+worldName(): String</text></g><!--reverse link Graveyard to ValidGraveyard--><g class="link" data-entity-1="Graveyard" data-entity-2="ValidGraveyard" data-source-line="49" data-uid="lnk6" id="link_Graveyard_ValidGraveyard"><path codeLine="49" d="M286.772,182.3393 C265.232,206.8793 245.02,229.91 224.14,253.7" fill="none" id="Graveyard-backto-ValidGraveyard" style="stroke:#444444;stroke-width:1.2;"/><polygon fill="#444444" points="290.73,177.83,281.7867,181.9553,287.4316,181.5878,287.7991,187.2327,290.73,177.83" style="stroke:#444444;stroke-width:1.2;"/></g><!--reverse link Graveyard to InvalidGraveyard--><g class="link" data-entity-1="Graveyard" data-entity-2="InvalidGraveyard" data-source-line="50" data-uid="lnk7" id="link_Graveyard_InvalidGraveyard"><path codeLine="50" d="M383.1102,183.2934 C391.7402,202.3034 398.7,217.65 407.53,237.12" fill="none" id="Graveyard-backto-InvalidGraveyard" style="stroke:#444444;stroke-width:1.2;"/><polygon fill="#444444" points="380.63,177.83,380.7081,187.6785,382.6968,182.3828,387.9926,184.3716,380.63,177.83" style="stroke:#444444;stroke-width:1.2;"/></g><!--SRC=[bL9TRzem57tFhxXg7w0gcSQqLLjKAj6XCZJKJGCcxV4skGaMnaQs0R69_xuuXCI4GClbmSJd-Dolqu1EfmFzuO_7xX16up_3mNFVNdbwniG25SxX1SDPekHIH5ybbmgkuo_svp3q52EvPY81evRa0Fah9KX1-vC3T9MIwrpkOnPLS3nbuKoGrj1-zw4AFabXHkmlGRljG8kqK4nep0odak4gXnorjj0ppWcklX5VaM4XNbKvNMCKUraQ6eHIP3hlgnJuvm4yLcQpdZ93zbwgY5JUuESilErR5ExlIHXcDWyFS1t65CTnoZd9ybV8MMIvT1V7T7TQpsUYu5fcojrwdjV8PmOZNAL7N-6ADgWYMrl39jxZSnaHtrMyYpsGx9yuc0qc3AaOGu9259pc3iasRa76pGLV9am4y3CxMn0nlU2uiUiAuBTje5VUjC3-8sNfzhm9obpryg_8uNxhEe320Re5N8Pec1Jvcs7- -Ke-9rapfJgPQiW9cTuXVvJc5qaDTIqLZywmjWTVEwTbTHylel3FyJhyVBWJ5WKmcGnwDGnDgCBfTzgShDRtQneeX6q3jTAtfVG5JGvs5gzfipH_NQC7hZYt9hzq-nCo_ejGMrFqZozhdXPhksnObxdek9BcpTiAlDHNpfHzl-AlCyJgZhnIlP4VM-y_]--></g></svg>
