<svg xmlns="http://www.w3.org/2000/svg" xmlns:xlink="http://www.w3.org/1999/xlink" contentStyleType="text/css" data-diagram-type="CLASS" height="454px" preserveAspectRatio="none" style="width:708px;height:454px;background:#F9F9F9;" version="1.1" viewBox="0 0 708 454" width="708px" zoomAndPan="magnify"><defs><filter height="300%" id="fjdugqe9qb7a6" width="300%" x="-1" y="-1"><feGaussianBlur result="blurOut" stdDeviation="2"/><feColorMatrix in="blurOut" result="blurOut2" type="matrix" values="0 0 0 0 0 0 0 0 0 0 0 0 0 0 0 0 0 0 .4 0"/><feOffset dx="4" dy="4" in="blurOut2" result="blurOut3"/><feBlend in="SourceGraphic" in2="blurOut3" mode="normal"/></filter></defs><g><rect fill="#F9F9F9" height="454" style="stroke:none;stroke-width:1;" width="708" x="0" y="0"/><!--cluster graveyard--><g class="cluster" data-entity="graveyard" data-source-line="25" data-uid="ent0002" id="cluster_graveyard"><path d="M13.5,6 L76.8721,6 A11.25,11.25 0 0 1 84.3721,13.5 L91.3721,28.4883 L686.5,28.4883 A7.5,7.5 0 0 1 694,35.9883 L694,432.11 A7.5,7.5 0 0 1 686.5,439.61 L13.5,439.61 A7.5,7.5 0 0 1 6,432.11 L6,13.5 A7.5,7.5 0 0 1 13.5,6" fill="none" filter="url(#fjdugqe9qb7a6)" style="stroke:#000000;stroke-width:1.5;"/><line style="stroke:#000000;stroke-width:1.5;" x1="6" x2="91.3721" y1="28.4883" y2="28.4883"/><text fill="#000000" font-family="sans-serif" font-size="14" font-weight="bold" lengthAdjust="spacing" textLength="72.3721" x="10" y="21.5352">graveyard</text></g><!--class Graveyard--><g class="entity" data-entity="Graveyard" data-source-line="26" data-uid="ent0003" id="entity_Graveyard"><rect fill="#CFEFFF" filter="url(#fjdugqe9qb7a6)" height="136.5742" rx="7.5" ry="7.5" style="stroke:#888888;stroke-width:0.5;" width="655.1797" x="22.41" y="41"/><ellipse cx="313.0706" cy="60.0664" fill="#B4A7E5" rx="11" ry="11" style="stroke:#181818;stroke-width:1;"/><path d="M308.9984,55.8315 L308.9984,53.6733 L316.3778,53.6733 L316.3778,55.8315 L313.9124,55.8315 L313.9124,63.9082 L316.3778,63.9082 L316.3778,66.0664 L308.9984,66.0664 L308.9984,63.9082 L311.4637,63.9082 L311.4637,55.8315 Z " fill="#000000"/><text fill="#000000" font-family="sans-serif" font-size="12" font-style="italic" lengthAdjust="spacing" textLength="45.4219" x="343.5389" y="57.6016">&#171;entity&#187;</text><text fill="#000000" font-family="Helvetica" font-size="14" font-style="italic" lengthAdjust="spacing" textLength="65.3584" x="333.5706" y="70.9131">Graveyard</text><line style="stroke:#888888;stroke-width:0.5;" x1="23.41" x2="676.5897" y1="79.1328" y2="79.1328"/><line style="stroke:#888888;stroke-width:0.5;" x1="23.41" x2="676.5897" y1="87.1328" y2="87.1328"/><text fill="#000000" font-family="sans-serif" font-size="14" lengthAdjust="spacing" textLength="531.2412" x="28.41" y="104.668">+of(plugin: Plugin, displayName: ValidDisplayName, player: Player): Graveyard</text><text fill="#000000" font-family="sans-serif" font-size="14" lengthAdjust="spacing" textLength="643.1797" x="28.41" y="121.1563">+of(displayName: ValidDisplayName, attributes: Attributes, location: ValidLocation): Graveyard</text><text fill="#000000" font-family="sans-serif" font-size="14" lengthAdjust="spacing" textLength="204.4561" x="28.41" y="137.6445">+displayName(): DisplayName</text><text fill="#000000" font-family="sans-serif" font-size="14" lengthAdjust="spacing" textLength="179.3477" x="28.41" y="154.1328">+getDisplayName(): String</text><text fill="#000000" font-family="sans-serif" font-size="14" lengthAdjust="spacing" textLength="145.9814" x="28.41" y="170.6211">+worldName(): String</text></g><!--class ValidGraveyard--><g class="entity" data-entity="ValidGraveyard" data-source-line="33" data-uid="ent0004" id="entity_ValidGraveyard"><rect fill="#E6FFE6" filter="url(#fjdugqe9qb7a6)" height="186.0391" rx="7.5" ry="7.5" style="stroke:#888888;stroke-width:0.5;" width="250.2461" x="80.88" y="237.57"/><ellipse cx="153.5084" cy="256.6364" fill="#ADD1B2" rx="11" ry="11" style="stroke:#181818;stroke-width:1;"/><path d="M156.4816,262.2795 Q155.9005,262.5783 155.2613,262.7277 Q154.6222,262.8771 153.9166,262.8771 Q151.4098,262.8771 150.09,261.2253 Q148.7701,259.5734 148.7701,256.4523 Q148.7701,253.3229 150.09,251.6711 Q151.4098,250.0192 153.9166,250.0192 Q154.6222,250.0192 155.2696,250.1686 Q155.9171,250.318 156.4816,250.6169 L156.4816,253.3395 Q155.8507,252.7585 155.2572,252.4887 Q154.6637,252.2189 154.0328,252.2189 Q152.6881,252.2189 152.0033,253.2856 Q151.3185,254.3522 151.3185,256.4523 Q151.3185,258.5441 152.0033,259.6108 Q152.6881,260.6774 154.0328,260.6774 Q154.6637,260.6774 155.2572,260.4076 Q155.8507,260.1379 156.4816,259.5568 Z " fill="#000000"/><text fill="#000000" font-family="sans-serif" font-size="12" font-style="italic" lengthAdjust="spacing" textLength="79.6934" x="182.4064" y="254.1716">&#171;entity-valid&#187;</text><text fill="#000000" font-family="Helvetica" font-size="14" lengthAdjust="spacing" textLength="96.4893" x="174.0084" y="267.4831">ValidGraveyard</text><line style="stroke:#888888;stroke-width:0.5;" x1="81.88" x2="330.1261" y1="275.7028" y2="275.7028"/><text fill="#000000" font-family="sans-serif" font-size="14" lengthAdjust="spacing" textLength="150.1924" x="86.88" y="293.238">-attributes: Attributes</text><text fill="#000000" font-family="sans-serif" font-size="14" lengthAdjust="spacing" textLength="226.1123" x="86.88" y="309.7263">-displayName: ValidDisplayName</text><text fill="#000000" font-family="sans-serif" font-size="14" lengthAdjust="spacing" textLength="162.4082" x="86.88" y="326.2145">-location: ValidLocation</text><line style="stroke:#888888;stroke-width:1;" x1="81.88" x2="330.1261" y1="333.1677" y2="333.1677"/><text fill="#000000" font-family="sans-serif" font-size="14" lengthAdjust="spacing" textLength="162.3262" x="86.88" y="350.7028">+attributes(): Attributes</text><text fill="#000000" font-family="sans-serif" font-size="14" lengthAdjust="spacing" textLength="238.2461" x="86.88" y="367.1911">+displayName(): ValidDisplayName</text><text fill="#000000" font-family="sans-serif" font-size="14" lengthAdjust="spacing" textLength="174.542" x="86.88" y="383.6794">+location(): ValidLocation</text><text fill="#000000" font-family="sans-serif" font-size="14" lengthAdjust="spacing" textLength="200.3066" x="86.88" y="400.1677">+searchKey(): ValidSearchKey</text><text fill="#000000" font-family="sans-serif" font-size="14" lengthAdjust="spacing" textLength="145.9814" x="86.88" y="416.6559">+worldName(): String</text></g><!--class InvalidGraveyard--><g class="entity" data-entity="InvalidGraveyard" data-source-line="44" data-uid="ent0005" id="entity_InvalidGraveyard"><rect fill="#FFE6E6" filter="url(#fjdugqe9qb7a6)" height="186.0391" rx="7.5" ry="7.5" style="stroke:#888888;stroke-width:0.5;" width="252.1943" x="365.9" y="237.57"/><ellipse cx="434.8336" cy="256.6364" fill="#ADD1B2" rx="11" ry="11" style="stroke:#181818;stroke-width:1;"/><path d="M437.8067,262.2795 Q437.2257,262.5783 436.5865,262.7277 Q435.9474,262.8771 435.2418,262.8771 Q432.735,262.8771 431.4151,261.2253 Q430.0953,259.5734 430.0953,256.4523 Q430.0953,253.3229 431.4151,251.6711 Q432.735,250.0192 435.2418,250.0192 Q435.9474,250.0192 436.5948,250.1686 Q437.2423,250.318 437.8067,250.6169 L437.8067,253.3395 Q437.1759,252.7585 436.5824,252.4887 Q435.9889,252.2189 435.358,252.2189 Q434.0133,252.2189 433.3285,253.2856 Q432.6437,254.3522 432.6437,256.4523 Q432.6437,258.5441 433.3285,259.6108 Q434.0133,260.6774 435.358,260.6774 Q435.9889,260.6774 436.5824,260.4076 Q437.1759,260.1379 437.8067,259.5568 Z " fill="#000000"/><text fill="#000000" font-family="sans-serif" font-size="12" font-style="italic" lengthAdjust="spacing" textLength="90.6094" x="462.9425" y="254.1716">&#171;entity-invalid&#187;</text><text fill="#000000" font-family="Helvetica" font-size="14" lengthAdjust="spacing" textLength="105.8271" x="455.3336" y="267.4831">InvalidGraveyard</text><line style="stroke:#888888;stroke-width:0.5;" x1="366.9" x2="617.0943" y1="275.7028" y2="275.7028"/><text fill="#000000" font-family="sans-serif" font-size="14" lengthAdjust="spacing" textLength="192.3223" x="371.9" y="293.238">-displayName: DisplayName</text><text fill="#000000" font-family="sans-serif" font-size="14" lengthAdjust="spacing" textLength="228.0605" x="371.9" y="309.7263">-graveyardFailReason: FailReason</text><text fill="#000000" font-family="sans-serif" font-size="14" lengthAdjust="spacing" textLength="155.1621" x="371.9" y="326.2145">-parameter: Parameter</text><text fill="#000000" font-family="sans-serif" font-size="14" lengthAdjust="spacing" textLength="133.8477" x="371.9" y="342.7028">-worldName: String</text><line style="stroke:#888888;stroke-width:1;" x1="366.9" x2="617.0943" y1="349.6559" y2="349.6559"/><text fill="#000000" font-family="sans-serif" font-size="14" lengthAdjust="spacing" textLength="204.4561" x="371.9" y="367.1911">+displayName(): DisplayName</text><text fill="#000000" font-family="sans-serif" font-size="14" lengthAdjust="spacing" textLength="240.1943" x="371.9" y="383.6794">+graveyardFailReason(): FailReason</text><text fill="#000000" font-family="sans-serif" font-size="14" lengthAdjust="spacing" textLength="167.2959" x="371.9" y="400.1677">+parameter(): Parameter</text><text fill="#000000" font-family="sans-serif" font-size="14" lengthAdjust="spacing" textLength="145.9814" x="371.9" y="416.6559">+worldName(): String</text></g><!--reverse link Graveyard to ValidGraveyard--><g class="link" data-entity-1="Graveyard" data-entity-2="ValidGraveyard" data-source-line="55" data-uid="lnk6" id="link_Graveyard_ValidGraveyard"><path codeLine="55" d="M302.3271,182.8856 C290.0171,201.6356 279.72,217.31 266.65,237.22" fill="none" id="Graveyard-backto-ValidGraveyard" style="stroke:#444444;stroke-width:1.2;"/><polygon fill="#444444" points="305.62,177.87,297.3368,183.1982,302.8759,182.0497,304.0244,187.5887,305.62,177.87" style="stroke:#444444;stroke-width:1.2;"/></g><!--reverse link Graveyard to InvalidGraveyard--><g class="link" data-entity-1="Graveyard" data-entity-2="InvalidGraveyard" data-source-line="56" data-uid="lnk7" id="link_Graveyard_InvalidGraveyard"><path codeLine="56" d="M397.0228,182.9053 C409.1728,201.6553 419.3,217.31 432.19,237.22" fill="none" id="Graveyard-backto-InvalidGraveyard" style="stroke:#444444;stroke-width:1.2;"/><polygon fill="#444444" points="393.76,177.87,395.2974,187.5981,396.479,182.066,402.0111,183.2477,393.76,177.87" style="stroke:#444444;stroke-width:1.2;"/></g><!--SRC=[hPHTRzem58RlyokEsWiwGQOnRLM7IYMwgWmDTLE39ktIJKw2XR6HRK1quhyl3lammGchD7DXn-Vn-V3hGmU6mo6Cfp_kHrC8Ph-dawUnsVBKWl8LaMG9BoHS95AiUVHLC27XClvYVXQXvYGIMyeJq7ADbY4_9JbAw7-s32CfnJPtzoaRTUDiJiC5HwMW__vZtVWek0xeAqA_RvbMQQ8amHdL32l2zXmoefGnFP4bmiKtP1lKD2GNTMQajQGlQusJKF3CpuSw0dyyWFlQtMpdLAFP5p92cHTuamrl_oyURc-HQwftTtTm6SOOnt7AD5B-XZ0Q6HQlunYlc_tvb9Ui8LDsxtbU9xyp2CWcdSQIR717P6HowvZ0XNqf8cI7Z0-ZC2J54Sjc1kKQPKn2XD8fMCKTmsPqGSHNAxPEA1_0pspkGKJLYf6TaMi0lqm13zLE3ymAfS7D_6vGnNAxF-EE5Agh0PGlGFM0YP1eAdX-Pff_debd1RjAKIkI0qvGFnppGHgV9mvqAoIBMgZzqTVXfMLvdmfHlfzJEVo6st20hRVgu1kkyvJq7TLNMPdoM_8w4U1iPjqoin9lpAqB2eaCvzznLy91iVEVH9iSMjOXMzNCBk7WM95sCQ3gu4T2sJCIPPIfriupsRyOwgptYgKJBEjkVD1EbT_MEwS5c4Cj9NIh0WpPNC9RXREqylrQrxM0TQMzodidd_RUNm00]--></g></svg>
